%FSLAX34Y34*%
G04 Gerber Fmt 3.4, Leading zero omitted, Abs format*
G04 (created by PCBNEW (2014-jan-25)-product) date Wed 02 Jul 2014 11:59:02 PM PDT*
%MOIN*%
G01*
G70*
G90*
G04 APERTURE LIST*
%ADD10C,0.003937*%
%ADD11C,0.236220*%
%ADD12R,0.068000X0.068000*%
%ADD13O,0.068000X0.068000*%
%ADD14C,0.059100*%
%ADD15C,0.068000*%
%ADD16C,0.078700*%
%ADD17O,0.137800X0.066900*%
%ADD18R,0.055000X0.055000*%
%ADD19C,0.055000*%
%ADD20R,0.080000X0.080000*%
%ADD21O,0.080000X0.080000*%
%ADD22C,0.035000*%
%ADD23C,0.040000*%
%ADD24C,0.010000*%
G04 APERTURE END LIST*
G54D10*
G54D11*
X40000Y-42000D03*
G54D12*
X32000Y-41500D03*
G54D13*
X33000Y-41500D03*
X32000Y-42500D03*
X33000Y-42500D03*
X32000Y-43500D03*
X33000Y-43500D03*
X32000Y-44500D03*
X33000Y-44500D03*
X32000Y-45500D03*
X33000Y-45500D03*
X32000Y-46500D03*
X33000Y-46500D03*
X32000Y-47500D03*
X33000Y-47500D03*
X32000Y-48500D03*
X33000Y-48500D03*
G54D12*
X47000Y-41500D03*
G54D13*
X48000Y-41500D03*
X47000Y-42500D03*
X48000Y-42500D03*
X47000Y-43500D03*
X48000Y-43500D03*
X47000Y-44500D03*
X48000Y-44500D03*
X47000Y-45500D03*
X48000Y-45500D03*
X47000Y-46500D03*
X48000Y-46500D03*
X47000Y-47500D03*
X48000Y-47500D03*
X47000Y-48500D03*
X48000Y-48500D03*
G54D14*
X43500Y-46500D03*
X44500Y-46500D03*
X39200Y-45900D03*
X39200Y-44900D03*
X41100Y-46000D03*
X41100Y-45000D03*
X36700Y-52900D03*
X36700Y-51900D03*
G54D12*
X42500Y-52000D03*
G54D15*
X43500Y-52000D03*
X44500Y-52000D03*
G54D12*
X48750Y-52750D03*
G54D13*
X48750Y-51750D03*
X48750Y-50750D03*
X48750Y-49750D03*
G54D12*
X30950Y-58175D03*
G54D13*
X30950Y-57175D03*
X30950Y-56175D03*
X30950Y-55175D03*
G54D16*
X45750Y-50969D03*
X45750Y-46969D03*
X45700Y-41281D03*
X45700Y-45281D03*
X37275Y-41306D03*
X37275Y-45306D03*
X35825Y-41306D03*
X35825Y-45306D03*
X34350Y-41306D03*
X34350Y-45306D03*
X44075Y-41256D03*
X44075Y-45256D03*
X42525Y-41231D03*
X42525Y-45231D03*
X31006Y-51200D03*
X35006Y-51200D03*
X31006Y-49700D03*
X35006Y-49700D03*
X31031Y-52750D03*
X35031Y-52750D03*
X32750Y-54281D03*
X32750Y-58281D03*
X47250Y-49531D03*
X47250Y-53531D03*
X45969Y-53400D03*
X41969Y-53400D03*
G54D17*
X44000Y-48750D03*
X44000Y-49750D03*
X44000Y-47750D03*
G54D18*
X46000Y-54750D03*
G54D19*
X46000Y-55750D03*
X46000Y-56750D03*
X46000Y-57750D03*
X49000Y-57750D03*
X49000Y-56750D03*
X49000Y-55750D03*
X49000Y-54750D03*
G54D18*
X34000Y-54750D03*
G54D19*
X34000Y-55750D03*
X34000Y-56750D03*
X34000Y-57750D03*
X37000Y-57750D03*
X37000Y-56750D03*
X37000Y-55750D03*
X37000Y-54750D03*
G54D18*
X42000Y-54750D03*
G54D19*
X42000Y-55750D03*
X42000Y-56750D03*
X42000Y-57750D03*
X45000Y-57750D03*
X45000Y-56750D03*
X45000Y-55750D03*
X45000Y-54750D03*
G54D18*
X38000Y-52250D03*
G54D19*
X38000Y-53250D03*
X38000Y-54250D03*
X38000Y-55250D03*
X38000Y-56250D03*
X38000Y-57250D03*
X38000Y-58250D03*
X38000Y-59250D03*
X41000Y-59250D03*
X41000Y-58250D03*
X41000Y-57250D03*
X41000Y-56250D03*
X41000Y-55250D03*
X41000Y-54250D03*
X41000Y-53250D03*
X41000Y-52250D03*
G54D20*
X42700Y-59325D03*
G54D21*
X43700Y-59325D03*
G54D20*
X36000Y-59250D03*
G54D21*
X37000Y-59250D03*
G54D12*
X30925Y-59650D03*
G54D13*
X31925Y-59650D03*
X32925Y-59650D03*
X33925Y-59650D03*
G54D12*
X46075Y-59675D03*
G54D13*
X47075Y-59675D03*
X48075Y-59675D03*
X49075Y-59675D03*
G54D22*
X36700Y-49925D03*
X38575Y-49925D03*
X48480Y-53500D03*
X46225Y-54125D03*
X49500Y-58325D03*
X49125Y-43175D03*
X43350Y-43750D03*
X37300Y-44275D03*
X37900Y-45000D03*
X44075Y-43925D03*
X36525Y-46050D03*
X33950Y-47000D03*
X45700Y-44525D03*
X42350Y-43000D03*
X39250Y-50525D03*
X32450Y-57025D03*
X31850Y-50450D03*
X32150Y-49125D03*
X44900Y-59000D03*
X41000Y-47700D03*
X39725Y-47350D03*
X42449Y-48700D03*
X34580Y-53520D03*
X34040Y-52980D03*
X34940Y-48620D03*
X34060Y-49640D03*
X44925Y-45550D03*
X47340Y-54520D03*
X40025Y-48675D03*
X40220Y-50580D03*
X42500Y-50520D03*
X39350Y-59950D03*
X44925Y-43925D03*
X44925Y-41525D03*
X43500Y-53450D03*
X43050Y-55750D03*
X39250Y-51650D03*
X39200Y-58725D03*
X35000Y-57325D03*
X39700Y-54150D03*
X39775Y-57075D03*
X38000Y-51075D03*
X35900Y-51075D03*
X35200Y-55200D03*
X42750Y-58625D03*
X45300Y-59950D03*
X46575Y-54750D03*
X45150Y-59500D03*
X43100Y-58250D03*
X36000Y-54650D03*
X43650Y-54125D03*
G54D23*
X33000Y-48500D02*
X33450Y-48500D01*
X43150Y-46850D02*
X43500Y-46500D01*
X35100Y-46850D02*
X43150Y-46850D01*
X33450Y-48500D02*
X35100Y-46850D01*
X33000Y-48500D02*
X32000Y-48500D01*
X48000Y-41500D02*
X47000Y-41500D01*
X38575Y-49925D02*
X39175Y-49325D01*
X39175Y-49325D02*
X43050Y-49325D01*
X43050Y-49325D02*
X43625Y-48750D01*
X31031Y-52750D02*
X32700Y-52750D01*
X32700Y-52750D02*
X32750Y-52800D01*
X32750Y-54281D02*
X32750Y-52800D01*
X32750Y-52800D02*
X33550Y-52000D01*
X46038Y-53469D02*
X45969Y-53400D01*
X45700Y-48750D02*
X44000Y-48750D01*
X47000Y-48500D02*
X45950Y-48500D01*
X45950Y-48500D02*
X45700Y-48750D01*
X44500Y-46500D02*
X44500Y-46450D01*
X44500Y-46450D02*
X44000Y-45950D01*
X44000Y-45950D02*
X43750Y-45950D01*
X43750Y-45950D02*
X43600Y-45800D01*
X43600Y-45800D02*
X43025Y-45800D01*
X43025Y-45800D02*
X42875Y-45950D01*
X42875Y-45950D02*
X42050Y-45950D01*
X42050Y-45950D02*
X41100Y-45000D01*
X48000Y-48500D02*
X47000Y-48500D01*
X41000Y-56250D02*
X38000Y-56250D01*
X43625Y-48750D02*
X44000Y-48750D01*
X36700Y-49925D02*
X38575Y-49925D01*
X36600Y-52000D02*
X33550Y-52000D01*
X36700Y-51900D02*
X36600Y-52000D01*
G54D24*
X48480Y-53500D02*
X48100Y-53500D01*
X48100Y-53500D02*
X47560Y-52960D01*
X46225Y-54125D02*
X46425Y-54125D01*
X47550Y-52950D02*
X47560Y-52960D01*
X46950Y-52950D02*
X47550Y-52950D01*
X46625Y-53275D02*
X46950Y-52950D01*
X46625Y-53925D02*
X46625Y-53275D01*
X46425Y-54125D02*
X46625Y-53925D01*
X33000Y-42500D02*
X32500Y-43000D01*
X49425Y-58325D02*
X48075Y-59675D01*
X49500Y-58325D02*
X49425Y-58325D01*
X48950Y-43000D02*
X49125Y-43175D01*
X45375Y-43000D02*
X48950Y-43000D01*
X45025Y-43350D02*
X45375Y-43000D01*
X42900Y-43350D02*
X45025Y-43350D01*
X42625Y-43625D02*
X42900Y-43350D01*
X33825Y-43625D02*
X42625Y-43625D01*
X33450Y-44000D02*
X33825Y-43625D01*
X32700Y-44000D02*
X33450Y-44000D01*
X32500Y-43800D02*
X32700Y-44000D01*
X32500Y-43000D02*
X32500Y-43800D01*
X33000Y-43500D02*
X33125Y-43375D01*
X33125Y-43375D02*
X41350Y-43375D01*
X41350Y-43375D02*
X42325Y-42400D01*
X49550Y-50949D02*
X48750Y-51750D01*
X49550Y-43050D02*
X49550Y-50949D01*
X48500Y-42000D02*
X49550Y-43050D01*
X45050Y-42000D02*
X48500Y-42000D01*
X44650Y-42400D02*
X45050Y-42000D01*
X42325Y-42400D02*
X44650Y-42400D01*
X33000Y-43500D02*
X32825Y-43674D01*
X33725Y-45000D02*
X34100Y-44625D01*
X38525Y-44625D02*
X38850Y-44300D01*
X34100Y-44625D02*
X38525Y-44625D01*
X49350Y-50150D02*
X49350Y-44700D01*
X49350Y-44700D02*
X48650Y-44000D01*
X48650Y-44000D02*
X45750Y-44000D01*
X45750Y-44000D02*
X45450Y-44300D01*
X48750Y-50750D02*
X49350Y-50150D01*
X32500Y-45000D02*
X33725Y-45000D01*
X38850Y-44300D02*
X45450Y-44300D01*
X32000Y-44500D02*
X32500Y-45000D01*
X34200Y-43875D02*
X43225Y-43875D01*
X43225Y-43875D02*
X43350Y-43750D01*
X33000Y-44500D02*
X33575Y-44500D01*
X33575Y-44500D02*
X34200Y-43875D01*
X43900Y-44099D02*
X38725Y-44099D01*
X38550Y-44275D02*
X37300Y-44275D01*
X38725Y-44099D02*
X38550Y-44275D01*
X37450Y-45950D02*
X37900Y-45500D01*
X37900Y-45500D02*
X37900Y-45000D01*
X32500Y-46000D02*
X36050Y-46000D01*
X36950Y-45950D02*
X37450Y-45950D01*
X36650Y-45650D02*
X36950Y-45950D01*
X36400Y-45650D02*
X36650Y-45650D01*
X36050Y-46000D02*
X36400Y-45650D01*
X43900Y-44099D02*
X44075Y-43925D01*
X32500Y-46000D02*
X32000Y-46500D01*
X36525Y-46050D02*
X36350Y-46225D01*
X36350Y-46225D02*
X33902Y-46225D01*
X33627Y-46500D02*
X33902Y-46225D01*
X33000Y-46500D02*
X33627Y-46500D01*
X32500Y-47000D02*
X33950Y-47000D01*
X32000Y-47500D02*
X32500Y-47000D01*
X33910Y-47500D02*
X34935Y-46475D01*
X34935Y-46475D02*
X37300Y-46475D01*
X37300Y-46475D02*
X38350Y-45425D01*
X38350Y-45425D02*
X39525Y-45425D01*
X39525Y-45425D02*
X40425Y-44525D01*
X40425Y-44525D02*
X45700Y-44525D01*
X33000Y-47500D02*
X33910Y-47500D01*
G54D23*
X45300Y-50400D02*
X43375Y-50400D01*
X39800Y-49975D02*
X39250Y-50525D01*
X42950Y-49975D02*
X39800Y-49975D01*
X43375Y-50400D02*
X42950Y-49975D01*
X45050Y-42500D02*
X44775Y-42775D01*
X47000Y-42500D02*
X45050Y-42500D01*
X42575Y-42775D02*
X44775Y-42775D01*
X42350Y-43000D02*
X42575Y-42775D01*
X30950Y-55175D02*
X32450Y-56675D01*
X32450Y-56675D02*
X32450Y-57025D01*
X35375Y-50525D02*
X39250Y-50525D01*
X35225Y-50450D02*
X35300Y-50450D01*
X35300Y-50450D02*
X35375Y-50525D01*
X31850Y-50450D02*
X35225Y-50450D01*
X47900Y-50600D02*
X48750Y-49750D01*
X45300Y-50400D02*
X45500Y-50200D01*
X45500Y-50200D02*
X46675Y-50200D01*
X46675Y-50200D02*
X47075Y-50600D01*
X47075Y-50600D02*
X47900Y-50600D01*
G54D24*
X32150Y-49125D02*
X33420Y-49125D01*
X33420Y-49125D02*
X35320Y-47225D01*
X35320Y-47225D02*
X39075Y-47225D01*
X39075Y-47225D02*
X40100Y-48250D01*
X40100Y-48250D02*
X45450Y-48250D01*
X45450Y-48250D02*
X46700Y-47000D01*
X46700Y-47000D02*
X47250Y-47000D01*
X47250Y-47000D02*
X47500Y-46750D01*
X47500Y-46750D02*
X47500Y-46000D01*
X47500Y-46000D02*
X48000Y-45500D01*
G54D23*
X46750Y-59000D02*
X44900Y-59000D01*
X49000Y-56750D02*
X46750Y-59000D01*
X42050Y-52700D02*
X41600Y-52250D01*
X41600Y-52250D02*
X41000Y-52250D01*
X44500Y-52000D02*
X43800Y-52700D01*
X43800Y-52700D02*
X42050Y-52700D01*
X41100Y-46000D02*
X39300Y-46000D01*
X39300Y-46000D02*
X39200Y-45900D01*
X37300Y-52300D02*
X37300Y-51850D01*
X37300Y-51850D02*
X37575Y-51575D01*
X37575Y-51575D02*
X38400Y-51575D01*
X38400Y-51575D02*
X39325Y-52500D01*
X39325Y-52500D02*
X40750Y-52500D01*
X40750Y-52500D02*
X41000Y-52250D01*
X36700Y-52900D02*
X37300Y-52300D01*
X41049Y-47750D02*
X41000Y-47700D01*
X44000Y-47750D02*
X41049Y-47750D01*
G54D24*
X43300Y-47350D02*
X39725Y-47350D01*
X45750Y-46969D02*
X43681Y-46969D01*
X43681Y-46969D02*
X43300Y-47350D01*
G54D23*
X40050Y-48700D02*
X40025Y-48675D01*
X42449Y-48700D02*
X40050Y-48700D01*
X34600Y-53540D02*
X34580Y-53520D01*
X34580Y-53520D02*
X34040Y-52980D01*
X34000Y-55750D02*
X34600Y-55150D01*
X34060Y-49500D02*
X34940Y-48620D01*
X34060Y-49640D02*
X34060Y-49500D01*
X34600Y-55150D02*
X34600Y-53540D01*
X44940Y-45560D02*
X44935Y-45560D01*
X44935Y-45560D02*
X44925Y-45550D01*
X47340Y-54520D02*
X48020Y-54520D01*
X46390Y-55750D02*
X47340Y-54800D01*
X47340Y-54800D02*
X47340Y-54520D01*
X46000Y-55750D02*
X46390Y-55750D01*
X49370Y-52750D02*
X48750Y-52750D01*
X49500Y-52880D02*
X49370Y-52750D01*
X49500Y-53540D02*
X49500Y-52880D01*
X49020Y-54020D02*
X49500Y-53540D01*
X48520Y-54020D02*
X49020Y-54020D01*
X48020Y-54520D02*
X48520Y-54020D01*
G54D24*
X42440Y-50580D02*
X40220Y-50580D01*
X42500Y-50520D02*
X42440Y-50580D01*
X40025Y-48675D02*
X42235Y-48675D01*
X42235Y-48675D02*
X42240Y-48680D01*
G54D23*
X42000Y-57750D02*
X41800Y-57950D01*
X41400Y-59950D02*
X39350Y-59950D01*
X41800Y-59550D02*
X41400Y-59950D01*
X41800Y-57950D02*
X41800Y-59550D01*
X46000Y-57750D02*
X45325Y-58425D01*
X44025Y-57750D02*
X42000Y-57750D01*
X44700Y-58425D02*
X44025Y-57750D01*
X45325Y-58425D02*
X44700Y-58425D01*
X47000Y-43500D02*
X45700Y-43500D01*
X45275Y-43925D02*
X44925Y-43925D01*
X45700Y-43500D02*
X45275Y-43925D01*
X44500Y-41950D02*
X42225Y-41950D01*
X44925Y-41525D02*
X44500Y-41950D01*
X42225Y-41950D02*
X41325Y-41050D01*
X40950Y-41050D02*
X41325Y-41050D01*
X40000Y-42000D02*
X40950Y-41050D01*
X48000Y-43500D02*
X47000Y-43500D01*
X43500Y-53450D02*
X44250Y-53450D01*
X44250Y-53450D02*
X45125Y-52575D01*
X45125Y-52575D02*
X47875Y-52575D01*
X47875Y-52575D02*
X48050Y-52750D01*
X48050Y-52750D02*
X48750Y-52750D01*
X42000Y-55750D02*
X43050Y-55750D01*
X42920Y-51300D02*
X39600Y-51300D01*
X39600Y-51300D02*
X39250Y-51650D01*
X43500Y-52000D02*
X43500Y-51880D01*
X43500Y-51880D02*
X42920Y-51300D01*
X38675Y-59250D02*
X39200Y-58725D01*
X38000Y-59250D02*
X38675Y-59250D01*
G54D24*
X35000Y-57325D02*
X35075Y-57250D01*
X35075Y-57250D02*
X37225Y-57250D01*
X37225Y-57250D02*
X37750Y-56725D01*
X37750Y-56725D02*
X41175Y-56725D01*
X41175Y-56725D02*
X41675Y-56225D01*
X45475Y-56225D02*
X41675Y-56225D01*
X46000Y-56750D02*
X45475Y-56225D01*
X38000Y-53250D02*
X38900Y-54150D01*
X38900Y-54150D02*
X39700Y-54150D01*
X41250Y-57775D02*
X40475Y-57775D01*
X40475Y-57775D02*
X39775Y-57075D01*
X41250Y-57775D02*
X41750Y-57275D01*
X41750Y-57275D02*
X47475Y-57275D01*
X47475Y-57275D02*
X49000Y-55750D01*
X49200Y-55300D02*
X48780Y-55300D01*
X48780Y-55300D02*
X47820Y-56260D01*
X47820Y-56260D02*
X45840Y-56260D01*
X45840Y-56260D02*
X45460Y-55880D01*
X45460Y-55880D02*
X45460Y-55440D01*
X45460Y-55440D02*
X45320Y-55300D01*
X49000Y-57750D02*
X49475Y-57275D01*
X49225Y-55300D02*
X49200Y-55300D01*
X45320Y-55300D02*
X41600Y-55300D01*
X49475Y-55550D02*
X49225Y-55300D01*
X49475Y-57275D02*
X49475Y-55550D01*
X38000Y-51075D02*
X35900Y-51075D01*
X38300Y-52250D02*
X40400Y-54350D01*
X38000Y-52250D02*
X38300Y-52250D01*
X41450Y-55150D02*
X41600Y-55300D01*
X41450Y-54925D02*
X41450Y-55150D01*
X41250Y-54725D02*
X41450Y-54925D01*
X40700Y-54725D02*
X41250Y-54725D01*
X40400Y-54425D02*
X40700Y-54725D01*
X40400Y-54350D02*
X40400Y-54425D01*
X35750Y-55750D02*
X35200Y-55200D01*
X37000Y-55750D02*
X35750Y-55750D01*
X36469Y-58281D02*
X37000Y-57750D01*
X32750Y-58281D02*
X36469Y-58281D01*
X39025Y-57750D02*
X39525Y-58250D01*
X39525Y-58250D02*
X41000Y-58250D01*
X37000Y-57750D02*
X39025Y-57750D01*
X44275Y-59350D02*
X44875Y-59950D01*
X44275Y-58975D02*
X44275Y-59350D01*
X43925Y-58625D02*
X44275Y-58975D01*
X42750Y-58625D02*
X43925Y-58625D01*
X44875Y-59950D02*
X45300Y-59950D01*
X47250Y-54075D02*
X47250Y-53531D01*
X46575Y-54750D02*
X47250Y-54075D01*
X44500Y-58825D02*
X44500Y-59125D01*
X44875Y-59500D02*
X45150Y-59500D01*
X44500Y-59125D02*
X44875Y-59500D01*
X43925Y-58250D02*
X43100Y-58250D01*
X44500Y-58825D02*
X43925Y-58250D01*
X41150Y-53400D02*
X41969Y-53400D01*
X41000Y-53250D02*
X41150Y-53400D01*
G54D23*
X36500Y-54150D02*
X36000Y-54650D01*
X37900Y-54150D02*
X36500Y-54150D01*
X38000Y-54250D02*
X37900Y-54150D01*
X41125Y-54125D02*
X43650Y-54125D01*
X41000Y-54250D02*
X41125Y-54125D01*
G54D24*
G36*
X42019Y-55755D02*
X42005Y-55769D01*
X42000Y-55764D01*
X41994Y-55769D01*
X41980Y-55755D01*
X41985Y-55750D01*
X41980Y-55744D01*
X41994Y-55730D01*
X42000Y-55735D01*
X42005Y-55730D01*
X42019Y-55744D01*
X42014Y-55750D01*
X42019Y-55755D01*
X42019Y-55755D01*
G37*
X42019Y-55755D02*
X42005Y-55769D01*
X42000Y-55764D01*
X41994Y-55769D01*
X41980Y-55755D01*
X41985Y-55750D01*
X41980Y-55744D01*
X41994Y-55730D01*
X42000Y-55735D01*
X42005Y-55730D01*
X42019Y-55744D01*
X42014Y-55750D01*
X42019Y-55755D01*
G36*
X44504Y-55925D02*
X42605Y-55925D01*
X42621Y-55889D01*
X42627Y-55640D01*
X42612Y-55600D01*
X44493Y-55600D01*
X44475Y-55645D01*
X44474Y-55853D01*
X44504Y-55925D01*
X44504Y-55925D01*
G37*
X44504Y-55925D02*
X42605Y-55925D01*
X42621Y-55889D01*
X42627Y-55640D01*
X42612Y-55600D01*
X44493Y-55600D01*
X44475Y-55645D01*
X44474Y-55853D01*
X44504Y-55925D01*
G36*
X46092Y-59685D02*
X46085Y-59685D01*
X46085Y-59692D01*
X46065Y-59692D01*
X46065Y-59685D01*
X46057Y-59685D01*
X46057Y-59665D01*
X46065Y-59665D01*
X46065Y-59657D01*
X46085Y-59657D01*
X46085Y-59665D01*
X46092Y-59665D01*
X46092Y-59685D01*
X46092Y-59685D01*
G37*
X46092Y-59685D02*
X46085Y-59685D01*
X46085Y-59692D01*
X46065Y-59692D01*
X46065Y-59685D01*
X46057Y-59685D01*
X46057Y-59665D01*
X46065Y-59665D01*
X46065Y-59657D01*
X46085Y-59657D01*
X46085Y-59665D01*
X46092Y-59665D01*
X46092Y-59685D01*
G36*
X46689Y-46000D02*
X46582Y-46071D01*
X46454Y-46262D01*
X46410Y-46488D01*
X46410Y-46511D01*
X46454Y-46737D01*
X46488Y-46787D01*
X46487Y-46787D01*
X46393Y-46882D01*
X46393Y-46841D01*
X46295Y-46604D01*
X46114Y-46423D01*
X45878Y-46325D01*
X45622Y-46325D01*
X45385Y-46423D01*
X45204Y-46604D01*
X45177Y-46669D01*
X45020Y-46669D01*
X45045Y-46608D01*
X45045Y-46391D01*
X44962Y-46191D01*
X44809Y-46037D01*
X44663Y-45977D01*
X44463Y-45777D01*
X44620Y-45620D01*
X44718Y-45384D01*
X44718Y-45128D01*
X44620Y-44891D01*
X44554Y-44825D01*
X45245Y-44825D01*
X45154Y-44916D01*
X45056Y-45152D01*
X45056Y-45408D01*
X45154Y-45645D01*
X45335Y-45826D01*
X45571Y-45924D01*
X45827Y-45924D01*
X46064Y-45826D01*
X46245Y-45645D01*
X46343Y-45409D01*
X46343Y-45153D01*
X46245Y-44916D01*
X46070Y-44741D01*
X46124Y-44609D01*
X46125Y-44440D01*
X46066Y-44300D01*
X46447Y-44300D01*
X46410Y-44488D01*
X46410Y-44511D01*
X46454Y-44737D01*
X46582Y-44928D01*
X46689Y-45000D01*
X46582Y-45071D01*
X46454Y-45262D01*
X46410Y-45488D01*
X46410Y-45511D01*
X46454Y-45737D01*
X46582Y-45928D01*
X46689Y-46000D01*
X46689Y-46000D01*
G37*
X46689Y-46000D02*
X46582Y-46071D01*
X46454Y-46262D01*
X46410Y-46488D01*
X46410Y-46511D01*
X46454Y-46737D01*
X46488Y-46787D01*
X46487Y-46787D01*
X46393Y-46882D01*
X46393Y-46841D01*
X46295Y-46604D01*
X46114Y-46423D01*
X45878Y-46325D01*
X45622Y-46325D01*
X45385Y-46423D01*
X45204Y-46604D01*
X45177Y-46669D01*
X45020Y-46669D01*
X45045Y-46608D01*
X45045Y-46391D01*
X44962Y-46191D01*
X44809Y-46037D01*
X44663Y-45977D01*
X44463Y-45777D01*
X44620Y-45620D01*
X44718Y-45384D01*
X44718Y-45128D01*
X44620Y-44891D01*
X44554Y-44825D01*
X45245Y-44825D01*
X45154Y-44916D01*
X45056Y-45152D01*
X45056Y-45408D01*
X45154Y-45645D01*
X45335Y-45826D01*
X45571Y-45924D01*
X45827Y-45924D01*
X46064Y-45826D01*
X46245Y-45645D01*
X46343Y-45409D01*
X46343Y-45153D01*
X46245Y-44916D01*
X46070Y-44741D01*
X46124Y-44609D01*
X46125Y-44440D01*
X46066Y-44300D01*
X46447Y-44300D01*
X46410Y-44488D01*
X46410Y-44511D01*
X46454Y-44737D01*
X46582Y-44928D01*
X46689Y-45000D01*
X46582Y-45071D01*
X46454Y-45262D01*
X46410Y-45488D01*
X46410Y-45511D01*
X46454Y-45737D01*
X46582Y-45928D01*
X46689Y-46000D01*
G36*
X47554Y-57559D02*
X46563Y-58550D01*
X46381Y-58550D01*
X46381Y-58145D01*
X46000Y-57764D01*
X45618Y-58145D01*
X45633Y-58271D01*
X45860Y-58371D01*
X46109Y-58377D01*
X46341Y-58288D01*
X46366Y-58271D01*
X46381Y-58145D01*
X46381Y-58550D01*
X44900Y-58550D01*
X44727Y-58584D01*
X44701Y-58601D01*
X44137Y-58037D01*
X44039Y-57972D01*
X43925Y-57950D01*
X43401Y-57950D01*
X43341Y-57889D01*
X43184Y-57825D01*
X43015Y-57824D01*
X42859Y-57889D01*
X42739Y-58008D01*
X42675Y-58165D01*
X42675Y-58199D01*
X42665Y-58199D01*
X42509Y-58264D01*
X42389Y-58383D01*
X42381Y-58403D01*
X42381Y-58145D01*
X42000Y-57764D01*
X41618Y-58145D01*
X41633Y-58271D01*
X41860Y-58371D01*
X42109Y-58377D01*
X42341Y-58288D01*
X42366Y-58271D01*
X42381Y-58145D01*
X42381Y-58403D01*
X42325Y-58540D01*
X42324Y-58675D01*
X42250Y-58675D01*
X42158Y-58713D01*
X42088Y-58783D01*
X42050Y-58875D01*
X42050Y-58974D01*
X42050Y-59774D01*
X42088Y-59866D01*
X42158Y-59936D01*
X42250Y-59975D01*
X42349Y-59975D01*
X43149Y-59975D01*
X43241Y-59936D01*
X43311Y-59866D01*
X43320Y-59846D01*
X43438Y-59925D01*
X43687Y-59975D01*
X43712Y-59975D01*
X43961Y-59925D01*
X44172Y-59784D01*
X44217Y-59716D01*
X44662Y-60162D01*
X44662Y-60162D01*
X44719Y-60200D01*
X34137Y-60200D01*
X34162Y-60195D01*
X34353Y-60067D01*
X34481Y-59875D01*
X34526Y-59650D01*
X34481Y-59424D01*
X34353Y-59232D01*
X34162Y-59104D01*
X33936Y-59060D01*
X33913Y-59060D01*
X33687Y-59104D01*
X33496Y-59232D01*
X33425Y-59339D01*
X33353Y-59232D01*
X33162Y-59104D01*
X32936Y-59060D01*
X32913Y-59060D01*
X32687Y-59104D01*
X32496Y-59232D01*
X32425Y-59339D01*
X32353Y-59232D01*
X32162Y-59104D01*
X31936Y-59060D01*
X31913Y-59060D01*
X31687Y-59104D01*
X31640Y-59136D01*
X31640Y-58584D01*
X31640Y-58272D01*
X31552Y-58185D01*
X30960Y-58185D01*
X30960Y-58777D01*
X31047Y-58865D01*
X31220Y-58865D01*
X31359Y-58865D01*
X31488Y-58811D01*
X31586Y-58713D01*
X31640Y-58584D01*
X31640Y-59136D01*
X31586Y-59172D01*
X31561Y-59111D01*
X31463Y-59013D01*
X31334Y-58960D01*
X31022Y-58960D01*
X30935Y-59047D01*
X30935Y-59640D01*
X30942Y-59640D01*
X30942Y-59660D01*
X30935Y-59660D01*
X30935Y-59667D01*
X30915Y-59667D01*
X30915Y-59660D01*
X30907Y-59660D01*
X30907Y-59640D01*
X30915Y-59640D01*
X30915Y-59047D01*
X30827Y-58960D01*
X30515Y-58960D01*
X30386Y-59013D01*
X30300Y-59100D01*
X30300Y-58681D01*
X30313Y-58713D01*
X30411Y-58811D01*
X30540Y-58865D01*
X30679Y-58865D01*
X30852Y-58865D01*
X30940Y-58777D01*
X30940Y-58185D01*
X30932Y-58185D01*
X30932Y-58165D01*
X30940Y-58165D01*
X30940Y-58157D01*
X30960Y-58157D01*
X30960Y-58165D01*
X31552Y-58165D01*
X31640Y-58077D01*
X31640Y-57765D01*
X31586Y-57636D01*
X31488Y-57538D01*
X31427Y-57513D01*
X31495Y-57412D01*
X31540Y-57186D01*
X31540Y-57163D01*
X31495Y-56937D01*
X31367Y-56746D01*
X31260Y-56675D01*
X31367Y-56603D01*
X31495Y-56412D01*
X31504Y-56365D01*
X32000Y-56861D01*
X32000Y-57025D01*
X32034Y-57197D01*
X32131Y-57343D01*
X32277Y-57440D01*
X32450Y-57475D01*
X32622Y-57440D01*
X32768Y-57343D01*
X32865Y-57197D01*
X32900Y-57025D01*
X32900Y-56675D01*
X32865Y-56502D01*
X32768Y-56356D01*
X31531Y-55119D01*
X31495Y-54937D01*
X31367Y-54746D01*
X31175Y-54618D01*
X30950Y-54573D01*
X30724Y-54618D01*
X30532Y-54746D01*
X30404Y-54937D01*
X30360Y-55163D01*
X30360Y-55186D01*
X30404Y-55412D01*
X30532Y-55603D01*
X30639Y-55675D01*
X30532Y-55746D01*
X30404Y-55937D01*
X30360Y-56163D01*
X30360Y-56186D01*
X30404Y-56412D01*
X30532Y-56603D01*
X30639Y-56675D01*
X30532Y-56746D01*
X30404Y-56937D01*
X30360Y-57163D01*
X30360Y-57186D01*
X30404Y-57412D01*
X30472Y-57513D01*
X30411Y-57538D01*
X30313Y-57636D01*
X30300Y-57668D01*
X30300Y-40800D01*
X33946Y-40800D01*
X33804Y-40941D01*
X33706Y-41177D01*
X33706Y-41433D01*
X33804Y-41670D01*
X33985Y-41851D01*
X34221Y-41949D01*
X34477Y-41949D01*
X34714Y-41851D01*
X34895Y-41670D01*
X34993Y-41434D01*
X34993Y-41178D01*
X34895Y-40941D01*
X34754Y-40800D01*
X35421Y-40800D01*
X35279Y-40941D01*
X35181Y-41177D01*
X35181Y-41433D01*
X35279Y-41670D01*
X35460Y-41851D01*
X35696Y-41949D01*
X35952Y-41949D01*
X36189Y-41851D01*
X36370Y-41670D01*
X36468Y-41434D01*
X36468Y-41178D01*
X36370Y-40941D01*
X36229Y-40800D01*
X36871Y-40800D01*
X36729Y-40941D01*
X36631Y-41177D01*
X36631Y-41433D01*
X36729Y-41670D01*
X36910Y-41851D01*
X37146Y-41949D01*
X37402Y-41949D01*
X37639Y-41851D01*
X37820Y-41670D01*
X37918Y-41434D01*
X37918Y-41178D01*
X37820Y-40941D01*
X37679Y-40800D01*
X39051Y-40800D01*
X38965Y-40950D01*
X40000Y-41985D01*
X41034Y-40950D01*
X40948Y-40800D01*
X42045Y-40800D01*
X41979Y-40866D01*
X41881Y-41102D01*
X41881Y-41358D01*
X41979Y-41595D01*
X42160Y-41776D01*
X42396Y-41874D01*
X42652Y-41874D01*
X42889Y-41776D01*
X43070Y-41595D01*
X43168Y-41359D01*
X43168Y-41103D01*
X43070Y-40866D01*
X43004Y-40800D01*
X43620Y-40800D01*
X43529Y-40891D01*
X43431Y-41127D01*
X43431Y-41383D01*
X43529Y-41620D01*
X43710Y-41801D01*
X43946Y-41899D01*
X44202Y-41899D01*
X44439Y-41801D01*
X44620Y-41620D01*
X44718Y-41384D01*
X44718Y-41128D01*
X44620Y-40891D01*
X44529Y-40800D01*
X45270Y-40800D01*
X45154Y-40916D01*
X45056Y-41152D01*
X45056Y-41408D01*
X45154Y-41645D01*
X45209Y-41700D01*
X45050Y-41700D01*
X44935Y-41722D01*
X44837Y-41787D01*
X44525Y-42100D01*
X42325Y-42100D01*
X42210Y-42122D01*
X42112Y-42187D01*
X41540Y-42760D01*
X41225Y-43075D01*
X41089Y-43075D01*
X41049Y-43034D01*
X41268Y-42909D01*
X41520Y-42354D01*
X41540Y-41745D01*
X41325Y-41175D01*
X41268Y-41090D01*
X41049Y-40965D01*
X40014Y-42000D01*
X40019Y-42005D01*
X40005Y-42019D01*
X40000Y-42014D01*
X39994Y-42019D01*
X39985Y-42011D01*
X39980Y-42005D01*
X39985Y-42000D01*
X38950Y-40965D01*
X38731Y-41090D01*
X38479Y-41645D01*
X38459Y-42254D01*
X38674Y-42824D01*
X38731Y-42909D01*
X38950Y-43034D01*
X38910Y-43075D01*
X33419Y-43075D01*
X33417Y-43071D01*
X33310Y-43000D01*
X33417Y-42928D01*
X33545Y-42737D01*
X33590Y-42511D01*
X33590Y-42488D01*
X33545Y-42262D01*
X33417Y-42071D01*
X33310Y-42000D01*
X33417Y-41928D01*
X33545Y-41737D01*
X33590Y-41511D01*
X33590Y-41488D01*
X33545Y-41262D01*
X33417Y-41071D01*
X33225Y-40943D01*
X33000Y-40898D01*
X32774Y-40943D01*
X32582Y-41071D01*
X32577Y-41079D01*
X32551Y-41018D01*
X32481Y-40948D01*
X32389Y-40910D01*
X32290Y-40910D01*
X31610Y-40910D01*
X31518Y-40948D01*
X31448Y-41018D01*
X31410Y-41110D01*
X31410Y-41209D01*
X31410Y-41889D01*
X31448Y-41981D01*
X31518Y-42051D01*
X31578Y-42077D01*
X31454Y-42262D01*
X31410Y-42488D01*
X31410Y-42511D01*
X31454Y-42737D01*
X31582Y-42928D01*
X31689Y-43000D01*
X31582Y-43071D01*
X31454Y-43262D01*
X31410Y-43488D01*
X31410Y-43511D01*
X31454Y-43737D01*
X31582Y-43928D01*
X31689Y-44000D01*
X31582Y-44071D01*
X31454Y-44262D01*
X31410Y-44488D01*
X31410Y-44511D01*
X31454Y-44737D01*
X31582Y-44928D01*
X31689Y-45000D01*
X31582Y-45071D01*
X31454Y-45262D01*
X31410Y-45488D01*
X31410Y-45511D01*
X31454Y-45737D01*
X31582Y-45928D01*
X31689Y-46000D01*
X31582Y-46071D01*
X31454Y-46262D01*
X31410Y-46488D01*
X31410Y-46511D01*
X31454Y-46737D01*
X31582Y-46928D01*
X31689Y-47000D01*
X31582Y-47071D01*
X31454Y-47262D01*
X31410Y-47488D01*
X31410Y-47511D01*
X31454Y-47737D01*
X31582Y-47928D01*
X31689Y-48000D01*
X31582Y-48071D01*
X31454Y-48262D01*
X31410Y-48488D01*
X31410Y-48511D01*
X31454Y-48737D01*
X31582Y-48928D01*
X31730Y-49027D01*
X31725Y-49040D01*
X31724Y-49209D01*
X31789Y-49365D01*
X31908Y-49485D01*
X32065Y-49549D01*
X32234Y-49550D01*
X32390Y-49485D01*
X32451Y-49425D01*
X33420Y-49425D01*
X33420Y-49424D01*
X33534Y-49402D01*
X33534Y-49402D01*
X33632Y-49337D01*
X35444Y-47525D01*
X38950Y-47525D01*
X39887Y-48462D01*
X39985Y-48527D01*
X39985Y-48527D01*
X40100Y-48550D01*
X43082Y-48550D01*
X43056Y-48682D01*
X42863Y-48875D01*
X39175Y-48875D01*
X39002Y-48909D01*
X38856Y-49006D01*
X38388Y-49475D01*
X38086Y-49475D01*
X38245Y-49316D01*
X38397Y-48949D01*
X38398Y-48552D01*
X38246Y-48185D01*
X37966Y-47904D01*
X37599Y-47752D01*
X37202Y-47751D01*
X36835Y-47903D01*
X36554Y-48183D01*
X36402Y-48550D01*
X36401Y-48947D01*
X36553Y-49314D01*
X36713Y-49475D01*
X36700Y-49475D01*
X36527Y-49509D01*
X36381Y-49606D01*
X36284Y-49752D01*
X36250Y-49925D01*
X36279Y-50075D01*
X35541Y-50075D01*
X35551Y-50064D01*
X35649Y-49828D01*
X35649Y-49572D01*
X35551Y-49335D01*
X35370Y-49154D01*
X35134Y-49056D01*
X34878Y-49056D01*
X34641Y-49154D01*
X34460Y-49335D01*
X34362Y-49571D01*
X34362Y-49827D01*
X34433Y-50000D01*
X31850Y-50000D01*
X31677Y-50034D01*
X31649Y-50053D01*
X31649Y-49572D01*
X31551Y-49335D01*
X31370Y-49154D01*
X31134Y-49056D01*
X30878Y-49056D01*
X30641Y-49154D01*
X30460Y-49335D01*
X30362Y-49571D01*
X30362Y-49827D01*
X30460Y-50064D01*
X30641Y-50245D01*
X30877Y-50343D01*
X31133Y-50343D01*
X31370Y-50245D01*
X31551Y-50064D01*
X31649Y-49828D01*
X31649Y-49572D01*
X31649Y-50053D01*
X31531Y-50131D01*
X31434Y-50277D01*
X31400Y-50450D01*
X31434Y-50622D01*
X31531Y-50768D01*
X31677Y-50865D01*
X31850Y-50900D01*
X34433Y-50900D01*
X34362Y-51071D01*
X34362Y-51327D01*
X34454Y-51550D01*
X33550Y-51550D01*
X33377Y-51584D01*
X33231Y-51681D01*
X32613Y-52300D01*
X31649Y-52300D01*
X31649Y-51072D01*
X31551Y-50835D01*
X31370Y-50654D01*
X31134Y-50556D01*
X30878Y-50556D01*
X30641Y-50654D01*
X30460Y-50835D01*
X30362Y-51071D01*
X30362Y-51327D01*
X30460Y-51564D01*
X30641Y-51745D01*
X30877Y-51843D01*
X31133Y-51843D01*
X31370Y-51745D01*
X31551Y-51564D01*
X31649Y-51328D01*
X31649Y-51072D01*
X31649Y-52300D01*
X31491Y-52300D01*
X31395Y-52204D01*
X31159Y-52106D01*
X30903Y-52106D01*
X30666Y-52204D01*
X30485Y-52385D01*
X30387Y-52621D01*
X30387Y-52877D01*
X30485Y-53114D01*
X30666Y-53295D01*
X30902Y-53393D01*
X31158Y-53393D01*
X31395Y-53295D01*
X31491Y-53200D01*
X32300Y-53200D01*
X32300Y-53820D01*
X32204Y-53916D01*
X32106Y-54152D01*
X32106Y-54408D01*
X32204Y-54645D01*
X32385Y-54826D01*
X32621Y-54924D01*
X32877Y-54924D01*
X33114Y-54826D01*
X33295Y-54645D01*
X33393Y-54409D01*
X33393Y-54153D01*
X33295Y-53916D01*
X33200Y-53820D01*
X33200Y-52986D01*
X33736Y-52450D01*
X34458Y-52450D01*
X34387Y-52621D01*
X34387Y-52877D01*
X34485Y-53114D01*
X34666Y-53295D01*
X34902Y-53393D01*
X35158Y-53393D01*
X35395Y-53295D01*
X35576Y-53114D01*
X35674Y-52878D01*
X35674Y-52622D01*
X35603Y-52450D01*
X36378Y-52450D01*
X36237Y-52590D01*
X36154Y-52791D01*
X36154Y-53008D01*
X36237Y-53208D01*
X36390Y-53362D01*
X36591Y-53445D01*
X36808Y-53445D01*
X37008Y-53362D01*
X37162Y-53209D01*
X37245Y-53008D01*
X37245Y-52990D01*
X37541Y-52694D01*
X37583Y-52736D01*
X37675Y-52775D01*
X37774Y-52775D01*
X37774Y-52775D01*
X37703Y-52804D01*
X37555Y-52952D01*
X37475Y-53145D01*
X37474Y-53353D01*
X37554Y-53547D01*
X37702Y-53694D01*
X37714Y-53700D01*
X36500Y-53700D01*
X36327Y-53734D01*
X36181Y-53831D01*
X35681Y-54331D01*
X35584Y-54477D01*
X35550Y-54650D01*
X35584Y-54822D01*
X35681Y-54968D01*
X35827Y-55065D01*
X36000Y-55100D01*
X36172Y-55065D01*
X36318Y-54968D01*
X36474Y-54811D01*
X36474Y-54853D01*
X36554Y-55047D01*
X36702Y-55194D01*
X36835Y-55250D01*
X36703Y-55304D01*
X36557Y-55450D01*
X35874Y-55450D01*
X35624Y-55200D01*
X35625Y-55115D01*
X35560Y-54959D01*
X35441Y-54839D01*
X35284Y-54775D01*
X35115Y-54774D01*
X34959Y-54839D01*
X34839Y-54958D01*
X34775Y-55115D01*
X34774Y-55284D01*
X34839Y-55440D01*
X34958Y-55560D01*
X35115Y-55624D01*
X35200Y-55625D01*
X35537Y-55962D01*
X35537Y-55962D01*
X35635Y-56027D01*
X35750Y-56050D01*
X36557Y-56050D01*
X36702Y-56194D01*
X36835Y-56250D01*
X36703Y-56304D01*
X36555Y-56452D01*
X36475Y-56645D01*
X36474Y-56853D01*
X36514Y-56950D01*
X35205Y-56950D01*
X35084Y-56900D01*
X34915Y-56899D01*
X34759Y-56964D01*
X34639Y-57083D01*
X34627Y-57113D01*
X34627Y-55640D01*
X34538Y-55408D01*
X34525Y-55389D01*
X34525Y-55074D01*
X34525Y-54975D01*
X34525Y-54425D01*
X34486Y-54333D01*
X34416Y-54263D01*
X34324Y-54225D01*
X34225Y-54225D01*
X33675Y-54225D01*
X33583Y-54263D01*
X33513Y-54333D01*
X33475Y-54425D01*
X33475Y-54524D01*
X33475Y-55074D01*
X33513Y-55166D01*
X33583Y-55236D01*
X33630Y-55256D01*
X33618Y-55354D01*
X34000Y-55735D01*
X34381Y-55354D01*
X34369Y-55256D01*
X34416Y-55236D01*
X34486Y-55166D01*
X34525Y-55074D01*
X34525Y-55389D01*
X34521Y-55383D01*
X34395Y-55368D01*
X34014Y-55750D01*
X34395Y-56131D01*
X34521Y-56116D01*
X34621Y-55889D01*
X34627Y-55640D01*
X34627Y-57113D01*
X34575Y-57240D01*
X34574Y-57409D01*
X34639Y-57565D01*
X34758Y-57685D01*
X34915Y-57749D01*
X35084Y-57750D01*
X35240Y-57685D01*
X35360Y-57566D01*
X35366Y-57550D01*
X36514Y-57550D01*
X36475Y-57645D01*
X36474Y-57850D01*
X36344Y-57981D01*
X34581Y-57981D01*
X34621Y-57889D01*
X34627Y-57640D01*
X34538Y-57408D01*
X34525Y-57389D01*
X34525Y-56646D01*
X34445Y-56453D01*
X34297Y-56305D01*
X34297Y-56305D01*
X34341Y-56288D01*
X34366Y-56271D01*
X34381Y-56145D01*
X34000Y-55764D01*
X33985Y-55778D01*
X33985Y-55750D01*
X33604Y-55368D01*
X33478Y-55383D01*
X33378Y-55610D01*
X33372Y-55859D01*
X33461Y-56091D01*
X33478Y-56116D01*
X33604Y-56131D01*
X33985Y-55750D01*
X33985Y-55778D01*
X33618Y-56145D01*
X33633Y-56271D01*
X33706Y-56303D01*
X33703Y-56304D01*
X33555Y-56452D01*
X33475Y-56645D01*
X33474Y-56853D01*
X33554Y-57047D01*
X33702Y-57194D01*
X33702Y-57194D01*
X33658Y-57211D01*
X33633Y-57228D01*
X33618Y-57354D01*
X34000Y-57735D01*
X34381Y-57354D01*
X34366Y-57228D01*
X34293Y-57196D01*
X34297Y-57195D01*
X34444Y-57047D01*
X34524Y-56854D01*
X34525Y-56646D01*
X34525Y-57389D01*
X34521Y-57383D01*
X34395Y-57368D01*
X34014Y-57750D01*
X34019Y-57755D01*
X34005Y-57769D01*
X34000Y-57764D01*
X33994Y-57769D01*
X33980Y-57755D01*
X33985Y-57750D01*
X33604Y-57368D01*
X33478Y-57383D01*
X33378Y-57610D01*
X33372Y-57859D01*
X33419Y-57981D01*
X33322Y-57981D01*
X33295Y-57916D01*
X33114Y-57735D01*
X32878Y-57637D01*
X32622Y-57637D01*
X32385Y-57735D01*
X32204Y-57916D01*
X32106Y-58152D01*
X32106Y-58408D01*
X32204Y-58645D01*
X32385Y-58826D01*
X32621Y-58924D01*
X32877Y-58924D01*
X33114Y-58826D01*
X33295Y-58645D01*
X33322Y-58581D01*
X36469Y-58581D01*
X36469Y-58580D01*
X36583Y-58558D01*
X36583Y-58558D01*
X36681Y-58493D01*
X36899Y-58274D01*
X37103Y-58275D01*
X37297Y-58195D01*
X37442Y-58050D01*
X37514Y-58050D01*
X37475Y-58145D01*
X37474Y-58353D01*
X37554Y-58547D01*
X37702Y-58694D01*
X37835Y-58750D01*
X37703Y-58804D01*
X37570Y-58937D01*
X37472Y-58790D01*
X37261Y-58649D01*
X37012Y-58600D01*
X36987Y-58600D01*
X36738Y-58649D01*
X36620Y-58728D01*
X36611Y-58708D01*
X36541Y-58638D01*
X36449Y-58600D01*
X36350Y-58600D01*
X35550Y-58600D01*
X35458Y-58638D01*
X35388Y-58708D01*
X35350Y-58800D01*
X35350Y-58899D01*
X35350Y-59699D01*
X35388Y-59791D01*
X35458Y-59861D01*
X35550Y-59900D01*
X35649Y-59900D01*
X36449Y-59900D01*
X36541Y-59861D01*
X36611Y-59791D01*
X36620Y-59771D01*
X36738Y-59850D01*
X36987Y-59900D01*
X37012Y-59900D01*
X37261Y-59850D01*
X37472Y-59709D01*
X37570Y-59562D01*
X37702Y-59694D01*
X37895Y-59774D01*
X38103Y-59775D01*
X38285Y-59700D01*
X38675Y-59700D01*
X38847Y-59665D01*
X38993Y-59568D01*
X39518Y-59043D01*
X39615Y-58897D01*
X39650Y-58725D01*
X39615Y-58552D01*
X39613Y-58550D01*
X40557Y-58550D01*
X40702Y-58694D01*
X40835Y-58750D01*
X40703Y-58804D01*
X40555Y-58952D01*
X40475Y-59145D01*
X40474Y-59353D01*
X40554Y-59547D01*
X40702Y-59694D01*
X40895Y-59774D01*
X41103Y-59775D01*
X41297Y-59695D01*
X41444Y-59547D01*
X41524Y-59354D01*
X41525Y-59146D01*
X41445Y-58953D01*
X41297Y-58805D01*
X41164Y-58749D01*
X41297Y-58695D01*
X41444Y-58547D01*
X41524Y-58354D01*
X41525Y-58146D01*
X41514Y-58120D01*
X41604Y-58131D01*
X41985Y-57750D01*
X41980Y-57744D01*
X41994Y-57730D01*
X42000Y-57735D01*
X42005Y-57730D01*
X42019Y-57744D01*
X42014Y-57750D01*
X42395Y-58131D01*
X42521Y-58116D01*
X42621Y-57889D01*
X42627Y-57640D01*
X42602Y-57575D01*
X44504Y-57575D01*
X44475Y-57645D01*
X44474Y-57853D01*
X44554Y-58047D01*
X44702Y-58194D01*
X44895Y-58274D01*
X45103Y-58275D01*
X45297Y-58195D01*
X45444Y-58047D01*
X45444Y-58047D01*
X45461Y-58091D01*
X45478Y-58116D01*
X45604Y-58131D01*
X45985Y-57750D01*
X45980Y-57744D01*
X45994Y-57730D01*
X46000Y-57735D01*
X46005Y-57730D01*
X46019Y-57744D01*
X46014Y-57750D01*
X46395Y-58131D01*
X46521Y-58116D01*
X46621Y-57889D01*
X46627Y-57640D01*
X46602Y-57575D01*
X47475Y-57575D01*
X47475Y-57574D01*
X47554Y-57559D01*
X47554Y-57559D01*
G37*
X47554Y-57559D02*
X46563Y-58550D01*
X46381Y-58550D01*
X46381Y-58145D01*
X46000Y-57764D01*
X45618Y-58145D01*
X45633Y-58271D01*
X45860Y-58371D01*
X46109Y-58377D01*
X46341Y-58288D01*
X46366Y-58271D01*
X46381Y-58145D01*
X46381Y-58550D01*
X44900Y-58550D01*
X44727Y-58584D01*
X44701Y-58601D01*
X44137Y-58037D01*
X44039Y-57972D01*
X43925Y-57950D01*
X43401Y-57950D01*
X43341Y-57889D01*
X43184Y-57825D01*
X43015Y-57824D01*
X42859Y-57889D01*
X42739Y-58008D01*
X42675Y-58165D01*
X42675Y-58199D01*
X42665Y-58199D01*
X42509Y-58264D01*
X42389Y-58383D01*
X42381Y-58403D01*
X42381Y-58145D01*
X42000Y-57764D01*
X41618Y-58145D01*
X41633Y-58271D01*
X41860Y-58371D01*
X42109Y-58377D01*
X42341Y-58288D01*
X42366Y-58271D01*
X42381Y-58145D01*
X42381Y-58403D01*
X42325Y-58540D01*
X42324Y-58675D01*
X42250Y-58675D01*
X42158Y-58713D01*
X42088Y-58783D01*
X42050Y-58875D01*
X42050Y-58974D01*
X42050Y-59774D01*
X42088Y-59866D01*
X42158Y-59936D01*
X42250Y-59975D01*
X42349Y-59975D01*
X43149Y-59975D01*
X43241Y-59936D01*
X43311Y-59866D01*
X43320Y-59846D01*
X43438Y-59925D01*
X43687Y-59975D01*
X43712Y-59975D01*
X43961Y-59925D01*
X44172Y-59784D01*
X44217Y-59716D01*
X44662Y-60162D01*
X44662Y-60162D01*
X44719Y-60200D01*
X34137Y-60200D01*
X34162Y-60195D01*
X34353Y-60067D01*
X34481Y-59875D01*
X34526Y-59650D01*
X34481Y-59424D01*
X34353Y-59232D01*
X34162Y-59104D01*
X33936Y-59060D01*
X33913Y-59060D01*
X33687Y-59104D01*
X33496Y-59232D01*
X33425Y-59339D01*
X33353Y-59232D01*
X33162Y-59104D01*
X32936Y-59060D01*
X32913Y-59060D01*
X32687Y-59104D01*
X32496Y-59232D01*
X32425Y-59339D01*
X32353Y-59232D01*
X32162Y-59104D01*
X31936Y-59060D01*
X31913Y-59060D01*
X31687Y-59104D01*
X31640Y-59136D01*
X31640Y-58584D01*
X31640Y-58272D01*
X31552Y-58185D01*
X30960Y-58185D01*
X30960Y-58777D01*
X31047Y-58865D01*
X31220Y-58865D01*
X31359Y-58865D01*
X31488Y-58811D01*
X31586Y-58713D01*
X31640Y-58584D01*
X31640Y-59136D01*
X31586Y-59172D01*
X31561Y-59111D01*
X31463Y-59013D01*
X31334Y-58960D01*
X31022Y-58960D01*
X30935Y-59047D01*
X30935Y-59640D01*
X30942Y-59640D01*
X30942Y-59660D01*
X30935Y-59660D01*
X30935Y-59667D01*
X30915Y-59667D01*
X30915Y-59660D01*
X30907Y-59660D01*
X30907Y-59640D01*
X30915Y-59640D01*
X30915Y-59047D01*
X30827Y-58960D01*
X30515Y-58960D01*
X30386Y-59013D01*
X30300Y-59100D01*
X30300Y-58681D01*
X30313Y-58713D01*
X30411Y-58811D01*
X30540Y-58865D01*
X30679Y-58865D01*
X30852Y-58865D01*
X30940Y-58777D01*
X30940Y-58185D01*
X30932Y-58185D01*
X30932Y-58165D01*
X30940Y-58165D01*
X30940Y-58157D01*
X30960Y-58157D01*
X30960Y-58165D01*
X31552Y-58165D01*
X31640Y-58077D01*
X31640Y-57765D01*
X31586Y-57636D01*
X31488Y-57538D01*
X31427Y-57513D01*
X31495Y-57412D01*
X31540Y-57186D01*
X31540Y-57163D01*
X31495Y-56937D01*
X31367Y-56746D01*
X31260Y-56675D01*
X31367Y-56603D01*
X31495Y-56412D01*
X31504Y-56365D01*
X32000Y-56861D01*
X32000Y-57025D01*
X32034Y-57197D01*
X32131Y-57343D01*
X32277Y-57440D01*
X32450Y-57475D01*
X32622Y-57440D01*
X32768Y-57343D01*
X32865Y-57197D01*
X32900Y-57025D01*
X32900Y-56675D01*
X32865Y-56502D01*
X32768Y-56356D01*
X31531Y-55119D01*
X31495Y-54937D01*
X31367Y-54746D01*
X31175Y-54618D01*
X30950Y-54573D01*
X30724Y-54618D01*
X30532Y-54746D01*
X30404Y-54937D01*
X30360Y-55163D01*
X30360Y-55186D01*
X30404Y-55412D01*
X30532Y-55603D01*
X30639Y-55675D01*
X30532Y-55746D01*
X30404Y-55937D01*
X30360Y-56163D01*
X30360Y-56186D01*
X30404Y-56412D01*
X30532Y-56603D01*
X30639Y-56675D01*
X30532Y-56746D01*
X30404Y-56937D01*
X30360Y-57163D01*
X30360Y-57186D01*
X30404Y-57412D01*
X30472Y-57513D01*
X30411Y-57538D01*
X30313Y-57636D01*
X30300Y-57668D01*
X30300Y-40800D01*
X33946Y-40800D01*
X33804Y-40941D01*
X33706Y-41177D01*
X33706Y-41433D01*
X33804Y-41670D01*
X33985Y-41851D01*
X34221Y-41949D01*
X34477Y-41949D01*
X34714Y-41851D01*
X34895Y-41670D01*
X34993Y-41434D01*
X34993Y-41178D01*
X34895Y-40941D01*
X34754Y-40800D01*
X35421Y-40800D01*
X35279Y-40941D01*
X35181Y-41177D01*
X35181Y-41433D01*
X35279Y-41670D01*
X35460Y-41851D01*
X35696Y-41949D01*
X35952Y-41949D01*
X36189Y-41851D01*
X36370Y-41670D01*
X36468Y-41434D01*
X36468Y-41178D01*
X36370Y-40941D01*
X36229Y-40800D01*
X36871Y-40800D01*
X36729Y-40941D01*
X36631Y-41177D01*
X36631Y-41433D01*
X36729Y-41670D01*
X36910Y-41851D01*
X37146Y-41949D01*
X37402Y-41949D01*
X37639Y-41851D01*
X37820Y-41670D01*
X37918Y-41434D01*
X37918Y-41178D01*
X37820Y-40941D01*
X37679Y-40800D01*
X39051Y-40800D01*
X38965Y-40950D01*
X40000Y-41985D01*
X41034Y-40950D01*
X40948Y-40800D01*
X42045Y-40800D01*
X41979Y-40866D01*
X41881Y-41102D01*
X41881Y-41358D01*
X41979Y-41595D01*
X42160Y-41776D01*
X42396Y-41874D01*
X42652Y-41874D01*
X42889Y-41776D01*
X43070Y-41595D01*
X43168Y-41359D01*
X43168Y-41103D01*
X43070Y-40866D01*
X43004Y-40800D01*
X43620Y-40800D01*
X43529Y-40891D01*
X43431Y-41127D01*
X43431Y-41383D01*
X43529Y-41620D01*
X43710Y-41801D01*
X43946Y-41899D01*
X44202Y-41899D01*
X44439Y-41801D01*
X44620Y-41620D01*
X44718Y-41384D01*
X44718Y-41128D01*
X44620Y-40891D01*
X44529Y-40800D01*
X45270Y-40800D01*
X45154Y-40916D01*
X45056Y-41152D01*
X45056Y-41408D01*
X45154Y-41645D01*
X45209Y-41700D01*
X45050Y-41700D01*
X44935Y-41722D01*
X44837Y-41787D01*
X44525Y-42100D01*
X42325Y-42100D01*
X42210Y-42122D01*
X42112Y-42187D01*
X41540Y-42760D01*
X41225Y-43075D01*
X41089Y-43075D01*
X41049Y-43034D01*
X41268Y-42909D01*
X41520Y-42354D01*
X41540Y-41745D01*
X41325Y-41175D01*
X41268Y-41090D01*
X41049Y-40965D01*
X40014Y-42000D01*
X40019Y-42005D01*
X40005Y-42019D01*
X40000Y-42014D01*
X39994Y-42019D01*
X39985Y-42011D01*
X39980Y-42005D01*
X39985Y-42000D01*
X38950Y-40965D01*
X38731Y-41090D01*
X38479Y-41645D01*
X38459Y-42254D01*
X38674Y-42824D01*
X38731Y-42909D01*
X38950Y-43034D01*
X38910Y-43075D01*
X33419Y-43075D01*
X33417Y-43071D01*
X33310Y-43000D01*
X33417Y-42928D01*
X33545Y-42737D01*
X33590Y-42511D01*
X33590Y-42488D01*
X33545Y-42262D01*
X33417Y-42071D01*
X33310Y-42000D01*
X33417Y-41928D01*
X33545Y-41737D01*
X33590Y-41511D01*
X33590Y-41488D01*
X33545Y-41262D01*
X33417Y-41071D01*
X33225Y-40943D01*
X33000Y-40898D01*
X32774Y-40943D01*
X32582Y-41071D01*
X32577Y-41079D01*
X32551Y-41018D01*
X32481Y-40948D01*
X32389Y-40910D01*
X32290Y-40910D01*
X31610Y-40910D01*
X31518Y-40948D01*
X31448Y-41018D01*
X31410Y-41110D01*
X31410Y-41209D01*
X31410Y-41889D01*
X31448Y-41981D01*
X31518Y-42051D01*
X31578Y-42077D01*
X31454Y-42262D01*
X31410Y-42488D01*
X31410Y-42511D01*
X31454Y-42737D01*
X31582Y-42928D01*
X31689Y-43000D01*
X31582Y-43071D01*
X31454Y-43262D01*
X31410Y-43488D01*
X31410Y-43511D01*
X31454Y-43737D01*
X31582Y-43928D01*
X31689Y-44000D01*
X31582Y-44071D01*
X31454Y-44262D01*
X31410Y-44488D01*
X31410Y-44511D01*
X31454Y-44737D01*
X31582Y-44928D01*
X31689Y-45000D01*
X31582Y-45071D01*
X31454Y-45262D01*
X31410Y-45488D01*
X31410Y-45511D01*
X31454Y-45737D01*
X31582Y-45928D01*
X31689Y-46000D01*
X31582Y-46071D01*
X31454Y-46262D01*
X31410Y-46488D01*
X31410Y-46511D01*
X31454Y-46737D01*
X31582Y-46928D01*
X31689Y-47000D01*
X31582Y-47071D01*
X31454Y-47262D01*
X31410Y-47488D01*
X31410Y-47511D01*
X31454Y-47737D01*
X31582Y-47928D01*
X31689Y-48000D01*
X31582Y-48071D01*
X31454Y-48262D01*
X31410Y-48488D01*
X31410Y-48511D01*
X31454Y-48737D01*
X31582Y-48928D01*
X31730Y-49027D01*
X31725Y-49040D01*
X31724Y-49209D01*
X31789Y-49365D01*
X31908Y-49485D01*
X32065Y-49549D01*
X32234Y-49550D01*
X32390Y-49485D01*
X32451Y-49425D01*
X33420Y-49425D01*
X33420Y-49424D01*
X33534Y-49402D01*
X33534Y-49402D01*
X33632Y-49337D01*
X35444Y-47525D01*
X38950Y-47525D01*
X39887Y-48462D01*
X39985Y-48527D01*
X39985Y-48527D01*
X40100Y-48550D01*
X43082Y-48550D01*
X43056Y-48682D01*
X42863Y-48875D01*
X39175Y-48875D01*
X39002Y-48909D01*
X38856Y-49006D01*
X38388Y-49475D01*
X38086Y-49475D01*
X38245Y-49316D01*
X38397Y-48949D01*
X38398Y-48552D01*
X38246Y-48185D01*
X37966Y-47904D01*
X37599Y-47752D01*
X37202Y-47751D01*
X36835Y-47903D01*
X36554Y-48183D01*
X36402Y-48550D01*
X36401Y-48947D01*
X36553Y-49314D01*
X36713Y-49475D01*
X36700Y-49475D01*
X36527Y-49509D01*
X36381Y-49606D01*
X36284Y-49752D01*
X36250Y-49925D01*
X36279Y-50075D01*
X35541Y-50075D01*
X35551Y-50064D01*
X35649Y-49828D01*
X35649Y-49572D01*
X35551Y-49335D01*
X35370Y-49154D01*
X35134Y-49056D01*
X34878Y-49056D01*
X34641Y-49154D01*
X34460Y-49335D01*
X34362Y-49571D01*
X34362Y-49827D01*
X34433Y-50000D01*
X31850Y-50000D01*
X31677Y-50034D01*
X31649Y-50053D01*
X31649Y-49572D01*
X31551Y-49335D01*
X31370Y-49154D01*
X31134Y-49056D01*
X30878Y-49056D01*
X30641Y-49154D01*
X30460Y-49335D01*
X30362Y-49571D01*
X30362Y-49827D01*
X30460Y-50064D01*
X30641Y-50245D01*
X30877Y-50343D01*
X31133Y-50343D01*
X31370Y-50245D01*
X31551Y-50064D01*
X31649Y-49828D01*
X31649Y-49572D01*
X31649Y-50053D01*
X31531Y-50131D01*
X31434Y-50277D01*
X31400Y-50450D01*
X31434Y-50622D01*
X31531Y-50768D01*
X31677Y-50865D01*
X31850Y-50900D01*
X34433Y-50900D01*
X34362Y-51071D01*
X34362Y-51327D01*
X34454Y-51550D01*
X33550Y-51550D01*
X33377Y-51584D01*
X33231Y-51681D01*
X32613Y-52300D01*
X31649Y-52300D01*
X31649Y-51072D01*
X31551Y-50835D01*
X31370Y-50654D01*
X31134Y-50556D01*
X30878Y-50556D01*
X30641Y-50654D01*
X30460Y-50835D01*
X30362Y-51071D01*
X30362Y-51327D01*
X30460Y-51564D01*
X30641Y-51745D01*
X30877Y-51843D01*
X31133Y-51843D01*
X31370Y-51745D01*
X31551Y-51564D01*
X31649Y-51328D01*
X31649Y-51072D01*
X31649Y-52300D01*
X31491Y-52300D01*
X31395Y-52204D01*
X31159Y-52106D01*
X30903Y-52106D01*
X30666Y-52204D01*
X30485Y-52385D01*
X30387Y-52621D01*
X30387Y-52877D01*
X30485Y-53114D01*
X30666Y-53295D01*
X30902Y-53393D01*
X31158Y-53393D01*
X31395Y-53295D01*
X31491Y-53200D01*
X32300Y-53200D01*
X32300Y-53820D01*
X32204Y-53916D01*
X32106Y-54152D01*
X32106Y-54408D01*
X32204Y-54645D01*
X32385Y-54826D01*
X32621Y-54924D01*
X32877Y-54924D01*
X33114Y-54826D01*
X33295Y-54645D01*
X33393Y-54409D01*
X33393Y-54153D01*
X33295Y-53916D01*
X33200Y-53820D01*
X33200Y-52986D01*
X33736Y-52450D01*
X34458Y-52450D01*
X34387Y-52621D01*
X34387Y-52877D01*
X34485Y-53114D01*
X34666Y-53295D01*
X34902Y-53393D01*
X35158Y-53393D01*
X35395Y-53295D01*
X35576Y-53114D01*
X35674Y-52878D01*
X35674Y-52622D01*
X35603Y-52450D01*
X36378Y-52450D01*
X36237Y-52590D01*
X36154Y-52791D01*
X36154Y-53008D01*
X36237Y-53208D01*
X36390Y-53362D01*
X36591Y-53445D01*
X36808Y-53445D01*
X37008Y-53362D01*
X37162Y-53209D01*
X37245Y-53008D01*
X37245Y-52990D01*
X37541Y-52694D01*
X37583Y-52736D01*
X37675Y-52775D01*
X37774Y-52775D01*
X37774Y-52775D01*
X37703Y-52804D01*
X37555Y-52952D01*
X37475Y-53145D01*
X37474Y-53353D01*
X37554Y-53547D01*
X37702Y-53694D01*
X37714Y-53700D01*
X36500Y-53700D01*
X36327Y-53734D01*
X36181Y-53831D01*
X35681Y-54331D01*
X35584Y-54477D01*
X35550Y-54650D01*
X35584Y-54822D01*
X35681Y-54968D01*
X35827Y-55065D01*
X36000Y-55100D01*
X36172Y-55065D01*
X36318Y-54968D01*
X36474Y-54811D01*
X36474Y-54853D01*
X36554Y-55047D01*
X36702Y-55194D01*
X36835Y-55250D01*
X36703Y-55304D01*
X36557Y-55450D01*
X35874Y-55450D01*
X35624Y-55200D01*
X35625Y-55115D01*
X35560Y-54959D01*
X35441Y-54839D01*
X35284Y-54775D01*
X35115Y-54774D01*
X34959Y-54839D01*
X34839Y-54958D01*
X34775Y-55115D01*
X34774Y-55284D01*
X34839Y-55440D01*
X34958Y-55560D01*
X35115Y-55624D01*
X35200Y-55625D01*
X35537Y-55962D01*
X35537Y-55962D01*
X35635Y-56027D01*
X35750Y-56050D01*
X36557Y-56050D01*
X36702Y-56194D01*
X36835Y-56250D01*
X36703Y-56304D01*
X36555Y-56452D01*
X36475Y-56645D01*
X36474Y-56853D01*
X36514Y-56950D01*
X35205Y-56950D01*
X35084Y-56900D01*
X34915Y-56899D01*
X34759Y-56964D01*
X34639Y-57083D01*
X34627Y-57113D01*
X34627Y-55640D01*
X34538Y-55408D01*
X34525Y-55389D01*
X34525Y-55074D01*
X34525Y-54975D01*
X34525Y-54425D01*
X34486Y-54333D01*
X34416Y-54263D01*
X34324Y-54225D01*
X34225Y-54225D01*
X33675Y-54225D01*
X33583Y-54263D01*
X33513Y-54333D01*
X33475Y-54425D01*
X33475Y-54524D01*
X33475Y-55074D01*
X33513Y-55166D01*
X33583Y-55236D01*
X33630Y-55256D01*
X33618Y-55354D01*
X34000Y-55735D01*
X34381Y-55354D01*
X34369Y-55256D01*
X34416Y-55236D01*
X34486Y-55166D01*
X34525Y-55074D01*
X34525Y-55389D01*
X34521Y-55383D01*
X34395Y-55368D01*
X34014Y-55750D01*
X34395Y-56131D01*
X34521Y-56116D01*
X34621Y-55889D01*
X34627Y-55640D01*
X34627Y-57113D01*
X34575Y-57240D01*
X34574Y-57409D01*
X34639Y-57565D01*
X34758Y-57685D01*
X34915Y-57749D01*
X35084Y-57750D01*
X35240Y-57685D01*
X35360Y-57566D01*
X35366Y-57550D01*
X36514Y-57550D01*
X36475Y-57645D01*
X36474Y-57850D01*
X36344Y-57981D01*
X34581Y-57981D01*
X34621Y-57889D01*
X34627Y-57640D01*
X34538Y-57408D01*
X34525Y-57389D01*
X34525Y-56646D01*
X34445Y-56453D01*
X34297Y-56305D01*
X34297Y-56305D01*
X34341Y-56288D01*
X34366Y-56271D01*
X34381Y-56145D01*
X34000Y-55764D01*
X33985Y-55778D01*
X33985Y-55750D01*
X33604Y-55368D01*
X33478Y-55383D01*
X33378Y-55610D01*
X33372Y-55859D01*
X33461Y-56091D01*
X33478Y-56116D01*
X33604Y-56131D01*
X33985Y-55750D01*
X33985Y-55778D01*
X33618Y-56145D01*
X33633Y-56271D01*
X33706Y-56303D01*
X33703Y-56304D01*
X33555Y-56452D01*
X33475Y-56645D01*
X33474Y-56853D01*
X33554Y-57047D01*
X33702Y-57194D01*
X33702Y-57194D01*
X33658Y-57211D01*
X33633Y-57228D01*
X33618Y-57354D01*
X34000Y-57735D01*
X34381Y-57354D01*
X34366Y-57228D01*
X34293Y-57196D01*
X34297Y-57195D01*
X34444Y-57047D01*
X34524Y-56854D01*
X34525Y-56646D01*
X34525Y-57389D01*
X34521Y-57383D01*
X34395Y-57368D01*
X34014Y-57750D01*
X34019Y-57755D01*
X34005Y-57769D01*
X34000Y-57764D01*
X33994Y-57769D01*
X33980Y-57755D01*
X33985Y-57750D01*
X33604Y-57368D01*
X33478Y-57383D01*
X33378Y-57610D01*
X33372Y-57859D01*
X33419Y-57981D01*
X33322Y-57981D01*
X33295Y-57916D01*
X33114Y-57735D01*
X32878Y-57637D01*
X32622Y-57637D01*
X32385Y-57735D01*
X32204Y-57916D01*
X32106Y-58152D01*
X32106Y-58408D01*
X32204Y-58645D01*
X32385Y-58826D01*
X32621Y-58924D01*
X32877Y-58924D01*
X33114Y-58826D01*
X33295Y-58645D01*
X33322Y-58581D01*
X36469Y-58581D01*
X36469Y-58580D01*
X36583Y-58558D01*
X36583Y-58558D01*
X36681Y-58493D01*
X36899Y-58274D01*
X37103Y-58275D01*
X37297Y-58195D01*
X37442Y-58050D01*
X37514Y-58050D01*
X37475Y-58145D01*
X37474Y-58353D01*
X37554Y-58547D01*
X37702Y-58694D01*
X37835Y-58750D01*
X37703Y-58804D01*
X37570Y-58937D01*
X37472Y-58790D01*
X37261Y-58649D01*
X37012Y-58600D01*
X36987Y-58600D01*
X36738Y-58649D01*
X36620Y-58728D01*
X36611Y-58708D01*
X36541Y-58638D01*
X36449Y-58600D01*
X36350Y-58600D01*
X35550Y-58600D01*
X35458Y-58638D01*
X35388Y-58708D01*
X35350Y-58800D01*
X35350Y-58899D01*
X35350Y-59699D01*
X35388Y-59791D01*
X35458Y-59861D01*
X35550Y-59900D01*
X35649Y-59900D01*
X36449Y-59900D01*
X36541Y-59861D01*
X36611Y-59791D01*
X36620Y-59771D01*
X36738Y-59850D01*
X36987Y-59900D01*
X37012Y-59900D01*
X37261Y-59850D01*
X37472Y-59709D01*
X37570Y-59562D01*
X37702Y-59694D01*
X37895Y-59774D01*
X38103Y-59775D01*
X38285Y-59700D01*
X38675Y-59700D01*
X38847Y-59665D01*
X38993Y-59568D01*
X39518Y-59043D01*
X39615Y-58897D01*
X39650Y-58725D01*
X39615Y-58552D01*
X39613Y-58550D01*
X40557Y-58550D01*
X40702Y-58694D01*
X40835Y-58750D01*
X40703Y-58804D01*
X40555Y-58952D01*
X40475Y-59145D01*
X40474Y-59353D01*
X40554Y-59547D01*
X40702Y-59694D01*
X40895Y-59774D01*
X41103Y-59775D01*
X41297Y-59695D01*
X41444Y-59547D01*
X41524Y-59354D01*
X41525Y-59146D01*
X41445Y-58953D01*
X41297Y-58805D01*
X41164Y-58749D01*
X41297Y-58695D01*
X41444Y-58547D01*
X41524Y-58354D01*
X41525Y-58146D01*
X41514Y-58120D01*
X41604Y-58131D01*
X41985Y-57750D01*
X41980Y-57744D01*
X41994Y-57730D01*
X42000Y-57735D01*
X42005Y-57730D01*
X42019Y-57744D01*
X42014Y-57750D01*
X42395Y-58131D01*
X42521Y-58116D01*
X42621Y-57889D01*
X42627Y-57640D01*
X42602Y-57575D01*
X44504Y-57575D01*
X44475Y-57645D01*
X44474Y-57853D01*
X44554Y-58047D01*
X44702Y-58194D01*
X44895Y-58274D01*
X45103Y-58275D01*
X45297Y-58195D01*
X45444Y-58047D01*
X45444Y-58047D01*
X45461Y-58091D01*
X45478Y-58116D01*
X45604Y-58131D01*
X45985Y-57750D01*
X45980Y-57744D01*
X45994Y-57730D01*
X46000Y-57735D01*
X46005Y-57730D01*
X46019Y-57744D01*
X46014Y-57750D01*
X46395Y-58131D01*
X46521Y-58116D01*
X46621Y-57889D01*
X46627Y-57640D01*
X46602Y-57575D01*
X47475Y-57575D01*
X47475Y-57574D01*
X47554Y-57559D01*
G36*
X49250Y-44175D02*
X48862Y-43787D01*
X48764Y-43722D01*
X48650Y-43700D01*
X48648Y-43700D01*
X48679Y-43617D01*
X48602Y-43510D01*
X48010Y-43510D01*
X48010Y-43517D01*
X47990Y-43517D01*
X47990Y-43510D01*
X47602Y-43510D01*
X47397Y-43510D01*
X47010Y-43510D01*
X47010Y-43517D01*
X46990Y-43517D01*
X46990Y-43510D01*
X46397Y-43510D01*
X46320Y-43617D01*
X46351Y-43700D01*
X45750Y-43700D01*
X45635Y-43722D01*
X45596Y-43748D01*
X45537Y-43787D01*
X45325Y-44000D01*
X44499Y-44000D01*
X44500Y-43840D01*
X44435Y-43684D01*
X44400Y-43650D01*
X45025Y-43650D01*
X45025Y-43649D01*
X45139Y-43627D01*
X45139Y-43627D01*
X45237Y-43562D01*
X45499Y-43300D01*
X46351Y-43300D01*
X46320Y-43382D01*
X46397Y-43490D01*
X46990Y-43490D01*
X46990Y-43482D01*
X47010Y-43482D01*
X47010Y-43490D01*
X47397Y-43490D01*
X47602Y-43490D01*
X47990Y-43490D01*
X47990Y-43482D01*
X48010Y-43482D01*
X48010Y-43490D01*
X48602Y-43490D01*
X48679Y-43382D01*
X48648Y-43300D01*
X48716Y-43300D01*
X48764Y-43415D01*
X48883Y-43535D01*
X49040Y-43599D01*
X49209Y-43600D01*
X49250Y-43583D01*
X49250Y-44175D01*
X49250Y-44175D01*
G37*
X49250Y-44175D02*
X48862Y-43787D01*
X48764Y-43722D01*
X48650Y-43700D01*
X48648Y-43700D01*
X48679Y-43617D01*
X48602Y-43510D01*
X48010Y-43510D01*
X48010Y-43517D01*
X47990Y-43517D01*
X47990Y-43510D01*
X47602Y-43510D01*
X47397Y-43510D01*
X47010Y-43510D01*
X47010Y-43517D01*
X46990Y-43517D01*
X46990Y-43510D01*
X46397Y-43510D01*
X46320Y-43617D01*
X46351Y-43700D01*
X45750Y-43700D01*
X45635Y-43722D01*
X45596Y-43748D01*
X45537Y-43787D01*
X45325Y-44000D01*
X44499Y-44000D01*
X44500Y-43840D01*
X44435Y-43684D01*
X44400Y-43650D01*
X45025Y-43650D01*
X45025Y-43649D01*
X45139Y-43627D01*
X45139Y-43627D01*
X45237Y-43562D01*
X45499Y-43300D01*
X46351Y-43300D01*
X46320Y-43382D01*
X46397Y-43490D01*
X46990Y-43490D01*
X46990Y-43482D01*
X47010Y-43482D01*
X47010Y-43490D01*
X47397Y-43490D01*
X47602Y-43490D01*
X47990Y-43490D01*
X47990Y-43482D01*
X48010Y-43482D01*
X48010Y-43490D01*
X48602Y-43490D01*
X48679Y-43382D01*
X48648Y-43300D01*
X48716Y-43300D01*
X48764Y-43415D01*
X48883Y-43535D01*
X49040Y-43599D01*
X49209Y-43600D01*
X49250Y-43583D01*
X49250Y-44175D01*
G36*
X49700Y-55357D02*
X49687Y-55337D01*
X49437Y-55087D01*
X49417Y-55074D01*
X49444Y-55047D01*
X49524Y-54854D01*
X49525Y-54646D01*
X49445Y-54453D01*
X49297Y-54305D01*
X49104Y-54225D01*
X48896Y-54224D01*
X48703Y-54304D01*
X48555Y-54452D01*
X48475Y-54645D01*
X48474Y-54853D01*
X48554Y-55047D01*
X48584Y-55076D01*
X48567Y-55087D01*
X47695Y-55960D01*
X46590Y-55960D01*
X46621Y-55889D01*
X46627Y-55640D01*
X46538Y-55408D01*
X46521Y-55383D01*
X46395Y-55368D01*
X46014Y-55750D01*
X46019Y-55755D01*
X46005Y-55769D01*
X46000Y-55764D01*
X45994Y-55769D01*
X45980Y-55755D01*
X45985Y-55750D01*
X45980Y-55744D01*
X45994Y-55730D01*
X46000Y-55735D01*
X46381Y-55354D01*
X46369Y-55256D01*
X46416Y-55236D01*
X46481Y-55171D01*
X46490Y-55174D01*
X46659Y-55175D01*
X46815Y-55110D01*
X46935Y-54991D01*
X46999Y-54834D01*
X47000Y-54749D01*
X47462Y-54287D01*
X47527Y-54189D01*
X47543Y-54105D01*
X47614Y-54076D01*
X47795Y-53895D01*
X47876Y-53700D01*
X47887Y-53712D01*
X47887Y-53712D01*
X47985Y-53777D01*
X48100Y-53800D01*
X48178Y-53800D01*
X48238Y-53860D01*
X48395Y-53924D01*
X48564Y-53925D01*
X48720Y-53860D01*
X48840Y-53741D01*
X48904Y-53584D01*
X48905Y-53440D01*
X49020Y-53440D01*
X49159Y-53440D01*
X49288Y-53386D01*
X49386Y-53288D01*
X49440Y-53159D01*
X49440Y-52847D01*
X49352Y-52760D01*
X48760Y-52760D01*
X48760Y-52767D01*
X48740Y-52767D01*
X48740Y-52760D01*
X48147Y-52760D01*
X48060Y-52847D01*
X48060Y-53035D01*
X47772Y-52747D01*
X47762Y-52737D01*
X47664Y-52672D01*
X47550Y-52650D01*
X46950Y-52650D01*
X46835Y-52672D01*
X46737Y-52737D01*
X46477Y-52998D01*
X46333Y-52854D01*
X46097Y-52756D01*
X45841Y-52756D01*
X45604Y-52854D01*
X45423Y-53035D01*
X45325Y-53271D01*
X45325Y-53527D01*
X45423Y-53764D01*
X45604Y-53945D01*
X45804Y-54028D01*
X45800Y-54040D01*
X45799Y-54209D01*
X45806Y-54225D01*
X45675Y-54225D01*
X45583Y-54263D01*
X45513Y-54333D01*
X45475Y-54425D01*
X45475Y-54524D01*
X45475Y-54524D01*
X45445Y-54453D01*
X45297Y-54305D01*
X45104Y-54225D01*
X44896Y-54224D01*
X44703Y-54304D01*
X44555Y-54452D01*
X44475Y-54645D01*
X44474Y-54853D01*
X44535Y-55000D01*
X42525Y-55000D01*
X42525Y-54975D01*
X42525Y-54575D01*
X43650Y-54575D01*
X43822Y-54540D01*
X43968Y-54443D01*
X44065Y-54297D01*
X44100Y-54125D01*
X44065Y-53952D01*
X43968Y-53806D01*
X43822Y-53709D01*
X43650Y-53675D01*
X42551Y-53675D01*
X42612Y-53528D01*
X42612Y-53272D01*
X42561Y-53150D01*
X43800Y-53150D01*
X43972Y-53115D01*
X44118Y-53018D01*
X44546Y-52590D01*
X44616Y-52590D01*
X44833Y-52500D01*
X44999Y-52334D01*
X45089Y-52117D01*
X45090Y-51883D01*
X45000Y-51666D01*
X44834Y-51500D01*
X44617Y-51410D01*
X44383Y-51409D01*
X44166Y-51499D01*
X44000Y-51665D01*
X43999Y-51665D01*
X43834Y-51500D01*
X43701Y-51444D01*
X43238Y-50981D01*
X43092Y-50884D01*
X42920Y-50850D01*
X39600Y-50850D01*
X39540Y-50861D01*
X39568Y-50843D01*
X39986Y-50425D01*
X42763Y-50425D01*
X43056Y-50718D01*
X43202Y-50815D01*
X43375Y-50850D01*
X45106Y-50850D01*
X45106Y-51096D01*
X45204Y-51333D01*
X45385Y-51514D01*
X45621Y-51612D01*
X45877Y-51612D01*
X46114Y-51514D01*
X46295Y-51333D01*
X46393Y-51097D01*
X46393Y-50841D01*
X46314Y-50650D01*
X46488Y-50650D01*
X46756Y-50918D01*
X46902Y-51015D01*
X47075Y-51050D01*
X47900Y-51050D01*
X48072Y-51015D01*
X48194Y-50934D01*
X48204Y-50987D01*
X48332Y-51178D01*
X48439Y-51250D01*
X48332Y-51321D01*
X48204Y-51512D01*
X48160Y-51738D01*
X48160Y-51761D01*
X48204Y-51987D01*
X48272Y-52088D01*
X48211Y-52113D01*
X48113Y-52211D01*
X48060Y-52340D01*
X48060Y-52652D01*
X48147Y-52740D01*
X48740Y-52740D01*
X48740Y-52732D01*
X48760Y-52732D01*
X48760Y-52740D01*
X49352Y-52740D01*
X49440Y-52652D01*
X49440Y-52340D01*
X49386Y-52211D01*
X49288Y-52113D01*
X49227Y-52088D01*
X49295Y-51987D01*
X49340Y-51761D01*
X49340Y-51738D01*
X49314Y-51609D01*
X49700Y-51224D01*
X49700Y-55357D01*
X49700Y-55357D01*
G37*
X49700Y-55357D02*
X49687Y-55337D01*
X49437Y-55087D01*
X49417Y-55074D01*
X49444Y-55047D01*
X49524Y-54854D01*
X49525Y-54646D01*
X49445Y-54453D01*
X49297Y-54305D01*
X49104Y-54225D01*
X48896Y-54224D01*
X48703Y-54304D01*
X48555Y-54452D01*
X48475Y-54645D01*
X48474Y-54853D01*
X48554Y-55047D01*
X48584Y-55076D01*
X48567Y-55087D01*
X47695Y-55960D01*
X46590Y-55960D01*
X46621Y-55889D01*
X46627Y-55640D01*
X46538Y-55408D01*
X46521Y-55383D01*
X46395Y-55368D01*
X46014Y-55750D01*
X46019Y-55755D01*
X46005Y-55769D01*
X46000Y-55764D01*
X45994Y-55769D01*
X45980Y-55755D01*
X45985Y-55750D01*
X45980Y-55744D01*
X45994Y-55730D01*
X46000Y-55735D01*
X46381Y-55354D01*
X46369Y-55256D01*
X46416Y-55236D01*
X46481Y-55171D01*
X46490Y-55174D01*
X46659Y-55175D01*
X46815Y-55110D01*
X46935Y-54991D01*
X46999Y-54834D01*
X47000Y-54749D01*
X47462Y-54287D01*
X47527Y-54189D01*
X47543Y-54105D01*
X47614Y-54076D01*
X47795Y-53895D01*
X47876Y-53700D01*
X47887Y-53712D01*
X47887Y-53712D01*
X47985Y-53777D01*
X48100Y-53800D01*
X48178Y-53800D01*
X48238Y-53860D01*
X48395Y-53924D01*
X48564Y-53925D01*
X48720Y-53860D01*
X48840Y-53741D01*
X48904Y-53584D01*
X48905Y-53440D01*
X49020Y-53440D01*
X49159Y-53440D01*
X49288Y-53386D01*
X49386Y-53288D01*
X49440Y-53159D01*
X49440Y-52847D01*
X49352Y-52760D01*
X48760Y-52760D01*
X48760Y-52767D01*
X48740Y-52767D01*
X48740Y-52760D01*
X48147Y-52760D01*
X48060Y-52847D01*
X48060Y-53035D01*
X47772Y-52747D01*
X47762Y-52737D01*
X47664Y-52672D01*
X47550Y-52650D01*
X46950Y-52650D01*
X46835Y-52672D01*
X46737Y-52737D01*
X46477Y-52998D01*
X46333Y-52854D01*
X46097Y-52756D01*
X45841Y-52756D01*
X45604Y-52854D01*
X45423Y-53035D01*
X45325Y-53271D01*
X45325Y-53527D01*
X45423Y-53764D01*
X45604Y-53945D01*
X45804Y-54028D01*
X45800Y-54040D01*
X45799Y-54209D01*
X45806Y-54225D01*
X45675Y-54225D01*
X45583Y-54263D01*
X45513Y-54333D01*
X45475Y-54425D01*
X45475Y-54524D01*
X45475Y-54524D01*
X45445Y-54453D01*
X45297Y-54305D01*
X45104Y-54225D01*
X44896Y-54224D01*
X44703Y-54304D01*
X44555Y-54452D01*
X44475Y-54645D01*
X44474Y-54853D01*
X44535Y-55000D01*
X42525Y-55000D01*
X42525Y-54975D01*
X42525Y-54575D01*
X43650Y-54575D01*
X43822Y-54540D01*
X43968Y-54443D01*
X44065Y-54297D01*
X44100Y-54125D01*
X44065Y-53952D01*
X43968Y-53806D01*
X43822Y-53709D01*
X43650Y-53675D01*
X42551Y-53675D01*
X42612Y-53528D01*
X42612Y-53272D01*
X42561Y-53150D01*
X43800Y-53150D01*
X43972Y-53115D01*
X44118Y-53018D01*
X44546Y-52590D01*
X44616Y-52590D01*
X44833Y-52500D01*
X44999Y-52334D01*
X45089Y-52117D01*
X45090Y-51883D01*
X45000Y-51666D01*
X44834Y-51500D01*
X44617Y-51410D01*
X44383Y-51409D01*
X44166Y-51499D01*
X44000Y-51665D01*
X43999Y-51665D01*
X43834Y-51500D01*
X43701Y-51444D01*
X43238Y-50981D01*
X43092Y-50884D01*
X42920Y-50850D01*
X39600Y-50850D01*
X39540Y-50861D01*
X39568Y-50843D01*
X39986Y-50425D01*
X42763Y-50425D01*
X43056Y-50718D01*
X43202Y-50815D01*
X43375Y-50850D01*
X45106Y-50850D01*
X45106Y-51096D01*
X45204Y-51333D01*
X45385Y-51514D01*
X45621Y-51612D01*
X45877Y-51612D01*
X46114Y-51514D01*
X46295Y-51333D01*
X46393Y-51097D01*
X46393Y-50841D01*
X46314Y-50650D01*
X46488Y-50650D01*
X46756Y-50918D01*
X46902Y-51015D01*
X47075Y-51050D01*
X47900Y-51050D01*
X48072Y-51015D01*
X48194Y-50934D01*
X48204Y-50987D01*
X48332Y-51178D01*
X48439Y-51250D01*
X48332Y-51321D01*
X48204Y-51512D01*
X48160Y-51738D01*
X48160Y-51761D01*
X48204Y-51987D01*
X48272Y-52088D01*
X48211Y-52113D01*
X48113Y-52211D01*
X48060Y-52340D01*
X48060Y-52652D01*
X48147Y-52740D01*
X48740Y-52740D01*
X48740Y-52732D01*
X48760Y-52732D01*
X48760Y-52740D01*
X49352Y-52740D01*
X49440Y-52652D01*
X49440Y-52340D01*
X49386Y-52211D01*
X49288Y-52113D01*
X49227Y-52088D01*
X49295Y-51987D01*
X49340Y-51761D01*
X49340Y-51738D01*
X49314Y-51609D01*
X49700Y-51224D01*
X49700Y-55357D01*
M02*
