%FSLAX34Y34*%
G04 Gerber Fmt 3.4, Leading zero omitted, Abs format*
G04 (created by PCBNEW (2014-jan-25)-product) date Wed 02 Jul 2014 11:59:02 PM PDT*
%MOIN*%
G01*
G70*
G90*
G04 APERTURE LIST*
%ADD10C,0.003937*%
%ADD11C,0.008000*%
%ADD12C,0.010000*%
%ADD13C,0.015000*%
%ADD14C,0.012000*%
G04 APERTURE END LIST*
G54D10*
G54D11*
X33794Y-48451D02*
X33794Y-47951D01*
X33960Y-48308D01*
X34127Y-47951D01*
X34127Y-48451D01*
X34365Y-48451D02*
X34365Y-47951D01*
X34555Y-47951D01*
X34603Y-47975D01*
X34627Y-47998D01*
X34651Y-48046D01*
X34651Y-48117D01*
X34627Y-48165D01*
X34603Y-48189D01*
X34555Y-48213D01*
X34365Y-48213D01*
X34817Y-47951D02*
X34936Y-48451D01*
X35032Y-48094D01*
X35127Y-48451D01*
X35246Y-47951D01*
X35722Y-48451D02*
X35555Y-48213D01*
X35436Y-48451D02*
X35436Y-47951D01*
X35627Y-47951D01*
X35675Y-47975D01*
X35698Y-47998D01*
X35722Y-48046D01*
X35722Y-48117D01*
X35698Y-48165D01*
X35675Y-48189D01*
X35627Y-48213D01*
X35436Y-48213D01*
X41738Y-51380D02*
X41738Y-50980D01*
X41871Y-51266D01*
X42004Y-50980D01*
X42004Y-51380D01*
X42195Y-51380D02*
X42195Y-50980D01*
X42347Y-50980D01*
X42385Y-51000D01*
X42404Y-51019D01*
X42423Y-51057D01*
X42423Y-51114D01*
X42404Y-51152D01*
X42385Y-51171D01*
X42347Y-51190D01*
X42195Y-51190D01*
X42557Y-50980D02*
X42652Y-51380D01*
X42728Y-51095D01*
X42804Y-51380D01*
X42900Y-50980D01*
X43280Y-51380D02*
X43147Y-51190D01*
X43052Y-51380D02*
X43052Y-50980D01*
X43204Y-50980D01*
X43242Y-51000D01*
X43261Y-51019D01*
X43280Y-51057D01*
X43280Y-51114D01*
X43261Y-51152D01*
X43242Y-51171D01*
X43204Y-51190D01*
X43052Y-51190D01*
X44123Y-50930D02*
X43933Y-50930D01*
X43914Y-51121D01*
X43933Y-51102D01*
X43971Y-51083D01*
X44066Y-51083D01*
X44104Y-51102D01*
X44123Y-51121D01*
X44142Y-51159D01*
X44142Y-51254D01*
X44123Y-51292D01*
X44104Y-51311D01*
X44066Y-51330D01*
X43971Y-51330D01*
X43933Y-51311D01*
X43914Y-51292D01*
X44257Y-50930D02*
X44390Y-51330D01*
X44523Y-50930D01*
X39315Y-47400D02*
X39315Y-47000D01*
X39448Y-47286D01*
X39582Y-47000D01*
X39582Y-47400D01*
X39772Y-47400D02*
X39772Y-47134D01*
X39772Y-47000D02*
X39753Y-47020D01*
X39772Y-47039D01*
X39791Y-47020D01*
X39772Y-47000D01*
X39772Y-47039D01*
X39963Y-47134D02*
X39963Y-47400D01*
X39963Y-47172D02*
X39982Y-47153D01*
X40020Y-47134D01*
X40077Y-47134D01*
X40115Y-47153D01*
X40134Y-47191D01*
X40134Y-47400D01*
X40325Y-47400D02*
X40325Y-47134D01*
X40325Y-47000D02*
X40305Y-47020D01*
X40325Y-47039D01*
X40344Y-47020D01*
X40325Y-47000D01*
X40325Y-47039D01*
X40953Y-47191D02*
X41010Y-47210D01*
X41029Y-47229D01*
X41048Y-47267D01*
X41048Y-47324D01*
X41029Y-47362D01*
X41010Y-47381D01*
X40972Y-47400D01*
X40820Y-47400D01*
X40820Y-47000D01*
X40953Y-47000D01*
X40991Y-47020D01*
X41010Y-47039D01*
X41029Y-47077D01*
X41029Y-47115D01*
X41010Y-47153D01*
X40991Y-47172D01*
X40953Y-47191D01*
X40820Y-47191D01*
X41220Y-47400D02*
X41220Y-47134D01*
X41220Y-47210D02*
X41239Y-47172D01*
X41258Y-47153D01*
X41296Y-47134D01*
X41334Y-47134D01*
X41467Y-47400D02*
X41467Y-47134D01*
X41467Y-47000D02*
X41448Y-47020D01*
X41467Y-47039D01*
X41486Y-47020D01*
X41467Y-47000D01*
X41467Y-47039D01*
X41829Y-47400D02*
X41829Y-47000D01*
X41829Y-47381D02*
X41791Y-47400D01*
X41715Y-47400D01*
X41677Y-47381D01*
X41658Y-47362D01*
X41639Y-47324D01*
X41639Y-47210D01*
X41658Y-47172D01*
X41677Y-47153D01*
X41715Y-47134D01*
X41791Y-47134D01*
X41829Y-47153D01*
X42191Y-47134D02*
X42191Y-47458D01*
X42172Y-47496D01*
X42153Y-47515D01*
X42115Y-47534D01*
X42058Y-47534D01*
X42020Y-47515D01*
X42191Y-47381D02*
X42153Y-47400D01*
X42077Y-47400D01*
X42039Y-47381D01*
X42020Y-47362D01*
X42001Y-47324D01*
X42001Y-47210D01*
X42020Y-47172D01*
X42039Y-47153D01*
X42077Y-47134D01*
X42153Y-47134D01*
X42191Y-47153D01*
X42534Y-47381D02*
X42496Y-47400D01*
X42420Y-47400D01*
X42382Y-47381D01*
X42363Y-47343D01*
X42363Y-47191D01*
X42382Y-47153D01*
X42420Y-47134D01*
X42496Y-47134D01*
X42534Y-47153D01*
X42553Y-47191D01*
X42553Y-47229D01*
X42363Y-47267D01*
X39667Y-47831D02*
X39801Y-47831D01*
X39858Y-48040D02*
X39667Y-48040D01*
X39667Y-47640D01*
X39858Y-47640D01*
X40029Y-47774D02*
X40029Y-48040D01*
X40029Y-47812D02*
X40048Y-47793D01*
X40086Y-47774D01*
X40144Y-47774D01*
X40182Y-47793D01*
X40201Y-47831D01*
X40201Y-48040D01*
X40563Y-48021D02*
X40525Y-48040D01*
X40448Y-48040D01*
X40410Y-48021D01*
X40391Y-48002D01*
X40372Y-47964D01*
X40372Y-47850D01*
X40391Y-47812D01*
X40410Y-47793D01*
X40448Y-47774D01*
X40525Y-47774D01*
X40563Y-47793D01*
X40791Y-48040D02*
X40753Y-48021D01*
X40734Y-48002D01*
X40715Y-47964D01*
X40715Y-47850D01*
X40734Y-47812D01*
X40753Y-47793D01*
X40791Y-47774D01*
X40848Y-47774D01*
X40886Y-47793D01*
X40905Y-47812D01*
X40925Y-47850D01*
X40925Y-47964D01*
X40905Y-48002D01*
X40886Y-48021D01*
X40848Y-48040D01*
X40791Y-48040D01*
X41267Y-48040D02*
X41267Y-47640D01*
X41267Y-48021D02*
X41229Y-48040D01*
X41153Y-48040D01*
X41115Y-48021D01*
X41096Y-48002D01*
X41077Y-47964D01*
X41077Y-47850D01*
X41096Y-47812D01*
X41115Y-47793D01*
X41153Y-47774D01*
X41229Y-47774D01*
X41267Y-47793D01*
X41610Y-48021D02*
X41572Y-48040D01*
X41496Y-48040D01*
X41458Y-48021D01*
X41439Y-47983D01*
X41439Y-47831D01*
X41458Y-47793D01*
X41496Y-47774D01*
X41572Y-47774D01*
X41610Y-47793D01*
X41629Y-47831D01*
X41629Y-47869D01*
X41439Y-47907D01*
X41801Y-48040D02*
X41801Y-47774D01*
X41801Y-47850D02*
X41820Y-47812D01*
X41839Y-47793D01*
X41877Y-47774D01*
X41915Y-47774D01*
X42029Y-48021D02*
X42067Y-48040D01*
X42144Y-48040D01*
X42182Y-48021D01*
X42201Y-47983D01*
X42201Y-47964D01*
X42182Y-47926D01*
X42144Y-47907D01*
X42086Y-47907D01*
X42048Y-47888D01*
X42029Y-47850D01*
X42029Y-47831D01*
X42048Y-47793D01*
X42086Y-47774D01*
X42144Y-47774D01*
X42182Y-47793D01*
X40144Y-48661D02*
X40201Y-48680D01*
X40296Y-48680D01*
X40334Y-48661D01*
X40353Y-48642D01*
X40372Y-48604D01*
X40372Y-48566D01*
X40353Y-48528D01*
X40334Y-48509D01*
X40296Y-48490D01*
X40220Y-48471D01*
X40182Y-48452D01*
X40163Y-48433D01*
X40144Y-48395D01*
X40144Y-48357D01*
X40163Y-48319D01*
X40182Y-48300D01*
X40220Y-48280D01*
X40315Y-48280D01*
X40372Y-48300D01*
X40601Y-48680D02*
X40563Y-48661D01*
X40544Y-48642D01*
X40525Y-48604D01*
X40525Y-48490D01*
X40544Y-48452D01*
X40563Y-48433D01*
X40601Y-48414D01*
X40658Y-48414D01*
X40696Y-48433D01*
X40715Y-48452D01*
X40734Y-48490D01*
X40734Y-48604D01*
X40715Y-48642D01*
X40696Y-48661D01*
X40658Y-48680D01*
X40601Y-48680D01*
X40905Y-48414D02*
X40905Y-48680D01*
X40905Y-48452D02*
X40925Y-48433D01*
X40963Y-48414D01*
X41020Y-48414D01*
X41058Y-48433D01*
X41077Y-48471D01*
X41077Y-48680D01*
X41439Y-48680D02*
X41439Y-48471D01*
X41420Y-48433D01*
X41382Y-48414D01*
X41305Y-48414D01*
X41267Y-48433D01*
X41439Y-48661D02*
X41401Y-48680D01*
X41305Y-48680D01*
X41267Y-48661D01*
X41248Y-48623D01*
X41248Y-48585D01*
X41267Y-48547D01*
X41305Y-48528D01*
X41401Y-48528D01*
X41439Y-48509D01*
X41629Y-48680D02*
X41629Y-48414D01*
X41629Y-48490D02*
X41648Y-48452D01*
X41667Y-48433D01*
X41705Y-48414D01*
X41744Y-48414D01*
X40305Y-49320D02*
X40172Y-49130D01*
X40077Y-49320D02*
X40077Y-48920D01*
X40229Y-48920D01*
X40267Y-48940D01*
X40286Y-48959D01*
X40305Y-48997D01*
X40305Y-49054D01*
X40286Y-49092D01*
X40267Y-49111D01*
X40229Y-49130D01*
X40077Y-49130D01*
X40629Y-49301D02*
X40591Y-49320D01*
X40515Y-49320D01*
X40477Y-49301D01*
X40458Y-49263D01*
X40458Y-49111D01*
X40477Y-49073D01*
X40515Y-49054D01*
X40591Y-49054D01*
X40629Y-49073D01*
X40648Y-49111D01*
X40648Y-49149D01*
X40458Y-49187D01*
X40782Y-49054D02*
X40877Y-49320D01*
X40972Y-49054D01*
X41125Y-49282D02*
X41144Y-49301D01*
X41125Y-49320D01*
X41105Y-49301D01*
X41125Y-49282D01*
X41125Y-49320D01*
X41601Y-49206D02*
X41791Y-49206D01*
X41563Y-49320D02*
X41696Y-48920D01*
X41829Y-49320D01*
X39610Y-49599D02*
X39629Y-49580D01*
X39667Y-49560D01*
X39763Y-49560D01*
X39801Y-49580D01*
X39820Y-49599D01*
X39839Y-49637D01*
X39839Y-49675D01*
X39820Y-49732D01*
X39591Y-49960D01*
X39839Y-49960D01*
X40125Y-49560D02*
X40125Y-49846D01*
X40105Y-49903D01*
X40067Y-49941D01*
X40010Y-49960D01*
X39972Y-49960D01*
X40486Y-49694D02*
X40486Y-49960D01*
X40315Y-49694D02*
X40315Y-49903D01*
X40334Y-49941D01*
X40372Y-49960D01*
X40429Y-49960D01*
X40467Y-49941D01*
X40486Y-49922D01*
X40734Y-49960D02*
X40696Y-49941D01*
X40677Y-49903D01*
X40677Y-49560D01*
X40867Y-49599D02*
X40886Y-49580D01*
X40925Y-49560D01*
X41020Y-49560D01*
X41058Y-49580D01*
X41077Y-49599D01*
X41096Y-49637D01*
X41096Y-49675D01*
X41077Y-49732D01*
X40848Y-49960D01*
X41096Y-49960D01*
X41344Y-49560D02*
X41382Y-49560D01*
X41420Y-49580D01*
X41439Y-49599D01*
X41458Y-49637D01*
X41477Y-49713D01*
X41477Y-49808D01*
X41458Y-49884D01*
X41439Y-49922D01*
X41420Y-49941D01*
X41382Y-49960D01*
X41344Y-49960D01*
X41305Y-49941D01*
X41286Y-49922D01*
X41267Y-49884D01*
X41248Y-49808D01*
X41248Y-49713D01*
X41267Y-49637D01*
X41286Y-49599D01*
X41305Y-49580D01*
X41344Y-49560D01*
X41858Y-49960D02*
X41629Y-49960D01*
X41744Y-49960D02*
X41744Y-49560D01*
X41705Y-49618D01*
X41667Y-49656D01*
X41629Y-49675D01*
X42201Y-49694D02*
X42201Y-49960D01*
X42105Y-49541D02*
X42010Y-49827D01*
X42258Y-49827D01*
X45514Y-54230D02*
X45285Y-54230D01*
X45400Y-54230D02*
X45400Y-53830D01*
X45361Y-53888D01*
X45323Y-53926D01*
X45285Y-53945D01*
X41614Y-54230D02*
X41385Y-54230D01*
X41500Y-54230D02*
X41500Y-53830D01*
X41461Y-53888D01*
X41423Y-53926D01*
X41385Y-53945D01*
X33689Y-54230D02*
X33460Y-54230D01*
X33575Y-54230D02*
X33575Y-53830D01*
X33536Y-53888D01*
X33498Y-53926D01*
X33460Y-53945D01*
X37639Y-51830D02*
X37410Y-51830D01*
X37525Y-51830D02*
X37525Y-51430D01*
X37486Y-51488D01*
X37448Y-51526D01*
X37410Y-51545D01*
X44339Y-50655D02*
X44110Y-50655D01*
X44225Y-50655D02*
X44225Y-50255D01*
X44186Y-50313D01*
X44148Y-50351D01*
X44110Y-50370D01*
X31475Y-58975D02*
X31575Y-58875D01*
X31125Y-58975D02*
X31475Y-58975D01*
X30925Y-59175D02*
X31125Y-58975D01*
X31939Y-58955D02*
X31710Y-58955D01*
X31825Y-58955D02*
X31825Y-58555D01*
X31786Y-58613D01*
X31748Y-58651D01*
X31710Y-58670D01*
X31814Y-58380D02*
X31585Y-58380D01*
X31700Y-58380D02*
X31700Y-57980D01*
X31661Y-58038D01*
X31623Y-58076D01*
X31585Y-58095D01*
X46189Y-59055D02*
X45960Y-59055D01*
X46075Y-59055D02*
X46075Y-58655D01*
X46036Y-58713D01*
X45998Y-58751D01*
X45960Y-58770D01*
X49589Y-53205D02*
X49360Y-53205D01*
X49475Y-53205D02*
X49475Y-52805D01*
X49436Y-52863D01*
X49398Y-52901D01*
X49360Y-52920D01*
X41797Y-46328D02*
X42102Y-46328D01*
X41950Y-46480D02*
X41950Y-46176D01*
X42697Y-46403D02*
X43002Y-46403D01*
X42850Y-46555D02*
X42850Y-46251D01*
X37622Y-59953D02*
X37927Y-59953D01*
X34997Y-59978D02*
X35302Y-59978D01*
X35150Y-60130D02*
X35150Y-59826D01*
X44272Y-60053D02*
X44577Y-60053D01*
X41772Y-60053D02*
X42077Y-60053D01*
X41925Y-60205D02*
X41925Y-59901D01*
X48645Y-47633D02*
X48883Y-47633D01*
X48597Y-47776D02*
X48764Y-47276D01*
X48930Y-47776D01*
X49335Y-47276D02*
X49097Y-47276D01*
X49073Y-47514D01*
X49097Y-47490D01*
X49145Y-47466D01*
X49264Y-47466D01*
X49311Y-47490D01*
X49335Y-47514D01*
X49359Y-47561D01*
X49359Y-47680D01*
X49335Y-47728D01*
X49311Y-47752D01*
X49264Y-47776D01*
X49145Y-47776D01*
X49097Y-47752D01*
X49073Y-47728D01*
X48645Y-46583D02*
X48883Y-46583D01*
X48597Y-46726D02*
X48764Y-46226D01*
X48930Y-46726D01*
X49050Y-46226D02*
X49359Y-46226D01*
X49192Y-46416D01*
X49264Y-46416D01*
X49311Y-46440D01*
X49335Y-46464D01*
X49359Y-46511D01*
X49359Y-46630D01*
X49335Y-46678D01*
X49311Y-46702D01*
X49264Y-46726D01*
X49121Y-46726D01*
X49073Y-46702D01*
X49050Y-46678D01*
X48645Y-45583D02*
X48883Y-45583D01*
X48597Y-45726D02*
X48764Y-45226D01*
X48930Y-45726D01*
X49359Y-45726D02*
X49073Y-45726D01*
X49216Y-45726D02*
X49216Y-45226D01*
X49169Y-45297D01*
X49121Y-45345D01*
X49073Y-45369D01*
X48954Y-44726D02*
X48788Y-44488D01*
X48669Y-44726D02*
X48669Y-44226D01*
X48859Y-44226D01*
X48907Y-44250D01*
X48930Y-44273D01*
X48954Y-44321D01*
X48954Y-44392D01*
X48930Y-44440D01*
X48907Y-44464D01*
X48859Y-44488D01*
X48669Y-44488D01*
X49145Y-44702D02*
X49216Y-44726D01*
X49335Y-44726D01*
X49383Y-44702D01*
X49407Y-44678D01*
X49430Y-44630D01*
X49430Y-44583D01*
X49407Y-44535D01*
X49383Y-44511D01*
X49335Y-44488D01*
X49240Y-44464D01*
X49192Y-44440D01*
X49169Y-44416D01*
X49145Y-44369D01*
X49145Y-44321D01*
X49169Y-44273D01*
X49192Y-44250D01*
X49240Y-44226D01*
X49359Y-44226D01*
X49430Y-44250D01*
X48930Y-43300D02*
X48883Y-43276D01*
X48811Y-43276D01*
X48740Y-43300D01*
X48692Y-43347D01*
X48669Y-43395D01*
X48645Y-43490D01*
X48645Y-43561D01*
X48669Y-43657D01*
X48692Y-43704D01*
X48740Y-43752D01*
X48811Y-43776D01*
X48859Y-43776D01*
X48930Y-43752D01*
X48954Y-43728D01*
X48954Y-43561D01*
X48859Y-43561D01*
X49169Y-43776D02*
X49169Y-43276D01*
X49288Y-43276D01*
X49359Y-43300D01*
X49407Y-43347D01*
X49430Y-43395D01*
X49454Y-43490D01*
X49454Y-43561D01*
X49430Y-43657D01*
X49407Y-43704D01*
X49359Y-43752D01*
X49288Y-43776D01*
X49169Y-43776D01*
X48621Y-42226D02*
X48930Y-42226D01*
X48764Y-42416D01*
X48835Y-42416D01*
X48883Y-42440D01*
X48907Y-42464D01*
X48930Y-42511D01*
X48930Y-42630D01*
X48907Y-42678D01*
X48883Y-42702D01*
X48835Y-42726D01*
X48692Y-42726D01*
X48645Y-42702D01*
X48621Y-42678D01*
X49145Y-42678D02*
X49169Y-42702D01*
X49145Y-42726D01*
X49121Y-42702D01*
X49145Y-42678D01*
X49145Y-42726D01*
X49335Y-42226D02*
X49645Y-42226D01*
X49478Y-42416D01*
X49550Y-42416D01*
X49597Y-42440D01*
X49621Y-42464D01*
X49645Y-42511D01*
X49645Y-42630D01*
X49621Y-42678D01*
X49597Y-42702D01*
X49550Y-42726D01*
X49407Y-42726D01*
X49359Y-42702D01*
X49335Y-42678D01*
X48597Y-41226D02*
X48764Y-41726D01*
X48930Y-41226D01*
X49097Y-41726D02*
X49097Y-41226D01*
X49383Y-41726D01*
X49383Y-41226D01*
X48669Y-48726D02*
X48669Y-48226D01*
X48835Y-48583D01*
X49002Y-48226D01*
X49002Y-48726D01*
X49502Y-48250D02*
X49454Y-48226D01*
X49383Y-48226D01*
X49311Y-48250D01*
X49264Y-48297D01*
X49240Y-48345D01*
X49216Y-48440D01*
X49216Y-48511D01*
X49240Y-48607D01*
X49264Y-48654D01*
X49311Y-48702D01*
X49383Y-48726D01*
X49430Y-48726D01*
X49502Y-48702D01*
X49526Y-48678D01*
X49526Y-48511D01*
X49430Y-48511D01*
X33669Y-47726D02*
X33669Y-47226D01*
X33788Y-47226D01*
X33859Y-47250D01*
X33907Y-47297D01*
X33930Y-47345D01*
X33954Y-47440D01*
X33954Y-47511D01*
X33930Y-47607D01*
X33907Y-47654D01*
X33859Y-47702D01*
X33788Y-47726D01*
X33669Y-47726D01*
X34430Y-47726D02*
X34145Y-47726D01*
X34288Y-47726D02*
X34288Y-47226D01*
X34240Y-47297D01*
X34192Y-47345D01*
X34145Y-47369D01*
X34597Y-47226D02*
X34907Y-47226D01*
X34740Y-47416D01*
X34811Y-47416D01*
X34859Y-47440D01*
X34883Y-47464D01*
X34907Y-47511D01*
X34907Y-47630D01*
X34883Y-47678D01*
X34859Y-47702D01*
X34811Y-47726D01*
X34669Y-47726D01*
X34621Y-47702D01*
X34597Y-47678D01*
X33644Y-47001D02*
X33644Y-46501D01*
X33763Y-46501D01*
X33834Y-46525D01*
X33882Y-46572D01*
X33905Y-46620D01*
X33929Y-46715D01*
X33929Y-46786D01*
X33905Y-46882D01*
X33882Y-46929D01*
X33834Y-46977D01*
X33763Y-47001D01*
X33644Y-47001D01*
X34405Y-47001D02*
X34120Y-47001D01*
X34263Y-47001D02*
X34263Y-46501D01*
X34215Y-46572D01*
X34167Y-46620D01*
X34120Y-46644D01*
X34882Y-47001D02*
X34596Y-47001D01*
X34739Y-47001D02*
X34739Y-46501D01*
X34691Y-46572D01*
X34644Y-46620D01*
X34596Y-46644D01*
X33669Y-46276D02*
X33669Y-45776D01*
X33788Y-45776D01*
X33859Y-45800D01*
X33907Y-45847D01*
X33930Y-45895D01*
X33954Y-45990D01*
X33954Y-46061D01*
X33930Y-46157D01*
X33907Y-46204D01*
X33859Y-46252D01*
X33788Y-46276D01*
X33669Y-46276D01*
X34192Y-46276D02*
X34288Y-46276D01*
X34335Y-46252D01*
X34359Y-46228D01*
X34407Y-46157D01*
X34430Y-46061D01*
X34430Y-45871D01*
X34407Y-45823D01*
X34383Y-45800D01*
X34335Y-45776D01*
X34240Y-45776D01*
X34192Y-45800D01*
X34169Y-45823D01*
X34145Y-45871D01*
X34145Y-45990D01*
X34169Y-46038D01*
X34192Y-46061D01*
X34240Y-46085D01*
X34335Y-46085D01*
X34383Y-46061D01*
X34407Y-46038D01*
X34430Y-45990D01*
X33619Y-44926D02*
X33619Y-44426D01*
X33738Y-44426D01*
X33809Y-44450D01*
X33857Y-44497D01*
X33880Y-44545D01*
X33904Y-44640D01*
X33904Y-44711D01*
X33880Y-44807D01*
X33857Y-44854D01*
X33809Y-44902D01*
X33738Y-44926D01*
X33619Y-44926D01*
X34071Y-44426D02*
X34404Y-44426D01*
X34190Y-44926D01*
X33719Y-43726D02*
X33719Y-43226D01*
X33838Y-43226D01*
X33909Y-43250D01*
X33957Y-43297D01*
X33980Y-43345D01*
X34004Y-43440D01*
X34004Y-43511D01*
X33980Y-43607D01*
X33957Y-43654D01*
X33909Y-43702D01*
X33838Y-43726D01*
X33719Y-43726D01*
X34457Y-43226D02*
X34219Y-43226D01*
X34195Y-43464D01*
X34219Y-43440D01*
X34266Y-43416D01*
X34385Y-43416D01*
X34433Y-43440D01*
X34457Y-43464D01*
X34480Y-43511D01*
X34480Y-43630D01*
X34457Y-43678D01*
X34433Y-43702D01*
X34385Y-43726D01*
X34266Y-43726D01*
X34219Y-43702D01*
X34195Y-43678D01*
X33619Y-42876D02*
X33619Y-42376D01*
X33738Y-42376D01*
X33809Y-42400D01*
X33857Y-42447D01*
X33880Y-42495D01*
X33904Y-42590D01*
X33904Y-42661D01*
X33880Y-42757D01*
X33857Y-42804D01*
X33809Y-42852D01*
X33738Y-42876D01*
X33619Y-42876D01*
X34071Y-42376D02*
X34380Y-42376D01*
X34214Y-42566D01*
X34285Y-42566D01*
X34333Y-42590D01*
X34357Y-42614D01*
X34380Y-42661D01*
X34380Y-42780D01*
X34357Y-42828D01*
X34333Y-42852D01*
X34285Y-42876D01*
X34142Y-42876D01*
X34095Y-42852D01*
X34071Y-42828D01*
X33619Y-42176D02*
X33619Y-41676D01*
X33738Y-41676D01*
X33809Y-41700D01*
X33857Y-41747D01*
X33880Y-41795D01*
X33904Y-41890D01*
X33904Y-41961D01*
X33880Y-42057D01*
X33857Y-42104D01*
X33809Y-42152D01*
X33738Y-42176D01*
X33619Y-42176D01*
X34380Y-42176D02*
X34095Y-42176D01*
X34238Y-42176D02*
X34238Y-41676D01*
X34190Y-41747D01*
X34142Y-41795D01*
X34095Y-41819D01*
X45497Y-48726D02*
X45497Y-48226D01*
X45664Y-48583D01*
X45830Y-48226D01*
X45830Y-48726D01*
X46330Y-48250D02*
X46283Y-48226D01*
X46211Y-48226D01*
X46140Y-48250D01*
X46092Y-48297D01*
X46069Y-48345D01*
X46045Y-48440D01*
X46045Y-48511D01*
X46069Y-48607D01*
X46092Y-48654D01*
X46140Y-48702D01*
X46211Y-48726D01*
X46259Y-48726D01*
X46330Y-48702D01*
X46354Y-48678D01*
X46354Y-48511D01*
X46259Y-48511D01*
X45615Y-47733D02*
X45853Y-47733D01*
X45567Y-47876D02*
X45734Y-47376D01*
X45901Y-47876D01*
X46282Y-47542D02*
X46282Y-47876D01*
X46163Y-47352D02*
X46044Y-47709D01*
X46353Y-47709D01*
X45665Y-46358D02*
X45903Y-46358D01*
X45617Y-46501D02*
X45784Y-46001D01*
X45951Y-46501D01*
X46094Y-46048D02*
X46117Y-46025D01*
X46165Y-46001D01*
X46284Y-46001D01*
X46332Y-46025D01*
X46355Y-46048D01*
X46379Y-46096D01*
X46379Y-46144D01*
X46355Y-46215D01*
X46070Y-46501D01*
X46379Y-46501D01*
X45740Y-45758D02*
X45978Y-45758D01*
X45692Y-45901D02*
X45859Y-45401D01*
X46026Y-45901D01*
X46288Y-45401D02*
X46335Y-45401D01*
X46383Y-45425D01*
X46407Y-45448D01*
X46430Y-45496D01*
X46454Y-45591D01*
X46454Y-45710D01*
X46430Y-45805D01*
X46407Y-45853D01*
X46383Y-45877D01*
X46335Y-45901D01*
X46288Y-45901D01*
X46240Y-45877D01*
X46216Y-45853D01*
X46192Y-45805D01*
X46169Y-45710D01*
X46169Y-45591D01*
X46192Y-45496D01*
X46216Y-45448D01*
X46240Y-45425D01*
X46288Y-45401D01*
X45641Y-44633D02*
X45879Y-44633D01*
X45594Y-44776D02*
X45760Y-44276D01*
X45927Y-44776D01*
X46379Y-44776D02*
X46213Y-44538D01*
X46094Y-44776D02*
X46094Y-44276D01*
X46284Y-44276D01*
X46332Y-44300D01*
X46355Y-44323D01*
X46379Y-44371D01*
X46379Y-44442D01*
X46355Y-44490D01*
X46332Y-44514D01*
X46284Y-44538D01*
X46094Y-44538D01*
X45830Y-43250D02*
X45783Y-43226D01*
X45711Y-43226D01*
X45640Y-43250D01*
X45592Y-43297D01*
X45569Y-43345D01*
X45545Y-43440D01*
X45545Y-43511D01*
X45569Y-43607D01*
X45592Y-43654D01*
X45640Y-43702D01*
X45711Y-43726D01*
X45759Y-43726D01*
X45830Y-43702D01*
X45854Y-43678D01*
X45854Y-43511D01*
X45759Y-43511D01*
X46069Y-43726D02*
X46069Y-43226D01*
X46188Y-43226D01*
X46259Y-43250D01*
X46307Y-43297D01*
X46330Y-43345D01*
X46354Y-43440D01*
X46354Y-43511D01*
X46330Y-43607D01*
X46307Y-43654D01*
X46259Y-43702D01*
X46188Y-43726D01*
X46069Y-43726D01*
X45902Y-42401D02*
X45664Y-42401D01*
X45640Y-42639D01*
X45664Y-42615D01*
X45711Y-42591D01*
X45830Y-42591D01*
X45878Y-42615D01*
X45902Y-42639D01*
X45926Y-42686D01*
X45926Y-42805D01*
X45902Y-42853D01*
X45878Y-42877D01*
X45830Y-42901D01*
X45711Y-42901D01*
X45664Y-42877D01*
X45640Y-42853D01*
X46069Y-42401D02*
X46235Y-42901D01*
X46402Y-42401D01*
X45595Y-41601D02*
X45761Y-42101D01*
X45928Y-41601D01*
X46095Y-42101D02*
X46095Y-41601D01*
X46380Y-42101D01*
X46380Y-41601D01*
X30497Y-48726D02*
X30497Y-48226D01*
X30664Y-48583D01*
X30830Y-48226D01*
X30830Y-48726D01*
X31069Y-48726D02*
X31069Y-48226D01*
X31259Y-48226D01*
X31307Y-48250D01*
X31330Y-48273D01*
X31354Y-48321D01*
X31354Y-48392D01*
X31330Y-48440D01*
X31307Y-48464D01*
X31259Y-48488D01*
X31069Y-48488D01*
X30878Y-47726D02*
X30592Y-47726D01*
X30735Y-47726D02*
X30735Y-47226D01*
X30688Y-47297D01*
X30640Y-47345D01*
X30592Y-47369D01*
X31069Y-47273D02*
X31092Y-47250D01*
X31140Y-47226D01*
X31259Y-47226D01*
X31307Y-47250D01*
X31330Y-47273D01*
X31354Y-47321D01*
X31354Y-47369D01*
X31330Y-47440D01*
X31045Y-47726D01*
X31354Y-47726D01*
X30878Y-46726D02*
X30592Y-46726D01*
X30735Y-46726D02*
X30735Y-46226D01*
X30688Y-46297D01*
X30640Y-46345D01*
X30592Y-46369D01*
X31188Y-46226D02*
X31235Y-46226D01*
X31283Y-46250D01*
X31307Y-46273D01*
X31330Y-46321D01*
X31354Y-46416D01*
X31354Y-46535D01*
X31330Y-46630D01*
X31307Y-46678D01*
X31283Y-46702D01*
X31235Y-46726D01*
X31188Y-46726D01*
X31140Y-46702D01*
X31116Y-46678D01*
X31092Y-46630D01*
X31069Y-46535D01*
X31069Y-46416D01*
X31092Y-46321D01*
X31116Y-46273D01*
X31140Y-46250D01*
X31188Y-46226D01*
X30592Y-45726D02*
X30592Y-45226D01*
X30711Y-45226D01*
X30783Y-45250D01*
X30830Y-45297D01*
X30854Y-45345D01*
X30878Y-45440D01*
X30878Y-45511D01*
X30854Y-45607D01*
X30830Y-45654D01*
X30783Y-45702D01*
X30711Y-45726D01*
X30592Y-45726D01*
X31164Y-45440D02*
X31116Y-45416D01*
X31092Y-45392D01*
X31069Y-45345D01*
X31069Y-45321D01*
X31092Y-45273D01*
X31116Y-45250D01*
X31164Y-45226D01*
X31259Y-45226D01*
X31307Y-45250D01*
X31330Y-45273D01*
X31354Y-45321D01*
X31354Y-45345D01*
X31330Y-45392D01*
X31307Y-45416D01*
X31259Y-45440D01*
X31164Y-45440D01*
X31116Y-45464D01*
X31092Y-45488D01*
X31069Y-45535D01*
X31069Y-45630D01*
X31092Y-45678D01*
X31116Y-45702D01*
X31164Y-45726D01*
X31259Y-45726D01*
X31307Y-45702D01*
X31330Y-45678D01*
X31354Y-45630D01*
X31354Y-45535D01*
X31330Y-45488D01*
X31307Y-45464D01*
X31259Y-45440D01*
X30592Y-44726D02*
X30592Y-44226D01*
X30711Y-44226D01*
X30783Y-44250D01*
X30830Y-44297D01*
X30854Y-44345D01*
X30878Y-44440D01*
X30878Y-44511D01*
X30854Y-44607D01*
X30830Y-44654D01*
X30783Y-44702D01*
X30711Y-44726D01*
X30592Y-44726D01*
X31307Y-44226D02*
X31211Y-44226D01*
X31164Y-44250D01*
X31140Y-44273D01*
X31092Y-44345D01*
X31069Y-44440D01*
X31069Y-44630D01*
X31092Y-44678D01*
X31116Y-44702D01*
X31164Y-44726D01*
X31259Y-44726D01*
X31307Y-44702D01*
X31330Y-44678D01*
X31354Y-44630D01*
X31354Y-44511D01*
X31330Y-44464D01*
X31307Y-44440D01*
X31259Y-44416D01*
X31164Y-44416D01*
X31116Y-44440D01*
X31092Y-44464D01*
X31069Y-44511D01*
X30592Y-43726D02*
X30592Y-43226D01*
X30711Y-43226D01*
X30783Y-43250D01*
X30830Y-43297D01*
X30854Y-43345D01*
X30878Y-43440D01*
X30878Y-43511D01*
X30854Y-43607D01*
X30830Y-43654D01*
X30783Y-43702D01*
X30711Y-43726D01*
X30592Y-43726D01*
X31307Y-43392D02*
X31307Y-43726D01*
X31188Y-43202D02*
X31069Y-43559D01*
X31378Y-43559D01*
X30592Y-42726D02*
X30592Y-42226D01*
X30711Y-42226D01*
X30783Y-42250D01*
X30830Y-42297D01*
X30854Y-42345D01*
X30878Y-42440D01*
X30878Y-42511D01*
X30854Y-42607D01*
X30830Y-42654D01*
X30783Y-42702D01*
X30711Y-42726D01*
X30592Y-42726D01*
X31069Y-42273D02*
X31092Y-42250D01*
X31140Y-42226D01*
X31259Y-42226D01*
X31307Y-42250D01*
X31330Y-42273D01*
X31354Y-42321D01*
X31354Y-42369D01*
X31330Y-42440D01*
X31045Y-42726D01*
X31354Y-42726D01*
X30592Y-41726D02*
X30592Y-41226D01*
X30711Y-41226D01*
X30783Y-41250D01*
X30830Y-41297D01*
X30854Y-41345D01*
X30878Y-41440D01*
X30878Y-41511D01*
X30854Y-41607D01*
X30830Y-41654D01*
X30783Y-41702D01*
X30711Y-41726D01*
X30592Y-41726D01*
X31188Y-41226D02*
X31235Y-41226D01*
X31283Y-41250D01*
X31307Y-41273D01*
X31330Y-41321D01*
X31354Y-41416D01*
X31354Y-41535D01*
X31330Y-41630D01*
X31307Y-41678D01*
X31283Y-41702D01*
X31235Y-41726D01*
X31188Y-41726D01*
X31140Y-41702D01*
X31116Y-41678D01*
X31092Y-41630D01*
X31069Y-41535D01*
X31069Y-41416D01*
X31092Y-41321D01*
X31116Y-41273D01*
X31140Y-41250D01*
X31188Y-41226D01*
X49842Y-40657D02*
X49842Y-60342D01*
X49842Y-60342D02*
X30157Y-60342D01*
X30157Y-40657D02*
X30157Y-60342D01*
X30157Y-40657D02*
X49842Y-40657D01*
G54D12*
X33500Y-49000D02*
X33500Y-41000D01*
X31500Y-42000D02*
X31500Y-49000D01*
X33500Y-49000D02*
X31500Y-49000D01*
X33500Y-41000D02*
X32500Y-41000D01*
X31500Y-41000D02*
X31500Y-42000D01*
X32500Y-41000D02*
X32500Y-42000D01*
X32500Y-42000D02*
X31500Y-42000D01*
X31500Y-41000D02*
X32500Y-41000D01*
X48500Y-49000D02*
X48500Y-41000D01*
X46500Y-42000D02*
X46500Y-49000D01*
X48500Y-49000D02*
X46500Y-49000D01*
X48500Y-41000D02*
X47500Y-41000D01*
X46500Y-41000D02*
X46500Y-42000D01*
X47500Y-41000D02*
X47500Y-42000D01*
X47500Y-42000D02*
X46500Y-42000D01*
X46500Y-41000D02*
X47500Y-41000D01*
G54D13*
X44800Y-46000D02*
X43200Y-46000D01*
X43200Y-47000D02*
X44800Y-47000D01*
G54D14*
X38700Y-46380D02*
X38700Y-44400D01*
X38700Y-44400D02*
X39700Y-44400D01*
X39700Y-44400D02*
X39700Y-46400D01*
X39700Y-46400D02*
X38700Y-46400D01*
X38950Y-46400D02*
X38700Y-46150D01*
G54D13*
X40600Y-44700D02*
X40600Y-46300D01*
X41600Y-46300D02*
X41600Y-44700D01*
G54D14*
X36200Y-53380D02*
X36200Y-51400D01*
X36200Y-51400D02*
X37200Y-51400D01*
X37200Y-51400D02*
X37200Y-53400D01*
X37200Y-53400D02*
X36200Y-53400D01*
X36450Y-53400D02*
X36200Y-53150D01*
G54D12*
X43000Y-52500D02*
X45000Y-52500D01*
X45000Y-52500D02*
X45000Y-51500D01*
X45000Y-51500D02*
X43000Y-51500D01*
X42000Y-51500D02*
X43000Y-51500D01*
X43000Y-51500D02*
X43000Y-52500D01*
X42000Y-51500D02*
X42000Y-52500D01*
X42000Y-52500D02*
X43000Y-52500D01*
X49250Y-52250D02*
X49250Y-49250D01*
X48250Y-52250D02*
X48250Y-49250D01*
X48250Y-53250D02*
X48250Y-52250D01*
X49250Y-49250D02*
X48250Y-49250D01*
X48250Y-52250D02*
X49250Y-52250D01*
X48250Y-53250D02*
X49250Y-53250D01*
X49250Y-53250D02*
X49250Y-52250D01*
X31450Y-57675D02*
X31450Y-54675D01*
X30450Y-57675D02*
X30450Y-54675D01*
X30450Y-58675D02*
X30450Y-57675D01*
X31450Y-54675D02*
X30450Y-54675D01*
X30450Y-57675D02*
X31450Y-57675D01*
X30450Y-58675D02*
X31450Y-58675D01*
X31450Y-58675D02*
X31450Y-57675D01*
G54D13*
X45750Y-49969D02*
X45750Y-50369D01*
X45750Y-47969D02*
X45750Y-47569D01*
X45250Y-49969D02*
X45250Y-47969D01*
X45250Y-47969D02*
X46250Y-47969D01*
X46250Y-47969D02*
X46250Y-49969D01*
X46250Y-49969D02*
X45250Y-49969D01*
X45700Y-42281D02*
X45700Y-41881D01*
X45700Y-44281D02*
X45700Y-44681D01*
X46200Y-42281D02*
X46200Y-44281D01*
X46200Y-44281D02*
X45200Y-44281D01*
X45200Y-44281D02*
X45200Y-42281D01*
X45200Y-42281D02*
X46200Y-42281D01*
X37275Y-42306D02*
X37275Y-41906D01*
X37275Y-44306D02*
X37275Y-44706D01*
X37775Y-42306D02*
X37775Y-44306D01*
X37775Y-44306D02*
X36775Y-44306D01*
X36775Y-44306D02*
X36775Y-42306D01*
X36775Y-42306D02*
X37775Y-42306D01*
X35825Y-42306D02*
X35825Y-41906D01*
X35825Y-44306D02*
X35825Y-44706D01*
X36325Y-42306D02*
X36325Y-44306D01*
X36325Y-44306D02*
X35325Y-44306D01*
X35325Y-44306D02*
X35325Y-42306D01*
X35325Y-42306D02*
X36325Y-42306D01*
X34350Y-42306D02*
X34350Y-41906D01*
X34350Y-44306D02*
X34350Y-44706D01*
X34850Y-42306D02*
X34850Y-44306D01*
X34850Y-44306D02*
X33850Y-44306D01*
X33850Y-44306D02*
X33850Y-42306D01*
X33850Y-42306D02*
X34850Y-42306D01*
X44075Y-42256D02*
X44075Y-41856D01*
X44075Y-44256D02*
X44075Y-44656D01*
X44575Y-42256D02*
X44575Y-44256D01*
X44575Y-44256D02*
X43575Y-44256D01*
X43575Y-44256D02*
X43575Y-42256D01*
X43575Y-42256D02*
X44575Y-42256D01*
X42525Y-42231D02*
X42525Y-41831D01*
X42525Y-44231D02*
X42525Y-44631D01*
X43025Y-42231D02*
X43025Y-44231D01*
X43025Y-44231D02*
X42025Y-44231D01*
X42025Y-44231D02*
X42025Y-42231D01*
X42025Y-42231D02*
X43025Y-42231D01*
X32006Y-51200D02*
X31606Y-51200D01*
X34006Y-51200D02*
X34406Y-51200D01*
X32006Y-50700D02*
X34006Y-50700D01*
X34006Y-50700D02*
X34006Y-51700D01*
X34006Y-51700D02*
X32006Y-51700D01*
X32006Y-51700D02*
X32006Y-50700D01*
X32006Y-49700D02*
X31606Y-49700D01*
X34006Y-49700D02*
X34406Y-49700D01*
X32006Y-49200D02*
X34006Y-49200D01*
X34006Y-49200D02*
X34006Y-50200D01*
X34006Y-50200D02*
X32006Y-50200D01*
X32006Y-50200D02*
X32006Y-49200D01*
X32031Y-52750D02*
X31631Y-52750D01*
X34031Y-52750D02*
X34431Y-52750D01*
X32031Y-52250D02*
X34031Y-52250D01*
X34031Y-52250D02*
X34031Y-53250D01*
X34031Y-53250D02*
X32031Y-53250D01*
X32031Y-53250D02*
X32031Y-52250D01*
X32750Y-55281D02*
X32750Y-54881D01*
X32750Y-57281D02*
X32750Y-57681D01*
X33250Y-55281D02*
X33250Y-57281D01*
X33250Y-57281D02*
X32250Y-57281D01*
X32250Y-57281D02*
X32250Y-55281D01*
X32250Y-55281D02*
X33250Y-55281D01*
X47250Y-50531D02*
X47250Y-50131D01*
X47250Y-52531D02*
X47250Y-52931D01*
X47750Y-50531D02*
X47750Y-52531D01*
X47750Y-52531D02*
X46750Y-52531D01*
X46750Y-52531D02*
X46750Y-50531D01*
X46750Y-50531D02*
X47750Y-50531D01*
X44969Y-53400D02*
X45369Y-53400D01*
X42969Y-53400D02*
X42569Y-53400D01*
X44969Y-53900D02*
X42969Y-53900D01*
X42969Y-53900D02*
X42969Y-52900D01*
X42969Y-52900D02*
X44969Y-52900D01*
X44969Y-52900D02*
X44969Y-53900D01*
X42550Y-49750D02*
X43100Y-49750D01*
X42550Y-48750D02*
X43100Y-48750D01*
X42550Y-47750D02*
X43100Y-47750D01*
X38389Y-48750D02*
G75*
G03X38389Y-48750I-989J0D01*
G74*
G01*
X39200Y-46650D02*
X36050Y-46650D01*
X36050Y-46650D02*
X36050Y-50850D01*
X36050Y-50850D02*
X39200Y-50850D01*
X42550Y-46650D02*
X39200Y-46650D01*
X39200Y-46650D02*
X39200Y-50850D01*
X39200Y-50850D02*
X42550Y-50850D01*
X42550Y-48750D02*
X42550Y-50850D01*
X42550Y-48750D02*
X42550Y-46650D01*
G54D12*
X48000Y-54250D02*
X48000Y-54750D01*
X48000Y-54750D02*
X47000Y-54750D01*
X47000Y-54750D02*
X47000Y-54250D01*
X48500Y-54250D02*
X48500Y-58250D01*
X48500Y-58250D02*
X46500Y-58250D01*
X46500Y-58250D02*
X46500Y-54250D01*
X46500Y-54250D02*
X48500Y-54250D01*
X36000Y-54250D02*
X36000Y-54750D01*
X36000Y-54750D02*
X35000Y-54750D01*
X35000Y-54750D02*
X35000Y-54250D01*
X36500Y-54250D02*
X36500Y-58250D01*
X36500Y-58250D02*
X34500Y-58250D01*
X34500Y-58250D02*
X34500Y-54250D01*
X34500Y-54250D02*
X36500Y-54250D01*
X44000Y-54250D02*
X44000Y-54750D01*
X44000Y-54750D02*
X43000Y-54750D01*
X43000Y-54750D02*
X43000Y-54250D01*
X44500Y-54250D02*
X44500Y-58250D01*
X44500Y-58250D02*
X42500Y-58250D01*
X42500Y-58250D02*
X42500Y-54250D01*
X42500Y-54250D02*
X44500Y-54250D01*
G54D13*
X40000Y-51250D02*
X40000Y-51250D01*
X40000Y-51250D02*
X40000Y-51750D01*
X40000Y-51750D02*
X39000Y-51750D01*
X39000Y-51750D02*
X39000Y-51250D01*
X40500Y-51250D02*
X40500Y-60250D01*
X40500Y-60250D02*
X38500Y-60250D01*
X38500Y-60250D02*
X38500Y-51250D01*
X38500Y-51250D02*
X40500Y-51250D01*
G54D12*
X43200Y-58825D02*
X43200Y-59825D01*
X42200Y-58825D02*
X42200Y-59825D01*
X42200Y-59825D02*
X43200Y-59825D01*
X43200Y-59825D02*
X44200Y-59825D01*
X44200Y-59825D02*
X44200Y-58825D01*
X44200Y-58825D02*
X42200Y-58825D01*
X36500Y-58750D02*
X36500Y-59750D01*
X35500Y-58750D02*
X35500Y-59750D01*
X35500Y-59750D02*
X36500Y-59750D01*
X36500Y-59750D02*
X37500Y-59750D01*
X37500Y-59750D02*
X37500Y-58750D01*
X37500Y-58750D02*
X35500Y-58750D01*
X31425Y-60150D02*
X34425Y-60150D01*
X31425Y-59150D02*
X34425Y-59150D01*
X30425Y-59150D02*
X31425Y-59150D01*
X34425Y-60150D02*
X34425Y-59150D01*
X31425Y-59150D02*
X31425Y-60150D01*
X30425Y-59150D02*
X30425Y-60150D01*
X30425Y-60150D02*
X31425Y-60150D01*
X46575Y-60175D02*
X49575Y-60175D01*
X46575Y-59175D02*
X49575Y-59175D01*
X45575Y-59175D02*
X46575Y-59175D01*
X49575Y-60175D02*
X49575Y-59175D01*
X46575Y-59175D02*
X46575Y-60175D01*
X45575Y-59175D02*
X45575Y-60175D01*
X45575Y-60175D02*
X46575Y-60175D01*
G54D11*
X39695Y-42180D02*
X39695Y-41780D01*
X39695Y-41971D02*
X39923Y-41971D01*
X39923Y-42180D02*
X39923Y-41780D01*
X40323Y-42180D02*
X40095Y-42180D01*
X40209Y-42180D02*
X40209Y-41780D01*
X40171Y-41838D01*
X40133Y-41876D01*
X40095Y-41895D01*
X33720Y-49005D02*
X33720Y-48605D01*
X33948Y-49005D01*
X33948Y-48605D01*
X34348Y-49005D02*
X34120Y-49005D01*
X34234Y-49005D02*
X34234Y-48605D01*
X34196Y-48663D01*
X34158Y-48701D01*
X34120Y-48720D01*
X47195Y-49630D02*
X47195Y-49230D01*
X47423Y-49630D01*
X47423Y-49230D01*
X47595Y-49269D02*
X47614Y-49250D01*
X47652Y-49230D01*
X47747Y-49230D01*
X47785Y-49250D01*
X47804Y-49269D01*
X47823Y-49307D01*
X47823Y-49345D01*
X47804Y-49402D01*
X47576Y-49630D01*
X47823Y-49630D01*
X45183Y-46192D02*
X45164Y-46211D01*
X45107Y-46230D01*
X45069Y-46230D01*
X45011Y-46211D01*
X44973Y-46173D01*
X44954Y-46135D01*
X44935Y-46059D01*
X44935Y-46002D01*
X44954Y-45926D01*
X44973Y-45888D01*
X45011Y-45850D01*
X45069Y-45830D01*
X45107Y-45830D01*
X45164Y-45850D01*
X45183Y-45869D01*
X45564Y-46230D02*
X45335Y-46230D01*
X45450Y-46230D02*
X45450Y-45830D01*
X45411Y-45888D01*
X45373Y-45926D01*
X45335Y-45945D01*
X39158Y-44267D02*
X39139Y-44286D01*
X39082Y-44305D01*
X39044Y-44305D01*
X38986Y-44286D01*
X38948Y-44248D01*
X38929Y-44210D01*
X38910Y-44134D01*
X38910Y-44077D01*
X38929Y-44001D01*
X38948Y-43963D01*
X38986Y-43925D01*
X39044Y-43905D01*
X39082Y-43905D01*
X39139Y-43925D01*
X39158Y-43944D01*
X39310Y-43944D02*
X39329Y-43925D01*
X39367Y-43905D01*
X39463Y-43905D01*
X39501Y-43925D01*
X39520Y-43944D01*
X39539Y-43982D01*
X39539Y-44020D01*
X39520Y-44077D01*
X39291Y-44305D01*
X39539Y-44305D01*
X41058Y-44342D02*
X41039Y-44361D01*
X40982Y-44380D01*
X40944Y-44380D01*
X40886Y-44361D01*
X40848Y-44323D01*
X40829Y-44285D01*
X40810Y-44209D01*
X40810Y-44152D01*
X40829Y-44076D01*
X40848Y-44038D01*
X40886Y-44000D01*
X40944Y-43980D01*
X40982Y-43980D01*
X41039Y-44000D01*
X41058Y-44019D01*
X41191Y-43980D02*
X41439Y-43980D01*
X41305Y-44133D01*
X41363Y-44133D01*
X41401Y-44152D01*
X41420Y-44171D01*
X41439Y-44209D01*
X41439Y-44304D01*
X41420Y-44342D01*
X41401Y-44361D01*
X41363Y-44380D01*
X41248Y-44380D01*
X41210Y-44361D01*
X41191Y-44342D01*
X35708Y-52167D02*
X35689Y-52186D01*
X35632Y-52205D01*
X35594Y-52205D01*
X35536Y-52186D01*
X35498Y-52148D01*
X35479Y-52110D01*
X35460Y-52034D01*
X35460Y-51977D01*
X35479Y-51901D01*
X35498Y-51863D01*
X35536Y-51825D01*
X35594Y-51805D01*
X35632Y-51805D01*
X35689Y-51825D01*
X35708Y-51844D01*
X36051Y-51939D02*
X36051Y-52205D01*
X35955Y-51786D02*
X35860Y-52072D01*
X36108Y-52072D01*
X41541Y-51505D02*
X41541Y-51791D01*
X41522Y-51848D01*
X41484Y-51886D01*
X41427Y-51905D01*
X41389Y-51905D01*
X41941Y-51905D02*
X41713Y-51905D01*
X41827Y-51905D02*
X41827Y-51505D01*
X41789Y-51563D01*
X41751Y-51601D01*
X41713Y-51620D01*
X48545Y-53780D02*
X48545Y-53380D01*
X48773Y-53780D01*
X48773Y-53380D01*
X48926Y-53380D02*
X49173Y-53380D01*
X49040Y-53533D01*
X49097Y-53533D01*
X49135Y-53552D01*
X49154Y-53571D01*
X49173Y-53609D01*
X49173Y-53704D01*
X49154Y-53742D01*
X49135Y-53761D01*
X49097Y-53780D01*
X48983Y-53780D01*
X48945Y-53761D01*
X48926Y-53742D01*
X30245Y-54405D02*
X30245Y-54005D01*
X30473Y-54405D01*
X30473Y-54005D01*
X30835Y-54139D02*
X30835Y-54405D01*
X30740Y-53986D02*
X30645Y-54272D01*
X30892Y-54272D01*
X45083Y-50530D02*
X44950Y-50340D01*
X44854Y-50530D02*
X44854Y-50130D01*
X45007Y-50130D01*
X45045Y-50150D01*
X45064Y-50169D01*
X45083Y-50207D01*
X45083Y-50264D01*
X45064Y-50302D01*
X45045Y-50321D01*
X45007Y-50340D01*
X44854Y-50340D01*
X45464Y-50530D02*
X45235Y-50530D01*
X45350Y-50530D02*
X45350Y-50130D01*
X45311Y-50188D01*
X45273Y-50226D01*
X45235Y-50245D01*
X45083Y-42080D02*
X44950Y-41890D01*
X44854Y-42080D02*
X44854Y-41680D01*
X45007Y-41680D01*
X45045Y-41700D01*
X45064Y-41719D01*
X45083Y-41757D01*
X45083Y-41814D01*
X45064Y-41852D01*
X45045Y-41871D01*
X45007Y-41890D01*
X44854Y-41890D01*
X45235Y-41719D02*
X45254Y-41700D01*
X45292Y-41680D01*
X45388Y-41680D01*
X45426Y-41700D01*
X45445Y-41719D01*
X45464Y-41757D01*
X45464Y-41795D01*
X45445Y-41852D01*
X45216Y-42080D01*
X45464Y-42080D01*
X37983Y-42130D02*
X37850Y-41940D01*
X37754Y-42130D02*
X37754Y-41730D01*
X37907Y-41730D01*
X37945Y-41750D01*
X37964Y-41769D01*
X37983Y-41807D01*
X37983Y-41864D01*
X37964Y-41902D01*
X37945Y-41921D01*
X37907Y-41940D01*
X37754Y-41940D01*
X38116Y-41730D02*
X38364Y-41730D01*
X38230Y-41883D01*
X38288Y-41883D01*
X38326Y-41902D01*
X38345Y-41921D01*
X38364Y-41959D01*
X38364Y-42054D01*
X38345Y-42092D01*
X38326Y-42111D01*
X38288Y-42130D01*
X38173Y-42130D01*
X38135Y-42111D01*
X38116Y-42092D01*
X36458Y-42105D02*
X36325Y-41915D01*
X36229Y-42105D02*
X36229Y-41705D01*
X36382Y-41705D01*
X36420Y-41725D01*
X36439Y-41744D01*
X36458Y-41782D01*
X36458Y-41839D01*
X36439Y-41877D01*
X36420Y-41896D01*
X36382Y-41915D01*
X36229Y-41915D01*
X36801Y-41839D02*
X36801Y-42105D01*
X36705Y-41686D02*
X36610Y-41972D01*
X36858Y-41972D01*
X34933Y-42180D02*
X34800Y-41990D01*
X34704Y-42180D02*
X34704Y-41780D01*
X34857Y-41780D01*
X34895Y-41800D01*
X34914Y-41819D01*
X34933Y-41857D01*
X34933Y-41914D01*
X34914Y-41952D01*
X34895Y-41971D01*
X34857Y-41990D01*
X34704Y-41990D01*
X35295Y-41780D02*
X35104Y-41780D01*
X35085Y-41971D01*
X35104Y-41952D01*
X35142Y-41933D01*
X35238Y-41933D01*
X35276Y-41952D01*
X35295Y-41971D01*
X35314Y-42009D01*
X35314Y-42104D01*
X35295Y-42142D01*
X35276Y-42161D01*
X35238Y-42180D01*
X35142Y-42180D01*
X35104Y-42161D01*
X35085Y-42142D01*
X43333Y-42080D02*
X43200Y-41890D01*
X43104Y-42080D02*
X43104Y-41680D01*
X43257Y-41680D01*
X43295Y-41700D01*
X43314Y-41719D01*
X43333Y-41757D01*
X43333Y-41814D01*
X43314Y-41852D01*
X43295Y-41871D01*
X43257Y-41890D01*
X43104Y-41890D01*
X43676Y-41680D02*
X43600Y-41680D01*
X43561Y-41700D01*
X43542Y-41719D01*
X43504Y-41776D01*
X43485Y-41852D01*
X43485Y-42004D01*
X43504Y-42042D01*
X43523Y-42061D01*
X43561Y-42080D01*
X43638Y-42080D01*
X43676Y-42061D01*
X43695Y-42042D01*
X43714Y-42004D01*
X43714Y-41909D01*
X43695Y-41871D01*
X43676Y-41852D01*
X43638Y-41833D01*
X43561Y-41833D01*
X43523Y-41852D01*
X43504Y-41871D01*
X43485Y-41909D01*
X41833Y-42005D02*
X41700Y-41815D01*
X41604Y-42005D02*
X41604Y-41605D01*
X41757Y-41605D01*
X41795Y-41625D01*
X41814Y-41644D01*
X41833Y-41682D01*
X41833Y-41739D01*
X41814Y-41777D01*
X41795Y-41796D01*
X41757Y-41815D01*
X41604Y-41815D01*
X41966Y-41605D02*
X42233Y-41605D01*
X42061Y-42005D01*
X34458Y-52130D02*
X34325Y-51940D01*
X34229Y-52130D02*
X34229Y-51730D01*
X34382Y-51730D01*
X34420Y-51750D01*
X34439Y-51769D01*
X34458Y-51807D01*
X34458Y-51864D01*
X34439Y-51902D01*
X34420Y-51921D01*
X34382Y-51940D01*
X34229Y-51940D01*
X34686Y-51902D02*
X34648Y-51883D01*
X34629Y-51864D01*
X34610Y-51826D01*
X34610Y-51807D01*
X34629Y-51769D01*
X34648Y-51750D01*
X34686Y-51730D01*
X34763Y-51730D01*
X34801Y-51750D01*
X34820Y-51769D01*
X34839Y-51807D01*
X34839Y-51826D01*
X34820Y-51864D01*
X34801Y-51883D01*
X34763Y-51902D01*
X34686Y-51902D01*
X34648Y-51921D01*
X34629Y-51940D01*
X34610Y-51978D01*
X34610Y-52054D01*
X34629Y-52092D01*
X34648Y-52111D01*
X34686Y-52130D01*
X34763Y-52130D01*
X34801Y-52111D01*
X34820Y-52092D01*
X34839Y-52054D01*
X34839Y-51978D01*
X34820Y-51940D01*
X34801Y-51921D01*
X34763Y-51902D01*
X34458Y-50630D02*
X34325Y-50440D01*
X34229Y-50630D02*
X34229Y-50230D01*
X34382Y-50230D01*
X34420Y-50250D01*
X34439Y-50269D01*
X34458Y-50307D01*
X34458Y-50364D01*
X34439Y-50402D01*
X34420Y-50421D01*
X34382Y-50440D01*
X34229Y-50440D01*
X34648Y-50630D02*
X34725Y-50630D01*
X34763Y-50611D01*
X34782Y-50592D01*
X34820Y-50535D01*
X34839Y-50459D01*
X34839Y-50307D01*
X34820Y-50269D01*
X34801Y-50250D01*
X34763Y-50230D01*
X34686Y-50230D01*
X34648Y-50250D01*
X34629Y-50269D01*
X34610Y-50307D01*
X34610Y-50402D01*
X34629Y-50440D01*
X34648Y-50459D01*
X34686Y-50478D01*
X34763Y-50478D01*
X34801Y-50459D01*
X34820Y-50440D01*
X34839Y-50402D01*
X34492Y-53680D02*
X34359Y-53490D01*
X34264Y-53680D02*
X34264Y-53280D01*
X34416Y-53280D01*
X34454Y-53300D01*
X34473Y-53319D01*
X34492Y-53357D01*
X34492Y-53414D01*
X34473Y-53452D01*
X34454Y-53471D01*
X34416Y-53490D01*
X34264Y-53490D01*
X34873Y-53680D02*
X34645Y-53680D01*
X34759Y-53680D02*
X34759Y-53280D01*
X34721Y-53338D01*
X34683Y-53376D01*
X34645Y-53395D01*
X35121Y-53280D02*
X35159Y-53280D01*
X35197Y-53300D01*
X35216Y-53319D01*
X35235Y-53357D01*
X35254Y-53433D01*
X35254Y-53528D01*
X35235Y-53604D01*
X35216Y-53642D01*
X35197Y-53661D01*
X35159Y-53680D01*
X35121Y-53680D01*
X35083Y-53661D01*
X35064Y-53642D01*
X35045Y-53604D01*
X35026Y-53528D01*
X35026Y-53433D01*
X35045Y-53357D01*
X35064Y-53319D01*
X35083Y-53300D01*
X35121Y-53280D01*
X33492Y-57780D02*
X33359Y-57590D01*
X33264Y-57780D02*
X33264Y-57380D01*
X33416Y-57380D01*
X33454Y-57400D01*
X33473Y-57419D01*
X33492Y-57457D01*
X33492Y-57514D01*
X33473Y-57552D01*
X33454Y-57571D01*
X33416Y-57590D01*
X33264Y-57590D01*
X33873Y-57780D02*
X33645Y-57780D01*
X33759Y-57780D02*
X33759Y-57380D01*
X33721Y-57438D01*
X33683Y-57476D01*
X33645Y-57495D01*
X34254Y-57780D02*
X34026Y-57780D01*
X34140Y-57780D02*
X34140Y-57380D01*
X34102Y-57438D01*
X34064Y-57476D01*
X34026Y-57495D01*
X45792Y-52105D02*
X45659Y-51915D01*
X45564Y-52105D02*
X45564Y-51705D01*
X45716Y-51705D01*
X45754Y-51725D01*
X45773Y-51744D01*
X45792Y-51782D01*
X45792Y-51839D01*
X45773Y-51877D01*
X45754Y-51896D01*
X45716Y-51915D01*
X45564Y-51915D01*
X46173Y-52105D02*
X45945Y-52105D01*
X46059Y-52105D02*
X46059Y-51705D01*
X46021Y-51763D01*
X45983Y-51801D01*
X45945Y-51820D01*
X46326Y-51744D02*
X46345Y-51725D01*
X46383Y-51705D01*
X46478Y-51705D01*
X46516Y-51725D01*
X46535Y-51744D01*
X46554Y-51782D01*
X46554Y-51820D01*
X46535Y-51877D01*
X46307Y-52105D01*
X46554Y-52105D01*
X45467Y-52830D02*
X45334Y-52640D01*
X45239Y-52830D02*
X45239Y-52430D01*
X45391Y-52430D01*
X45429Y-52450D01*
X45448Y-52469D01*
X45467Y-52507D01*
X45467Y-52564D01*
X45448Y-52602D01*
X45429Y-52621D01*
X45391Y-52640D01*
X45239Y-52640D01*
X45848Y-52830D02*
X45620Y-52830D01*
X45734Y-52830D02*
X45734Y-52430D01*
X45696Y-52488D01*
X45658Y-52526D01*
X45620Y-52545D01*
X45982Y-52430D02*
X46229Y-52430D01*
X46096Y-52583D01*
X46153Y-52583D01*
X46191Y-52602D01*
X46210Y-52621D01*
X46229Y-52659D01*
X46229Y-52754D01*
X46210Y-52792D01*
X46191Y-52811D01*
X46153Y-52830D01*
X46039Y-52830D01*
X46001Y-52811D01*
X45982Y-52792D01*
X35295Y-47080D02*
X35295Y-47404D01*
X35314Y-47442D01*
X35333Y-47461D01*
X35371Y-47480D01*
X35447Y-47480D01*
X35485Y-47461D01*
X35504Y-47442D01*
X35523Y-47404D01*
X35523Y-47080D01*
X35923Y-47480D02*
X35695Y-47480D01*
X35809Y-47480D02*
X35809Y-47080D01*
X35771Y-47138D01*
X35733Y-47176D01*
X35695Y-47195D01*
X47495Y-58380D02*
X47495Y-58704D01*
X47514Y-58742D01*
X47533Y-58761D01*
X47571Y-58780D01*
X47647Y-58780D01*
X47685Y-58761D01*
X47704Y-58742D01*
X47723Y-58704D01*
X47723Y-58380D01*
X47895Y-58419D02*
X47914Y-58400D01*
X47952Y-58380D01*
X48047Y-58380D01*
X48085Y-58400D01*
X48104Y-58419D01*
X48123Y-58457D01*
X48123Y-58495D01*
X48104Y-58552D01*
X47876Y-58780D01*
X48123Y-58780D01*
X35495Y-53680D02*
X35495Y-54004D01*
X35514Y-54042D01*
X35533Y-54061D01*
X35571Y-54080D01*
X35647Y-54080D01*
X35685Y-54061D01*
X35704Y-54042D01*
X35723Y-54004D01*
X35723Y-53680D01*
X35876Y-53680D02*
X36123Y-53680D01*
X35990Y-53833D01*
X36047Y-53833D01*
X36085Y-53852D01*
X36104Y-53871D01*
X36123Y-53909D01*
X36123Y-54004D01*
X36104Y-54042D01*
X36085Y-54061D01*
X36047Y-54080D01*
X35933Y-54080D01*
X35895Y-54061D01*
X35876Y-54042D01*
X43945Y-58380D02*
X43945Y-58704D01*
X43964Y-58742D01*
X43983Y-58761D01*
X44021Y-58780D01*
X44097Y-58780D01*
X44135Y-58761D01*
X44154Y-58742D01*
X44173Y-58704D01*
X44173Y-58380D01*
X44535Y-58514D02*
X44535Y-58780D01*
X44440Y-58361D02*
X44345Y-58647D01*
X44592Y-58647D01*
X40695Y-51180D02*
X40695Y-51504D01*
X40714Y-51542D01*
X40733Y-51561D01*
X40771Y-51580D01*
X40847Y-51580D01*
X40885Y-51561D01*
X40904Y-51542D01*
X40923Y-51504D01*
X40923Y-51180D01*
X41304Y-51180D02*
X41114Y-51180D01*
X41095Y-51371D01*
X41114Y-51352D01*
X41152Y-51333D01*
X41247Y-51333D01*
X41285Y-51352D01*
X41304Y-51371D01*
X41323Y-51409D01*
X41323Y-51504D01*
X41304Y-51542D01*
X41285Y-51561D01*
X41247Y-51580D01*
X41152Y-51580D01*
X41114Y-51561D01*
X41095Y-51542D01*
X41820Y-58630D02*
X41820Y-58230D01*
X42048Y-58630D01*
X42048Y-58230D01*
X42410Y-58230D02*
X42334Y-58230D01*
X42296Y-58250D01*
X42277Y-58269D01*
X42239Y-58326D01*
X42220Y-58402D01*
X42220Y-58554D01*
X42239Y-58592D01*
X42258Y-58611D01*
X42296Y-58630D01*
X42372Y-58630D01*
X42410Y-58611D01*
X42429Y-58592D01*
X42448Y-58554D01*
X42448Y-58459D01*
X42429Y-58421D01*
X42410Y-58402D01*
X42372Y-58383D01*
X42296Y-58383D01*
X42258Y-58402D01*
X42239Y-58421D01*
X42220Y-58459D01*
X34745Y-58805D02*
X34745Y-58405D01*
X34973Y-58805D01*
X34973Y-58405D01*
X35354Y-58405D02*
X35164Y-58405D01*
X35145Y-58596D01*
X35164Y-58577D01*
X35202Y-58558D01*
X35297Y-58558D01*
X35335Y-58577D01*
X35354Y-58596D01*
X35373Y-58634D01*
X35373Y-58729D01*
X35354Y-58767D01*
X35335Y-58786D01*
X35297Y-58805D01*
X35202Y-58805D01*
X35164Y-58786D01*
X35145Y-58767D01*
X33470Y-58955D02*
X33470Y-58555D01*
X33698Y-58955D01*
X33698Y-58555D01*
X33851Y-58555D02*
X34117Y-58555D01*
X33946Y-58955D01*
X48870Y-59030D02*
X48870Y-58630D01*
X49098Y-59030D01*
X49098Y-58630D01*
X49346Y-58802D02*
X49308Y-58783D01*
X49289Y-58764D01*
X49270Y-58726D01*
X49270Y-58707D01*
X49289Y-58669D01*
X49308Y-58650D01*
X49346Y-58630D01*
X49422Y-58630D01*
X49460Y-58650D01*
X49479Y-58669D01*
X49498Y-58707D01*
X49498Y-58726D01*
X49479Y-58764D01*
X49460Y-58783D01*
X49422Y-58802D01*
X49346Y-58802D01*
X49308Y-58821D01*
X49289Y-58840D01*
X49270Y-58878D01*
X49270Y-58954D01*
X49289Y-58992D01*
X49308Y-59011D01*
X49346Y-59030D01*
X49422Y-59030D01*
X49460Y-59011D01*
X49479Y-58992D01*
X49498Y-58954D01*
X49498Y-58878D01*
X49479Y-58840D01*
X49460Y-58821D01*
X49422Y-58802D01*
M02*
