M48
;DRILL file {kicad (2014-jan-25)-product} date Wed 09 Jul 2014 11:31:49 PM PDT
;FORMAT={-:-/ absolute / metric / decimal}
FMAT,2
METRIC,TZ
T1C0.635
T2C0.800
T3C0.813
T4C1.001
T5C1.016
T6C3.175
T7C3.800
%
G90
G05
M71
T1
X80.899Y-128.143
X81.661Y-124.777
X82.423Y-144.844
X83.82Y-141.605
X85.09Y-106.68
X86.233Y-119.38
X86.36Y-126.365
X86.36Y-130.175
X86.36Y-133.985
X88.9Y-107.95
X88.9Y-144.145
X88.9Y-146.05
X88.9Y-151.13
X89.408Y-140.208
X90.805Y-107.95
X91.186Y-129.731
X91.44Y-138.811
X92.773Y-116.967
X93.218Y-126.809
X94.742Y-112.459
X96.266Y-114.3
X96.52Y-129.731
X97.218Y-104.267
X97.79Y-121.285
X97.98Y-126.809
X99.568Y-150.495
X99.695Y-128.333
X99.695Y-131.191
X100.901Y-120.269
X100.965Y-138.43
X100.965Y-144.145
X100.965Y-146.05
X100.965Y-151.765
X101.6Y-135.255
X102.235Y-123.825
X102.235Y-128.905
X102.235Y-132.08
X102.235Y-139.7
X104.14Y-121.158
X107.251Y-106.553
X107.315Y-123.825
X107.315Y-128.905
X107.569Y-109.22
X108.585Y-148.907
X109.22Y-144.145
X109.347Y-141.605
X109.474Y-147.955
X110.109Y-111.125
X110.49Y-135.763
X110.871Y-137.477
X111.95Y-111.569
X114.046Y-149.86
X114.109Y-105.474
X114.109Y-111.569
X114.109Y-115.697
X114.681Y-151.13
X115.062Y-152.273
X116.078Y-113.093
X116.84Y-125.476
X117.411Y-137.477
X118.3Y-139.065
X118.745Y-144.78
X119.888Y-128.524
X119.888Y-132.08
X120.244Y-138.481
X120.65Y-147.955
X123.139Y-135.89
X123.952Y-116.84
X124.46Y-111.76
X124.777Y-109.664
X125.73Y-148.145
T2
X93.218Y-131.826
X93.218Y-134.366
X99.695Y-114.3
X99.695Y-116.84
X104.14Y-114.3
X104.14Y-116.84
X110.49Y-118.11
X113.03Y-118.11
T3
X86.36Y-139.065
X86.36Y-141.605
X86.36Y-144.145
X86.36Y-146.685
X93.98Y-139.065
X93.98Y-141.605
X93.98Y-144.145
X93.98Y-146.685
X96.52Y-132.715
X96.52Y-135.255
X96.52Y-137.795
X96.52Y-140.335
X96.52Y-142.875
X96.52Y-145.415
X96.52Y-147.955
X96.52Y-150.495
X104.14Y-132.715
X104.14Y-135.255
X104.14Y-137.795
X104.14Y-140.335
X104.14Y-142.875
X104.14Y-145.415
X104.14Y-147.955
X104.14Y-150.495
X106.68Y-139.065
X106.68Y-141.605
X106.68Y-144.145
X106.68Y-146.685
X114.3Y-139.065
X114.3Y-141.605
X114.3Y-144.145
X114.3Y-146.685
X116.84Y-139.065
X116.84Y-141.605
X116.84Y-144.145
X116.84Y-146.685
X124.46Y-139.065
X124.46Y-141.605
X124.46Y-144.145
X124.46Y-146.685
T4
X78.755Y-126.238
X78.755Y-130.048
X78.819Y-133.985
X83.185Y-137.874
X83.185Y-148.034
X87.249Y-104.917
X87.249Y-115.077
X88.915Y-126.238
X88.915Y-130.048
X88.979Y-133.985
X90.995Y-104.917
X90.995Y-115.077
X94.678Y-104.917
X94.678Y-115.077
X106.601Y-135.636
X108.013Y-104.727
X108.013Y-114.887
X111.76Y-121.285
X111.76Y-123.825
X111.76Y-126.365
X111.95Y-104.79
X111.95Y-114.95
X116.078Y-104.854
X116.078Y-115.014
X116.205Y-119.301
X116.205Y-129.461
X116.761Y-135.636
X120.015Y-125.809
X120.015Y-135.969
T5
X78.549Y-151.511
X78.613Y-140.144
X78.613Y-142.684
X78.613Y-145.225
X78.613Y-147.764
X81.09Y-151.511
X81.28Y-105.41
X81.28Y-107.95
X81.28Y-110.49
X81.28Y-113.03
X81.28Y-115.57
X81.28Y-118.11
X81.28Y-120.65
X81.28Y-123.19
X83.629Y-151.511
X83.82Y-105.41
X83.82Y-107.95
X83.82Y-110.49
X83.82Y-113.03
X83.82Y-115.57
X83.82Y-118.11
X83.82Y-120.65
X83.82Y-123.19
X86.169Y-151.511
X91.44Y-150.495
X93.98Y-150.495
X107.95Y-132.08
X108.458Y-150.685
X110.49Y-132.08
X110.998Y-150.685
X113.03Y-132.08
X117.03Y-151.575
X119.38Y-105.41
X119.38Y-107.95
X119.38Y-110.49
X119.38Y-113.03
X119.38Y-115.57
X119.38Y-118.11
X119.38Y-120.65
X119.38Y-123.19
X119.57Y-151.575
X121.92Y-105.41
X121.92Y-107.95
X121.92Y-110.49
X121.92Y-113.03
X121.92Y-115.57
X121.92Y-118.11
X121.92Y-120.65
X121.92Y-123.19
X122.11Y-151.575
X123.825Y-126.365
X123.825Y-128.905
X123.825Y-131.445
X123.825Y-133.985
X124.65Y-151.575
T6
X101.6Y-106.68
T7
X94.996Y-123.825
T0
M30
