%FSLAX34Y34*%
G04 Gerber Fmt 3.4, Leading zero omitted, Abs format*
G04 (created by PCBNEW (2014-jan-25)-product) date Wed 02 Jul 2014 11:59:02 PM PDT*
%MOIN*%
G01*
G70*
G90*
G04 APERTURE LIST*
%ADD10C,0.003937*%
%ADD11R,0.068000X0.068000*%
%ADD12O,0.068000X0.068000*%
%ADD13C,0.059100*%
%ADD14C,0.068000*%
%ADD15C,0.078700*%
%ADD16O,0.137800X0.066900*%
%ADD17C,0.149600*%
%ADD18R,0.055000X0.055000*%
%ADD19C,0.055000*%
%ADD20R,0.080000X0.080000*%
%ADD21O,0.080000X0.080000*%
G04 APERTURE END LIST*
G54D10*
G54D11*
X32000Y-41500D03*
G54D12*
X33000Y-41500D03*
X32000Y-42500D03*
X33000Y-42500D03*
X32000Y-43500D03*
X33000Y-43500D03*
X32000Y-44500D03*
X33000Y-44500D03*
X32000Y-45500D03*
X33000Y-45500D03*
X32000Y-46500D03*
X33000Y-46500D03*
X32000Y-47500D03*
X33000Y-47500D03*
X32000Y-48500D03*
X33000Y-48500D03*
G54D11*
X47000Y-41500D03*
G54D12*
X48000Y-41500D03*
X47000Y-42500D03*
X48000Y-42500D03*
X47000Y-43500D03*
X48000Y-43500D03*
X47000Y-44500D03*
X48000Y-44500D03*
X47000Y-45500D03*
X48000Y-45500D03*
X47000Y-46500D03*
X48000Y-46500D03*
X47000Y-47500D03*
X48000Y-47500D03*
X47000Y-48500D03*
X48000Y-48500D03*
G54D13*
X43500Y-46500D03*
X44500Y-46500D03*
X39200Y-45900D03*
X39200Y-44900D03*
X41100Y-46000D03*
X41100Y-45000D03*
X36700Y-52900D03*
X36700Y-51900D03*
G54D11*
X42500Y-52000D03*
G54D14*
X43500Y-52000D03*
X44500Y-52000D03*
G54D11*
X48750Y-52750D03*
G54D12*
X48750Y-51750D03*
X48750Y-50750D03*
X48750Y-49750D03*
G54D11*
X30950Y-58175D03*
G54D12*
X30950Y-57175D03*
X30950Y-56175D03*
X30950Y-55175D03*
G54D15*
X45750Y-50969D03*
X45750Y-46969D03*
X45700Y-41281D03*
X45700Y-45281D03*
X37275Y-41306D03*
X37275Y-45306D03*
X35825Y-41306D03*
X35825Y-45306D03*
X34350Y-41306D03*
X34350Y-45306D03*
X44075Y-41256D03*
X44075Y-45256D03*
X42525Y-41231D03*
X42525Y-45231D03*
X31006Y-51200D03*
X35006Y-51200D03*
X31006Y-49700D03*
X35006Y-49700D03*
X31031Y-52750D03*
X35031Y-52750D03*
X32750Y-54281D03*
X32750Y-58281D03*
X47250Y-49531D03*
X47250Y-53531D03*
X45969Y-53400D03*
X41969Y-53400D03*
G54D16*
X44000Y-48750D03*
X44000Y-49750D03*
X44000Y-47750D03*
G54D17*
X37400Y-48750D03*
G54D18*
X46000Y-54750D03*
G54D19*
X46000Y-55750D03*
X46000Y-56750D03*
X46000Y-57750D03*
X49000Y-57750D03*
X49000Y-56750D03*
X49000Y-55750D03*
X49000Y-54750D03*
G54D18*
X34000Y-54750D03*
G54D19*
X34000Y-55750D03*
X34000Y-56750D03*
X34000Y-57750D03*
X37000Y-57750D03*
X37000Y-56750D03*
X37000Y-55750D03*
X37000Y-54750D03*
G54D18*
X42000Y-54750D03*
G54D19*
X42000Y-55750D03*
X42000Y-56750D03*
X42000Y-57750D03*
X45000Y-57750D03*
X45000Y-56750D03*
X45000Y-55750D03*
X45000Y-54750D03*
G54D18*
X38000Y-52250D03*
G54D19*
X38000Y-53250D03*
X38000Y-54250D03*
X38000Y-55250D03*
X38000Y-56250D03*
X38000Y-57250D03*
X38000Y-58250D03*
X38000Y-59250D03*
X41000Y-59250D03*
X41000Y-58250D03*
X41000Y-57250D03*
X41000Y-56250D03*
X41000Y-55250D03*
X41000Y-54250D03*
X41000Y-53250D03*
X41000Y-52250D03*
G54D20*
X42700Y-59325D03*
G54D21*
X43700Y-59325D03*
G54D20*
X36000Y-59250D03*
G54D21*
X37000Y-59250D03*
G54D11*
X30925Y-59650D03*
G54D12*
X31925Y-59650D03*
X32925Y-59650D03*
X33925Y-59650D03*
G54D11*
X46075Y-59675D03*
G54D12*
X47075Y-59675D03*
X48075Y-59675D03*
X49075Y-59675D03*
M02*
