%FSLAX34Y34*%
G04 Gerber Fmt 3.4, Leading zero omitted, Abs format*
G04 (created by PCBNEW (2014-jan-25)-product) date Wed 09 Jul 2014 11:31:52 PM PDT*
%MOIN*%
G01*
G70*
G90*
G04 APERTURE LIST*
%ADD10C,0.003937*%
%ADD11C,0.008000*%
%ADD12C,0.000100*%
G04 APERTURE END LIST*
G54D10*
G54D11*
X42210Y-51321D02*
X42210Y-50721D01*
X41953Y-51321D02*
X41953Y-51007D01*
X41982Y-50950D01*
X42039Y-50921D01*
X42125Y-50921D01*
X42182Y-50950D01*
X42210Y-50978D01*
X41410Y-51321D02*
X41410Y-51007D01*
X41439Y-50950D01*
X41496Y-50921D01*
X41610Y-50921D01*
X41667Y-50950D01*
X41410Y-51292D02*
X41467Y-51321D01*
X41610Y-51321D01*
X41667Y-51292D01*
X41696Y-51235D01*
X41696Y-51178D01*
X41667Y-51121D01*
X41610Y-51092D01*
X41467Y-51092D01*
X41410Y-51064D01*
X41125Y-51321D02*
X41125Y-50921D01*
X41125Y-51035D02*
X41096Y-50978D01*
X41067Y-50950D01*
X41010Y-50921D01*
X40953Y-50921D01*
X40496Y-51321D02*
X40496Y-50721D01*
X40496Y-51292D02*
X40553Y-51321D01*
X40667Y-51321D01*
X40724Y-51292D01*
X40753Y-51264D01*
X40782Y-51207D01*
X40782Y-51035D01*
X40753Y-50978D01*
X40724Y-50950D01*
X40667Y-50921D01*
X40553Y-50921D01*
X40496Y-50950D01*
X40267Y-50921D02*
X40153Y-51321D01*
X40039Y-51035D01*
X39925Y-51321D01*
X39810Y-50921D01*
X39325Y-51321D02*
X39325Y-51007D01*
X39353Y-50950D01*
X39410Y-50921D01*
X39525Y-50921D01*
X39582Y-50950D01*
X39325Y-51292D02*
X39382Y-51321D01*
X39525Y-51321D01*
X39582Y-51292D01*
X39610Y-51235D01*
X39610Y-51178D01*
X39582Y-51121D01*
X39525Y-51092D01*
X39382Y-51092D01*
X39325Y-51064D01*
X39039Y-51321D02*
X39039Y-50921D01*
X39039Y-51035D02*
X39010Y-50978D01*
X38982Y-50950D01*
X38925Y-50921D01*
X38867Y-50921D01*
X38439Y-51292D02*
X38496Y-51321D01*
X38610Y-51321D01*
X38667Y-51292D01*
X38696Y-51235D01*
X38696Y-51007D01*
X38667Y-50950D01*
X38610Y-50921D01*
X38496Y-50921D01*
X38439Y-50950D01*
X38410Y-51007D01*
X38410Y-51064D01*
X38696Y-51121D01*
X42657Y-50521D02*
X42714Y-50492D01*
X42742Y-50464D01*
X42771Y-50407D01*
X42771Y-50235D01*
X42742Y-50178D01*
X42714Y-50150D01*
X42657Y-50121D01*
X42571Y-50121D01*
X42514Y-50150D01*
X42485Y-50178D01*
X42457Y-50235D01*
X42457Y-50407D01*
X42485Y-50464D01*
X42514Y-50492D01*
X42571Y-50521D01*
X42657Y-50521D01*
X42200Y-50121D02*
X42200Y-50721D01*
X42200Y-50150D02*
X42142Y-50121D01*
X42028Y-50121D01*
X41971Y-50150D01*
X41942Y-50178D01*
X41914Y-50235D01*
X41914Y-50407D01*
X41942Y-50464D01*
X41971Y-50492D01*
X42028Y-50521D01*
X42142Y-50521D01*
X42200Y-50492D01*
X41428Y-50492D02*
X41485Y-50521D01*
X41600Y-50521D01*
X41657Y-50492D01*
X41685Y-50435D01*
X41685Y-50207D01*
X41657Y-50150D01*
X41600Y-50121D01*
X41485Y-50121D01*
X41428Y-50150D01*
X41400Y-50207D01*
X41400Y-50264D01*
X41685Y-50321D01*
X41142Y-50121D02*
X41142Y-50521D01*
X41142Y-50178D02*
X41114Y-50150D01*
X41057Y-50121D01*
X40971Y-50121D01*
X40914Y-50150D01*
X40885Y-50207D01*
X40885Y-50521D01*
X40171Y-50492D02*
X40114Y-50521D01*
X40000Y-50521D01*
X39942Y-50492D01*
X39914Y-50435D01*
X39914Y-50407D01*
X39942Y-50350D01*
X40000Y-50321D01*
X40085Y-50321D01*
X40142Y-50292D01*
X40171Y-50235D01*
X40171Y-50207D01*
X40142Y-50150D01*
X40085Y-50121D01*
X40000Y-50121D01*
X39942Y-50150D01*
X39571Y-50521D02*
X39628Y-50492D01*
X39657Y-50464D01*
X39685Y-50407D01*
X39685Y-50235D01*
X39657Y-50178D01*
X39628Y-50150D01*
X39571Y-50121D01*
X39485Y-50121D01*
X39428Y-50150D01*
X39400Y-50178D01*
X39371Y-50235D01*
X39371Y-50407D01*
X39400Y-50464D01*
X39428Y-50492D01*
X39485Y-50521D01*
X39571Y-50521D01*
X38857Y-50121D02*
X38857Y-50521D01*
X39114Y-50121D02*
X39114Y-50435D01*
X39085Y-50492D01*
X39028Y-50521D01*
X38942Y-50521D01*
X38885Y-50492D01*
X38857Y-50464D01*
X38571Y-50521D02*
X38571Y-50121D01*
X38571Y-50235D02*
X38542Y-50178D01*
X38514Y-50150D01*
X38457Y-50121D01*
X38400Y-50121D01*
X37942Y-50492D02*
X38000Y-50521D01*
X38114Y-50521D01*
X38171Y-50492D01*
X38200Y-50464D01*
X38228Y-50407D01*
X38228Y-50235D01*
X38200Y-50178D01*
X38171Y-50150D01*
X38114Y-50121D01*
X38000Y-50121D01*
X37942Y-50150D01*
X37457Y-50492D02*
X37514Y-50521D01*
X37628Y-50521D01*
X37685Y-50492D01*
X37714Y-50435D01*
X37714Y-50207D01*
X37685Y-50150D01*
X37628Y-50121D01*
X37514Y-50121D01*
X37457Y-50150D01*
X37428Y-50207D01*
X37428Y-50264D01*
X37714Y-50321D01*
X38477Y-43080D02*
X38610Y-42890D01*
X38705Y-43080D02*
X38705Y-42680D01*
X38553Y-42680D01*
X38515Y-42700D01*
X38496Y-42719D01*
X38477Y-42757D01*
X38477Y-42814D01*
X38496Y-42852D01*
X38515Y-42871D01*
X38553Y-42890D01*
X38705Y-42890D01*
X38153Y-43061D02*
X38191Y-43080D01*
X38267Y-43080D01*
X38305Y-43061D01*
X38324Y-43023D01*
X38324Y-42871D01*
X38305Y-42833D01*
X38267Y-42814D01*
X38191Y-42814D01*
X38153Y-42833D01*
X38134Y-42871D01*
X38134Y-42909D01*
X38324Y-42947D01*
X38001Y-42814D02*
X37905Y-43080D01*
X37810Y-42814D01*
X37658Y-43042D02*
X37639Y-43061D01*
X37658Y-43080D01*
X37677Y-43061D01*
X37658Y-43042D01*
X37658Y-43080D01*
X37182Y-42966D02*
X36991Y-42966D01*
X37220Y-43080D02*
X37086Y-42680D01*
X36953Y-43080D01*
X36534Y-42719D02*
X36515Y-42700D01*
X36477Y-42680D01*
X36382Y-42680D01*
X36344Y-42700D01*
X36325Y-42719D01*
X36305Y-42757D01*
X36305Y-42795D01*
X36325Y-42852D01*
X36553Y-43080D01*
X36305Y-43080D01*
X35963Y-42814D02*
X35963Y-43080D01*
X36058Y-42661D02*
X36153Y-42947D01*
X35905Y-42947D01*
X35639Y-42680D02*
X35639Y-42966D01*
X35658Y-43023D01*
X35696Y-43061D01*
X35753Y-43080D01*
X35791Y-43080D01*
X35277Y-42814D02*
X35277Y-43080D01*
X35448Y-42814D02*
X35448Y-43023D01*
X35429Y-43061D01*
X35391Y-43080D01*
X35334Y-43080D01*
X35296Y-43061D01*
X35277Y-43042D01*
X35029Y-43080D02*
X35067Y-43061D01*
X35086Y-43023D01*
X35086Y-42680D01*
X34896Y-42719D02*
X34877Y-42700D01*
X34839Y-42680D01*
X34744Y-42680D01*
X34705Y-42700D01*
X34686Y-42719D01*
X34667Y-42757D01*
X34667Y-42795D01*
X34686Y-42852D01*
X34915Y-43080D01*
X34667Y-43080D01*
X34420Y-42680D02*
X34382Y-42680D01*
X34344Y-42700D01*
X34325Y-42719D01*
X34305Y-42757D01*
X34286Y-42833D01*
X34286Y-42928D01*
X34305Y-43004D01*
X34325Y-43042D01*
X34344Y-43061D01*
X34382Y-43080D01*
X34420Y-43080D01*
X34458Y-43061D01*
X34477Y-43042D01*
X34496Y-43004D01*
X34515Y-42928D01*
X34515Y-42833D01*
X34496Y-42757D01*
X34477Y-42719D01*
X34458Y-42700D01*
X34420Y-42680D01*
X33905Y-43080D02*
X34134Y-43080D01*
X34020Y-43080D02*
X34020Y-42680D01*
X34058Y-42738D01*
X34096Y-42776D01*
X34134Y-42795D01*
X33563Y-42814D02*
X33563Y-43080D01*
X33658Y-42661D02*
X33753Y-42947D01*
X33505Y-42947D01*
X42398Y-43780D02*
X42398Y-43380D01*
X42265Y-43666D01*
X42132Y-43380D01*
X42132Y-43780D01*
X41941Y-43780D02*
X41941Y-43514D01*
X41941Y-43380D02*
X41960Y-43400D01*
X41941Y-43419D01*
X41922Y-43400D01*
X41941Y-43380D01*
X41941Y-43419D01*
X41751Y-43514D02*
X41751Y-43780D01*
X41751Y-43552D02*
X41732Y-43533D01*
X41694Y-43514D01*
X41636Y-43514D01*
X41598Y-43533D01*
X41579Y-43571D01*
X41579Y-43780D01*
X41389Y-43780D02*
X41389Y-43514D01*
X41389Y-43380D02*
X41408Y-43400D01*
X41389Y-43419D01*
X41370Y-43400D01*
X41389Y-43380D01*
X41389Y-43419D01*
X40760Y-43571D02*
X40703Y-43590D01*
X40684Y-43609D01*
X40665Y-43647D01*
X40665Y-43704D01*
X40684Y-43742D01*
X40703Y-43761D01*
X40741Y-43780D01*
X40894Y-43780D01*
X40894Y-43380D01*
X40760Y-43380D01*
X40722Y-43400D01*
X40703Y-43419D01*
X40684Y-43457D01*
X40684Y-43495D01*
X40703Y-43533D01*
X40722Y-43552D01*
X40760Y-43571D01*
X40894Y-43571D01*
X40494Y-43780D02*
X40494Y-43514D01*
X40494Y-43590D02*
X40474Y-43552D01*
X40455Y-43533D01*
X40417Y-43514D01*
X40379Y-43514D01*
X40246Y-43780D02*
X40246Y-43514D01*
X40246Y-43380D02*
X40265Y-43400D01*
X40246Y-43419D01*
X40227Y-43400D01*
X40246Y-43380D01*
X40246Y-43419D01*
X39884Y-43780D02*
X39884Y-43380D01*
X39884Y-43761D02*
X39922Y-43780D01*
X39998Y-43780D01*
X40036Y-43761D01*
X40055Y-43742D01*
X40074Y-43704D01*
X40074Y-43590D01*
X40055Y-43552D01*
X40036Y-43533D01*
X39998Y-43514D01*
X39922Y-43514D01*
X39884Y-43533D01*
X39522Y-43514D02*
X39522Y-43838D01*
X39541Y-43876D01*
X39560Y-43895D01*
X39598Y-43914D01*
X39655Y-43914D01*
X39694Y-43895D01*
X39522Y-43761D02*
X39560Y-43780D01*
X39636Y-43780D01*
X39674Y-43761D01*
X39694Y-43742D01*
X39713Y-43704D01*
X39713Y-43590D01*
X39694Y-43552D01*
X39674Y-43533D01*
X39636Y-43514D01*
X39560Y-43514D01*
X39522Y-43533D01*
X39179Y-43761D02*
X39217Y-43780D01*
X39294Y-43780D01*
X39332Y-43761D01*
X39351Y-43723D01*
X39351Y-43571D01*
X39332Y-43533D01*
X39294Y-43514D01*
X39217Y-43514D01*
X39179Y-43533D01*
X39160Y-43571D01*
X39160Y-43609D01*
X39351Y-43647D01*
X38684Y-43571D02*
X38551Y-43571D01*
X38494Y-43780D02*
X38684Y-43780D01*
X38684Y-43380D01*
X38494Y-43380D01*
X38322Y-43514D02*
X38322Y-43780D01*
X38322Y-43552D02*
X38303Y-43533D01*
X38265Y-43514D01*
X38208Y-43514D01*
X38170Y-43533D01*
X38151Y-43571D01*
X38151Y-43780D01*
X37789Y-43761D02*
X37827Y-43780D01*
X37903Y-43780D01*
X37941Y-43761D01*
X37960Y-43742D01*
X37979Y-43704D01*
X37979Y-43590D01*
X37960Y-43552D01*
X37941Y-43533D01*
X37903Y-43514D01*
X37827Y-43514D01*
X37789Y-43533D01*
X37560Y-43780D02*
X37598Y-43761D01*
X37617Y-43742D01*
X37636Y-43704D01*
X37636Y-43590D01*
X37617Y-43552D01*
X37598Y-43533D01*
X37560Y-43514D01*
X37503Y-43514D01*
X37465Y-43533D01*
X37446Y-43552D01*
X37427Y-43590D01*
X37427Y-43704D01*
X37446Y-43742D01*
X37465Y-43761D01*
X37503Y-43780D01*
X37560Y-43780D01*
X37084Y-43780D02*
X37084Y-43380D01*
X37084Y-43761D02*
X37122Y-43780D01*
X37198Y-43780D01*
X37236Y-43761D01*
X37255Y-43742D01*
X37274Y-43704D01*
X37274Y-43590D01*
X37255Y-43552D01*
X37236Y-43533D01*
X37198Y-43514D01*
X37122Y-43514D01*
X37084Y-43533D01*
X36741Y-43761D02*
X36779Y-43780D01*
X36855Y-43780D01*
X36894Y-43761D01*
X36913Y-43723D01*
X36913Y-43571D01*
X36894Y-43533D01*
X36855Y-43514D01*
X36779Y-43514D01*
X36741Y-43533D01*
X36722Y-43571D01*
X36722Y-43609D01*
X36913Y-43647D01*
X36551Y-43780D02*
X36551Y-43514D01*
X36551Y-43590D02*
X36532Y-43552D01*
X36513Y-43533D01*
X36474Y-43514D01*
X36436Y-43514D01*
X36322Y-43761D02*
X36284Y-43780D01*
X36208Y-43780D01*
X36170Y-43761D01*
X36151Y-43723D01*
X36151Y-43704D01*
X36170Y-43666D01*
X36208Y-43647D01*
X36265Y-43647D01*
X36303Y-43628D01*
X36322Y-43590D01*
X36322Y-43571D01*
X36303Y-43533D01*
X36265Y-43514D01*
X36208Y-43514D01*
X36170Y-43533D01*
X35694Y-43761D02*
X35636Y-43780D01*
X35541Y-43780D01*
X35503Y-43761D01*
X35484Y-43742D01*
X35465Y-43704D01*
X35465Y-43666D01*
X35484Y-43628D01*
X35503Y-43609D01*
X35541Y-43590D01*
X35617Y-43571D01*
X35655Y-43552D01*
X35675Y-43533D01*
X35694Y-43495D01*
X35694Y-43457D01*
X35675Y-43419D01*
X35655Y-43400D01*
X35617Y-43380D01*
X35522Y-43380D01*
X35465Y-43400D01*
X35236Y-43780D02*
X35275Y-43761D01*
X35294Y-43742D01*
X35313Y-43704D01*
X35313Y-43590D01*
X35294Y-43552D01*
X35275Y-43533D01*
X35236Y-43514D01*
X35179Y-43514D01*
X35141Y-43533D01*
X35122Y-43552D01*
X35103Y-43590D01*
X35103Y-43704D01*
X35122Y-43742D01*
X35141Y-43761D01*
X35179Y-43780D01*
X35236Y-43780D01*
X34932Y-43514D02*
X34932Y-43780D01*
X34932Y-43552D02*
X34913Y-43533D01*
X34875Y-43514D01*
X34817Y-43514D01*
X34779Y-43533D01*
X34760Y-43571D01*
X34760Y-43780D01*
X34398Y-43780D02*
X34398Y-43571D01*
X34417Y-43533D01*
X34455Y-43514D01*
X34532Y-43514D01*
X34570Y-43533D01*
X34398Y-43761D02*
X34436Y-43780D01*
X34532Y-43780D01*
X34570Y-43761D01*
X34589Y-43723D01*
X34589Y-43685D01*
X34570Y-43647D01*
X34532Y-43628D01*
X34436Y-43628D01*
X34398Y-43609D01*
X34208Y-43780D02*
X34208Y-43514D01*
X34208Y-43590D02*
X34189Y-43552D01*
X34170Y-43533D01*
X34132Y-43514D01*
X34094Y-43514D01*
X45008Y-60092D02*
X45027Y-60111D01*
X45084Y-60130D01*
X45122Y-60130D01*
X45179Y-60111D01*
X45217Y-60073D01*
X45236Y-60035D01*
X45255Y-59959D01*
X45255Y-59902D01*
X45236Y-59826D01*
X45217Y-59788D01*
X45179Y-59750D01*
X45122Y-59730D01*
X45084Y-59730D01*
X45027Y-59750D01*
X45008Y-59769D01*
X44779Y-60130D02*
X44817Y-60111D01*
X44836Y-60092D01*
X44855Y-60054D01*
X44855Y-59940D01*
X44836Y-59902D01*
X44817Y-59883D01*
X44779Y-59864D01*
X44722Y-59864D01*
X44684Y-59883D01*
X44665Y-59902D01*
X44646Y-59940D01*
X44646Y-60054D01*
X44665Y-60092D01*
X44684Y-60111D01*
X44722Y-60130D01*
X44779Y-60130D01*
X44474Y-59864D02*
X44474Y-60264D01*
X44474Y-59883D02*
X44436Y-59864D01*
X44360Y-59864D01*
X44322Y-59883D01*
X44303Y-59902D01*
X44284Y-59940D01*
X44284Y-60054D01*
X44303Y-60092D01*
X44322Y-60111D01*
X44360Y-60130D01*
X44436Y-60130D01*
X44474Y-60111D01*
X44151Y-59864D02*
X44055Y-60130D01*
X43960Y-59864D02*
X44055Y-60130D01*
X44094Y-60226D01*
X44113Y-60245D01*
X44151Y-60264D01*
X43808Y-60130D02*
X43808Y-59864D01*
X43808Y-59940D02*
X43789Y-59902D01*
X43770Y-59883D01*
X43732Y-59864D01*
X43694Y-59864D01*
X43560Y-60130D02*
X43560Y-59864D01*
X43560Y-59730D02*
X43579Y-59750D01*
X43560Y-59769D01*
X43541Y-59750D01*
X43560Y-59730D01*
X43560Y-59769D01*
X43198Y-59864D02*
X43198Y-60188D01*
X43217Y-60226D01*
X43236Y-60245D01*
X43274Y-60264D01*
X43332Y-60264D01*
X43370Y-60245D01*
X43198Y-60111D02*
X43236Y-60130D01*
X43313Y-60130D01*
X43351Y-60111D01*
X43370Y-60092D01*
X43389Y-60054D01*
X43389Y-59940D01*
X43370Y-59902D01*
X43351Y-59883D01*
X43313Y-59864D01*
X43236Y-59864D01*
X43198Y-59883D01*
X43008Y-60130D02*
X43008Y-59730D01*
X42836Y-60130D02*
X42836Y-59921D01*
X42855Y-59883D01*
X42894Y-59864D01*
X42951Y-59864D01*
X42989Y-59883D01*
X43008Y-59902D01*
X42703Y-59864D02*
X42551Y-59864D01*
X42646Y-59730D02*
X42646Y-60073D01*
X42627Y-60111D01*
X42589Y-60130D01*
X42551Y-60130D01*
X41998Y-60283D02*
X42017Y-60264D01*
X42055Y-60207D01*
X42074Y-60169D01*
X42094Y-60111D01*
X42113Y-60016D01*
X42113Y-59940D01*
X42094Y-59845D01*
X42074Y-59788D01*
X42055Y-59750D01*
X42017Y-59692D01*
X41998Y-59673D01*
X41675Y-60111D02*
X41713Y-60130D01*
X41789Y-60130D01*
X41827Y-60111D01*
X41846Y-60092D01*
X41865Y-60054D01*
X41865Y-59940D01*
X41846Y-59902D01*
X41827Y-59883D01*
X41789Y-59864D01*
X41713Y-59864D01*
X41675Y-59883D01*
X41541Y-60283D02*
X41522Y-60264D01*
X41484Y-60207D01*
X41465Y-60169D01*
X41446Y-60111D01*
X41427Y-60016D01*
X41427Y-59940D01*
X41446Y-59845D01*
X41465Y-59788D01*
X41484Y-59750D01*
X41522Y-59692D01*
X41541Y-59673D01*
X40951Y-59769D02*
X40932Y-59750D01*
X40894Y-59730D01*
X40798Y-59730D01*
X40760Y-59750D01*
X40741Y-59769D01*
X40722Y-59807D01*
X40722Y-59845D01*
X40741Y-59902D01*
X40970Y-60130D01*
X40722Y-60130D01*
X40475Y-59730D02*
X40436Y-59730D01*
X40398Y-59750D01*
X40379Y-59769D01*
X40360Y-59807D01*
X40341Y-59883D01*
X40341Y-59978D01*
X40360Y-60054D01*
X40379Y-60092D01*
X40398Y-60111D01*
X40436Y-60130D01*
X40475Y-60130D01*
X40513Y-60111D01*
X40532Y-60092D01*
X40551Y-60054D01*
X40570Y-59978D01*
X40570Y-59883D01*
X40551Y-59807D01*
X40532Y-59769D01*
X40513Y-59750D01*
X40475Y-59730D01*
X39960Y-60130D02*
X40189Y-60130D01*
X40075Y-60130D02*
X40075Y-59730D01*
X40113Y-59788D01*
X40151Y-59826D01*
X40189Y-59845D01*
X39617Y-59864D02*
X39617Y-60130D01*
X39713Y-59711D02*
X39808Y-59997D01*
X39560Y-59997D01*
X39141Y-59730D02*
X39046Y-60130D01*
X38970Y-59845D01*
X38894Y-60130D01*
X38798Y-59730D01*
X38475Y-60130D02*
X38475Y-59921D01*
X38494Y-59883D01*
X38532Y-59864D01*
X38608Y-59864D01*
X38646Y-59883D01*
X38475Y-60111D02*
X38513Y-60130D01*
X38608Y-60130D01*
X38646Y-60111D01*
X38665Y-60073D01*
X38665Y-60035D01*
X38646Y-59997D01*
X38608Y-59978D01*
X38513Y-59978D01*
X38475Y-59959D01*
X38322Y-59864D02*
X38227Y-60130D01*
X38132Y-59864D02*
X38227Y-60130D01*
X38265Y-60226D01*
X38284Y-60245D01*
X38322Y-60264D01*
X37979Y-59864D02*
X37979Y-60130D01*
X37979Y-59902D02*
X37960Y-59883D01*
X37922Y-59864D01*
X37865Y-59864D01*
X37827Y-59883D01*
X37808Y-59921D01*
X37808Y-60130D01*
X37465Y-60111D02*
X37503Y-60130D01*
X37579Y-60130D01*
X37617Y-60111D01*
X37636Y-60073D01*
X37636Y-59921D01*
X37617Y-59883D01*
X37579Y-59864D01*
X37503Y-59864D01*
X37465Y-59883D01*
X37446Y-59921D01*
X37446Y-59959D01*
X37636Y-59997D01*
X36760Y-59750D02*
X36798Y-59730D01*
X36855Y-59730D01*
X36913Y-59750D01*
X36951Y-59788D01*
X36970Y-59826D01*
X36989Y-59902D01*
X36989Y-59959D01*
X36970Y-60035D01*
X36951Y-60073D01*
X36913Y-60111D01*
X36855Y-60130D01*
X36817Y-60130D01*
X36760Y-60111D01*
X36741Y-60092D01*
X36741Y-59959D01*
X36817Y-59959D01*
X36570Y-60130D02*
X36570Y-59864D01*
X36570Y-59940D02*
X36551Y-59902D01*
X36532Y-59883D01*
X36494Y-59864D01*
X36455Y-59864D01*
X36151Y-60130D02*
X36151Y-59921D01*
X36170Y-59883D01*
X36208Y-59864D01*
X36284Y-59864D01*
X36322Y-59883D01*
X36151Y-60111D02*
X36189Y-60130D01*
X36284Y-60130D01*
X36322Y-60111D01*
X36341Y-60073D01*
X36341Y-60035D01*
X36322Y-59997D01*
X36284Y-59978D01*
X36189Y-59978D01*
X36151Y-59959D01*
X35960Y-60130D02*
X35960Y-59864D01*
X35960Y-59902D02*
X35941Y-59883D01*
X35903Y-59864D01*
X35846Y-59864D01*
X35808Y-59883D01*
X35789Y-59921D01*
X35789Y-60130D01*
X35789Y-59921D02*
X35770Y-59883D01*
X35732Y-59864D01*
X35675Y-59864D01*
X35636Y-59883D01*
X35617Y-59921D01*
X35617Y-60130D01*
X35370Y-60130D02*
X35408Y-60111D01*
X35427Y-60073D01*
X35427Y-59730D01*
X35217Y-60130D02*
X35217Y-59864D01*
X35217Y-59730D02*
X35236Y-59750D01*
X35217Y-59769D01*
X35198Y-59750D01*
X35217Y-59730D01*
X35217Y-59769D01*
X34855Y-60111D02*
X34894Y-60130D01*
X34970Y-60130D01*
X35008Y-60111D01*
X35027Y-60092D01*
X35046Y-60054D01*
X35046Y-59940D01*
X35027Y-59902D01*
X35008Y-59883D01*
X34970Y-59864D01*
X34894Y-59864D01*
X34855Y-59883D01*
X34684Y-60130D02*
X34684Y-59730D01*
X34513Y-60130D02*
X34513Y-59921D01*
X34532Y-59883D01*
X34570Y-59864D01*
X34627Y-59864D01*
X34665Y-59883D01*
X34684Y-59902D01*
G54D12*
G36*
X39313Y-50021D02*
X39334Y-50011D01*
X39381Y-49981D01*
X39447Y-49937D01*
X39526Y-49884D01*
X39605Y-49831D01*
X39671Y-49787D01*
X39716Y-49758D01*
X39735Y-49747D01*
X39745Y-49751D01*
X39783Y-49769D01*
X39838Y-49798D01*
X39869Y-49814D01*
X39920Y-49836D01*
X39944Y-49840D01*
X39949Y-49833D01*
X39967Y-49795D01*
X39996Y-49729D01*
X40034Y-49643D01*
X40077Y-49541D01*
X40123Y-49432D01*
X40170Y-49320D01*
X40214Y-49213D01*
X40253Y-49118D01*
X40284Y-49040D01*
X40305Y-48986D01*
X40313Y-48962D01*
X40310Y-48958D01*
X40285Y-48933D01*
X40241Y-48900D01*
X40147Y-48824D01*
X40053Y-48707D01*
X39996Y-48574D01*
X39978Y-48427D01*
X39994Y-48291D01*
X40047Y-48160D01*
X40139Y-48042D01*
X40250Y-47954D01*
X40379Y-47899D01*
X40525Y-47881D01*
X40664Y-47897D01*
X40798Y-47949D01*
X40916Y-48039D01*
X40966Y-48097D01*
X41035Y-48216D01*
X41074Y-48344D01*
X41078Y-48377D01*
X41072Y-48517D01*
X41031Y-48652D01*
X40956Y-48772D01*
X40853Y-48871D01*
X40841Y-48880D01*
X40793Y-48916D01*
X40761Y-48940D01*
X40736Y-48961D01*
X40915Y-49391D01*
X40943Y-49460D01*
X40992Y-49577D01*
X41036Y-49679D01*
X41070Y-49760D01*
X41094Y-49813D01*
X41104Y-49835D01*
X41106Y-49836D01*
X41121Y-49839D01*
X41154Y-49827D01*
X41214Y-49798D01*
X41254Y-49778D01*
X41300Y-49756D01*
X41320Y-49747D01*
X41337Y-49757D01*
X41382Y-49785D01*
X41446Y-49828D01*
X41523Y-49880D01*
X41596Y-49930D01*
X41663Y-49975D01*
X41713Y-50006D01*
X41736Y-50019D01*
X41740Y-50019D01*
X41761Y-50007D01*
X41800Y-49975D01*
X41859Y-49919D01*
X41942Y-49838D01*
X41954Y-49825D01*
X42022Y-49756D01*
X42078Y-49697D01*
X42115Y-49656D01*
X42128Y-49637D01*
X42128Y-49637D01*
X42116Y-49614D01*
X42085Y-49565D01*
X42040Y-49496D01*
X41986Y-49416D01*
X41843Y-49209D01*
X41922Y-49014D01*
X41946Y-48954D01*
X41976Y-48881D01*
X41999Y-48829D01*
X42011Y-48807D01*
X42032Y-48799D01*
X42085Y-48786D01*
X42163Y-48770D01*
X42255Y-48753D01*
X42343Y-48737D01*
X42423Y-48722D01*
X42481Y-48711D01*
X42507Y-48705D01*
X42513Y-48702D01*
X42518Y-48689D01*
X42521Y-48662D01*
X42523Y-48614D01*
X42524Y-48538D01*
X42524Y-48427D01*
X42524Y-48415D01*
X42523Y-48310D01*
X42522Y-48226D01*
X42519Y-48172D01*
X42515Y-48150D01*
X42515Y-48150D01*
X42490Y-48144D01*
X42434Y-48132D01*
X42354Y-48116D01*
X42259Y-48098D01*
X42253Y-48097D01*
X42159Y-48079D01*
X42079Y-48062D01*
X42024Y-48049D01*
X42000Y-48042D01*
X41996Y-48035D01*
X41976Y-47999D01*
X41949Y-47940D01*
X41918Y-47868D01*
X41887Y-47794D01*
X41860Y-47727D01*
X41842Y-47677D01*
X41837Y-47655D01*
X41837Y-47654D01*
X41852Y-47631D01*
X41884Y-47583D01*
X41930Y-47514D01*
X41985Y-47434D01*
X41990Y-47428D01*
X42044Y-47348D01*
X42088Y-47280D01*
X42117Y-47232D01*
X42128Y-47210D01*
X42128Y-47209D01*
X42110Y-47185D01*
X42069Y-47140D01*
X42011Y-47079D01*
X41941Y-47008D01*
X41919Y-46986D01*
X41841Y-46910D01*
X41787Y-46861D01*
X41753Y-46834D01*
X41737Y-46828D01*
X41737Y-46829D01*
X41713Y-46843D01*
X41662Y-46876D01*
X41594Y-46923D01*
X41513Y-46978D01*
X41507Y-46982D01*
X41427Y-47036D01*
X41360Y-47081D01*
X41313Y-47112D01*
X41292Y-47125D01*
X41289Y-47125D01*
X41256Y-47115D01*
X41199Y-47095D01*
X41129Y-47068D01*
X41055Y-47039D01*
X40988Y-47010D01*
X40938Y-46987D01*
X40914Y-46974D01*
X40913Y-46972D01*
X40905Y-46944D01*
X40891Y-46884D01*
X40874Y-46802D01*
X40856Y-46704D01*
X40853Y-46688D01*
X40835Y-46593D01*
X40819Y-46514D01*
X40808Y-46460D01*
X40803Y-46437D01*
X40789Y-46434D01*
X40742Y-46431D01*
X40671Y-46429D01*
X40585Y-46428D01*
X40495Y-46429D01*
X40406Y-46430D01*
X40331Y-46433D01*
X40277Y-46437D01*
X40254Y-46441D01*
X40254Y-46443D01*
X40245Y-46472D01*
X40232Y-46532D01*
X40215Y-46615D01*
X40197Y-46713D01*
X40193Y-46730D01*
X40175Y-46825D01*
X40159Y-46903D01*
X40148Y-46957D01*
X40142Y-46978D01*
X40133Y-46983D01*
X40094Y-47000D01*
X40030Y-47026D01*
X39951Y-47058D01*
X39768Y-47132D01*
X39544Y-46978D01*
X39523Y-46964D01*
X39442Y-46909D01*
X39376Y-46865D01*
X39330Y-46835D01*
X39311Y-46824D01*
X39309Y-46825D01*
X39287Y-46845D01*
X39242Y-46887D01*
X39182Y-46946D01*
X39111Y-47016D01*
X39059Y-47068D01*
X38997Y-47131D01*
X38958Y-47174D01*
X38936Y-47201D01*
X38929Y-47217D01*
X38930Y-47228D01*
X38945Y-47251D01*
X38978Y-47301D01*
X39024Y-47369D01*
X39079Y-47448D01*
X39124Y-47514D01*
X39173Y-47590D01*
X39204Y-47644D01*
X39215Y-47670D01*
X39212Y-47681D01*
X39197Y-47725D01*
X39170Y-47791D01*
X39136Y-47870D01*
X39058Y-48048D01*
X38942Y-48070D01*
X38871Y-48084D01*
X38773Y-48103D01*
X38678Y-48121D01*
X38531Y-48150D01*
X38525Y-48692D01*
X38548Y-48701D01*
X38570Y-48707D01*
X38625Y-48719D01*
X38703Y-48735D01*
X38795Y-48752D01*
X38873Y-48767D01*
X38952Y-48782D01*
X39009Y-48793D01*
X39034Y-48798D01*
X39040Y-48807D01*
X39060Y-48845D01*
X39088Y-48906D01*
X39120Y-48979D01*
X39151Y-49055D01*
X39179Y-49125D01*
X39198Y-49178D01*
X39206Y-49206D01*
X39195Y-49227D01*
X39165Y-49273D01*
X39121Y-49339D01*
X39068Y-49418D01*
X39014Y-49496D01*
X38969Y-49563D01*
X38937Y-49612D01*
X38924Y-49634D01*
X38930Y-49649D01*
X38962Y-49687D01*
X39021Y-49748D01*
X39109Y-49835D01*
X39124Y-49849D01*
X39194Y-49917D01*
X39253Y-49971D01*
X39294Y-50008D01*
X39313Y-50021D01*
X39313Y-50021D01*
G37*
X39313Y-50021D02*
X39334Y-50011D01*
X39381Y-49981D01*
X39447Y-49937D01*
X39526Y-49884D01*
X39605Y-49831D01*
X39671Y-49787D01*
X39716Y-49758D01*
X39735Y-49747D01*
X39745Y-49751D01*
X39783Y-49769D01*
X39838Y-49798D01*
X39869Y-49814D01*
X39920Y-49836D01*
X39944Y-49840D01*
X39949Y-49833D01*
X39967Y-49795D01*
X39996Y-49729D01*
X40034Y-49643D01*
X40077Y-49541D01*
X40123Y-49432D01*
X40170Y-49320D01*
X40214Y-49213D01*
X40253Y-49118D01*
X40284Y-49040D01*
X40305Y-48986D01*
X40313Y-48962D01*
X40310Y-48958D01*
X40285Y-48933D01*
X40241Y-48900D01*
X40147Y-48824D01*
X40053Y-48707D01*
X39996Y-48574D01*
X39978Y-48427D01*
X39994Y-48291D01*
X40047Y-48160D01*
X40139Y-48042D01*
X40250Y-47954D01*
X40379Y-47899D01*
X40525Y-47881D01*
X40664Y-47897D01*
X40798Y-47949D01*
X40916Y-48039D01*
X40966Y-48097D01*
X41035Y-48216D01*
X41074Y-48344D01*
X41078Y-48377D01*
X41072Y-48517D01*
X41031Y-48652D01*
X40956Y-48772D01*
X40853Y-48871D01*
X40841Y-48880D01*
X40793Y-48916D01*
X40761Y-48940D01*
X40736Y-48961D01*
X40915Y-49391D01*
X40943Y-49460D01*
X40992Y-49577D01*
X41036Y-49679D01*
X41070Y-49760D01*
X41094Y-49813D01*
X41104Y-49835D01*
X41106Y-49836D01*
X41121Y-49839D01*
X41154Y-49827D01*
X41214Y-49798D01*
X41254Y-49778D01*
X41300Y-49756D01*
X41320Y-49747D01*
X41337Y-49757D01*
X41382Y-49785D01*
X41446Y-49828D01*
X41523Y-49880D01*
X41596Y-49930D01*
X41663Y-49975D01*
X41713Y-50006D01*
X41736Y-50019D01*
X41740Y-50019D01*
X41761Y-50007D01*
X41800Y-49975D01*
X41859Y-49919D01*
X41942Y-49838D01*
X41954Y-49825D01*
X42022Y-49756D01*
X42078Y-49697D01*
X42115Y-49656D01*
X42128Y-49637D01*
X42128Y-49637D01*
X42116Y-49614D01*
X42085Y-49565D01*
X42040Y-49496D01*
X41986Y-49416D01*
X41843Y-49209D01*
X41922Y-49014D01*
X41946Y-48954D01*
X41976Y-48881D01*
X41999Y-48829D01*
X42011Y-48807D01*
X42032Y-48799D01*
X42085Y-48786D01*
X42163Y-48770D01*
X42255Y-48753D01*
X42343Y-48737D01*
X42423Y-48722D01*
X42481Y-48711D01*
X42507Y-48705D01*
X42513Y-48702D01*
X42518Y-48689D01*
X42521Y-48662D01*
X42523Y-48614D01*
X42524Y-48538D01*
X42524Y-48427D01*
X42524Y-48415D01*
X42523Y-48310D01*
X42522Y-48226D01*
X42519Y-48172D01*
X42515Y-48150D01*
X42515Y-48150D01*
X42490Y-48144D01*
X42434Y-48132D01*
X42354Y-48116D01*
X42259Y-48098D01*
X42253Y-48097D01*
X42159Y-48079D01*
X42079Y-48062D01*
X42024Y-48049D01*
X42000Y-48042D01*
X41996Y-48035D01*
X41976Y-47999D01*
X41949Y-47940D01*
X41918Y-47868D01*
X41887Y-47794D01*
X41860Y-47727D01*
X41842Y-47677D01*
X41837Y-47655D01*
X41837Y-47654D01*
X41852Y-47631D01*
X41884Y-47583D01*
X41930Y-47514D01*
X41985Y-47434D01*
X41990Y-47428D01*
X42044Y-47348D01*
X42088Y-47280D01*
X42117Y-47232D01*
X42128Y-47210D01*
X42128Y-47209D01*
X42110Y-47185D01*
X42069Y-47140D01*
X42011Y-47079D01*
X41941Y-47008D01*
X41919Y-46986D01*
X41841Y-46910D01*
X41787Y-46861D01*
X41753Y-46834D01*
X41737Y-46828D01*
X41737Y-46829D01*
X41713Y-46843D01*
X41662Y-46876D01*
X41594Y-46923D01*
X41513Y-46978D01*
X41507Y-46982D01*
X41427Y-47036D01*
X41360Y-47081D01*
X41313Y-47112D01*
X41292Y-47125D01*
X41289Y-47125D01*
X41256Y-47115D01*
X41199Y-47095D01*
X41129Y-47068D01*
X41055Y-47039D01*
X40988Y-47010D01*
X40938Y-46987D01*
X40914Y-46974D01*
X40913Y-46972D01*
X40905Y-46944D01*
X40891Y-46884D01*
X40874Y-46802D01*
X40856Y-46704D01*
X40853Y-46688D01*
X40835Y-46593D01*
X40819Y-46514D01*
X40808Y-46460D01*
X40803Y-46437D01*
X40789Y-46434D01*
X40742Y-46431D01*
X40671Y-46429D01*
X40585Y-46428D01*
X40495Y-46429D01*
X40406Y-46430D01*
X40331Y-46433D01*
X40277Y-46437D01*
X40254Y-46441D01*
X40254Y-46443D01*
X40245Y-46472D01*
X40232Y-46532D01*
X40215Y-46615D01*
X40197Y-46713D01*
X40193Y-46730D01*
X40175Y-46825D01*
X40159Y-46903D01*
X40148Y-46957D01*
X40142Y-46978D01*
X40133Y-46983D01*
X40094Y-47000D01*
X40030Y-47026D01*
X39951Y-47058D01*
X39768Y-47132D01*
X39544Y-46978D01*
X39523Y-46964D01*
X39442Y-46909D01*
X39376Y-46865D01*
X39330Y-46835D01*
X39311Y-46824D01*
X39309Y-46825D01*
X39287Y-46845D01*
X39242Y-46887D01*
X39182Y-46946D01*
X39111Y-47016D01*
X39059Y-47068D01*
X38997Y-47131D01*
X38958Y-47174D01*
X38936Y-47201D01*
X38929Y-47217D01*
X38930Y-47228D01*
X38945Y-47251D01*
X38978Y-47301D01*
X39024Y-47369D01*
X39079Y-47448D01*
X39124Y-47514D01*
X39173Y-47590D01*
X39204Y-47644D01*
X39215Y-47670D01*
X39212Y-47681D01*
X39197Y-47725D01*
X39170Y-47791D01*
X39136Y-47870D01*
X39058Y-48048D01*
X38942Y-48070D01*
X38871Y-48084D01*
X38773Y-48103D01*
X38678Y-48121D01*
X38531Y-48150D01*
X38525Y-48692D01*
X38548Y-48701D01*
X38570Y-48707D01*
X38625Y-48719D01*
X38703Y-48735D01*
X38795Y-48752D01*
X38873Y-48767D01*
X38952Y-48782D01*
X39009Y-48793D01*
X39034Y-48798D01*
X39040Y-48807D01*
X39060Y-48845D01*
X39088Y-48906D01*
X39120Y-48979D01*
X39151Y-49055D01*
X39179Y-49125D01*
X39198Y-49178D01*
X39206Y-49206D01*
X39195Y-49227D01*
X39165Y-49273D01*
X39121Y-49339D01*
X39068Y-49418D01*
X39014Y-49496D01*
X38969Y-49563D01*
X38937Y-49612D01*
X38924Y-49634D01*
X38930Y-49649D01*
X38962Y-49687D01*
X39021Y-49748D01*
X39109Y-49835D01*
X39124Y-49849D01*
X39194Y-49917D01*
X39253Y-49971D01*
X39294Y-50008D01*
X39313Y-50021D01*
M02*
