%FSLAX34Y34*%
G04 Gerber Fmt 3.4, Leading zero omitted, Abs format*
G04 (created by PCBNEW (2014-jan-25)-product) date Sun 13 Jul 2014 06:26:42 PM PDT*
%MOIN*%
G01*
G70*
G90*
G04 APERTURE LIST*
%ADD10C,0.003937*%
%ADD11C,0.008000*%
%ADD12C,0.006000*%
%ADD13C,0.000100*%
G04 APERTURE END LIST*
G54D10*
G54D11*
X45030Y-49971D02*
X44973Y-49990D01*
X44954Y-50009D01*
X44935Y-50047D01*
X44935Y-50104D01*
X44954Y-50142D01*
X44973Y-50161D01*
X45011Y-50180D01*
X45164Y-50180D01*
X45164Y-49780D01*
X45030Y-49780D01*
X44992Y-49800D01*
X44973Y-49819D01*
X44954Y-49857D01*
X44954Y-49895D01*
X44973Y-49933D01*
X44992Y-49952D01*
X45030Y-49971D01*
X45164Y-49971D01*
X44764Y-50180D02*
X44764Y-49914D01*
X44764Y-49990D02*
X44745Y-49952D01*
X44726Y-49933D01*
X44688Y-49914D01*
X44649Y-49914D01*
X44516Y-50180D02*
X44516Y-49914D01*
X44516Y-49780D02*
X44535Y-49800D01*
X44516Y-49819D01*
X44497Y-49800D01*
X44516Y-49780D01*
X44516Y-49819D01*
X44154Y-50180D02*
X44154Y-49780D01*
X44154Y-50161D02*
X44192Y-50180D01*
X44269Y-50180D01*
X44307Y-50161D01*
X44326Y-50142D01*
X44345Y-50104D01*
X44345Y-49990D01*
X44326Y-49952D01*
X44307Y-49933D01*
X44269Y-49914D01*
X44192Y-49914D01*
X44154Y-49933D01*
X43792Y-49914D02*
X43792Y-50238D01*
X43811Y-50276D01*
X43830Y-50295D01*
X43869Y-50314D01*
X43926Y-50314D01*
X43964Y-50295D01*
X43792Y-50161D02*
X43830Y-50180D01*
X43907Y-50180D01*
X43945Y-50161D01*
X43964Y-50142D01*
X43983Y-50104D01*
X43983Y-49990D01*
X43964Y-49952D01*
X43945Y-49933D01*
X43907Y-49914D01*
X43830Y-49914D01*
X43792Y-49933D01*
X43449Y-50161D02*
X43488Y-50180D01*
X43564Y-50180D01*
X43602Y-50161D01*
X43621Y-50123D01*
X43621Y-49971D01*
X43602Y-49933D01*
X43564Y-49914D01*
X43488Y-49914D01*
X43449Y-49933D01*
X43430Y-49971D01*
X43430Y-50009D01*
X43621Y-50047D01*
X42973Y-49761D02*
X43316Y-50276D01*
X42840Y-49971D02*
X42707Y-49971D01*
X42649Y-50180D02*
X42840Y-50180D01*
X42840Y-49780D01*
X42649Y-49780D01*
X42478Y-49914D02*
X42478Y-50180D01*
X42478Y-49952D02*
X42459Y-49933D01*
X42421Y-49914D01*
X42364Y-49914D01*
X42326Y-49933D01*
X42307Y-49971D01*
X42307Y-50180D01*
X41945Y-50161D02*
X41983Y-50180D01*
X42059Y-50180D01*
X42097Y-50161D01*
X42116Y-50142D01*
X42135Y-50104D01*
X42135Y-49990D01*
X42116Y-49952D01*
X42097Y-49933D01*
X42059Y-49914D01*
X41983Y-49914D01*
X41945Y-49933D01*
X41716Y-50180D02*
X41754Y-50161D01*
X41773Y-50142D01*
X41792Y-50104D01*
X41792Y-49990D01*
X41773Y-49952D01*
X41754Y-49933D01*
X41716Y-49914D01*
X41659Y-49914D01*
X41621Y-49933D01*
X41602Y-49952D01*
X41583Y-49990D01*
X41583Y-50104D01*
X41602Y-50142D01*
X41621Y-50161D01*
X41659Y-50180D01*
X41716Y-50180D01*
X41240Y-50180D02*
X41240Y-49780D01*
X41240Y-50161D02*
X41278Y-50180D01*
X41354Y-50180D01*
X41392Y-50161D01*
X41411Y-50142D01*
X41430Y-50104D01*
X41430Y-49990D01*
X41411Y-49952D01*
X41392Y-49933D01*
X41354Y-49914D01*
X41278Y-49914D01*
X41240Y-49933D01*
X40897Y-50161D02*
X40935Y-50180D01*
X41011Y-50180D01*
X41049Y-50161D01*
X41069Y-50123D01*
X41069Y-49971D01*
X41049Y-49933D01*
X41011Y-49914D01*
X40935Y-49914D01*
X40897Y-49933D01*
X40878Y-49971D01*
X40878Y-50009D01*
X41069Y-50047D01*
X40707Y-50180D02*
X40707Y-49914D01*
X40707Y-49990D02*
X40688Y-49952D01*
X40669Y-49933D01*
X40630Y-49914D01*
X40592Y-49914D01*
X40478Y-50161D02*
X40440Y-50180D01*
X40364Y-50180D01*
X40326Y-50161D01*
X40307Y-50123D01*
X40307Y-50104D01*
X40326Y-50066D01*
X40364Y-50047D01*
X40421Y-50047D01*
X40459Y-50028D01*
X40478Y-49990D01*
X40478Y-49971D01*
X40459Y-49933D01*
X40421Y-49914D01*
X40364Y-49914D01*
X40326Y-49933D01*
X39850Y-49761D02*
X40192Y-50276D01*
X39735Y-50161D02*
X39678Y-50180D01*
X39583Y-50180D01*
X39545Y-50161D01*
X39526Y-50142D01*
X39507Y-50104D01*
X39507Y-50066D01*
X39526Y-50028D01*
X39545Y-50009D01*
X39583Y-49990D01*
X39659Y-49971D01*
X39697Y-49952D01*
X39716Y-49933D01*
X39735Y-49895D01*
X39735Y-49857D01*
X39716Y-49819D01*
X39697Y-49800D01*
X39659Y-49780D01*
X39564Y-49780D01*
X39507Y-49800D01*
X39278Y-50180D02*
X39316Y-50161D01*
X39335Y-50142D01*
X39354Y-50104D01*
X39354Y-49990D01*
X39335Y-49952D01*
X39316Y-49933D01*
X39278Y-49914D01*
X39221Y-49914D01*
X39183Y-49933D01*
X39164Y-49952D01*
X39145Y-49990D01*
X39145Y-50104D01*
X39164Y-50142D01*
X39183Y-50161D01*
X39221Y-50180D01*
X39278Y-50180D01*
X38973Y-49914D02*
X38973Y-50180D01*
X38973Y-49952D02*
X38954Y-49933D01*
X38916Y-49914D01*
X38859Y-49914D01*
X38821Y-49933D01*
X38802Y-49971D01*
X38802Y-50180D01*
X38440Y-50180D02*
X38440Y-49971D01*
X38459Y-49933D01*
X38497Y-49914D01*
X38573Y-49914D01*
X38611Y-49933D01*
X38440Y-50161D02*
X38478Y-50180D01*
X38573Y-50180D01*
X38611Y-50161D01*
X38630Y-50123D01*
X38630Y-50085D01*
X38611Y-50047D01*
X38573Y-50028D01*
X38478Y-50028D01*
X38440Y-50009D01*
X38250Y-50180D02*
X38250Y-49914D01*
X38250Y-49990D02*
X38230Y-49952D01*
X38211Y-49933D01*
X38173Y-49914D01*
X38135Y-49914D01*
X37697Y-50180D02*
X37697Y-49780D01*
X37564Y-50066D01*
X37430Y-49780D01*
X37430Y-50180D01*
X37240Y-50180D02*
X37240Y-49914D01*
X37240Y-49780D02*
X37259Y-49800D01*
X37240Y-49819D01*
X37221Y-49800D01*
X37240Y-49780D01*
X37240Y-49819D01*
X37050Y-49914D02*
X37050Y-50180D01*
X37050Y-49952D02*
X37030Y-49933D01*
X36992Y-49914D01*
X36935Y-49914D01*
X36897Y-49933D01*
X36878Y-49971D01*
X36878Y-50180D01*
X36688Y-50180D02*
X36688Y-49914D01*
X36688Y-49780D02*
X36707Y-49800D01*
X36688Y-49819D01*
X36669Y-49800D01*
X36688Y-49780D01*
X36688Y-49819D01*
X36497Y-50028D02*
X36192Y-50028D01*
X36021Y-50161D02*
X35964Y-50180D01*
X35869Y-50180D01*
X35830Y-50161D01*
X35811Y-50142D01*
X35792Y-50104D01*
X35792Y-50066D01*
X35811Y-50028D01*
X35830Y-50009D01*
X35869Y-49990D01*
X35945Y-49971D01*
X35983Y-49952D01*
X36002Y-49933D01*
X36021Y-49895D01*
X36021Y-49857D01*
X36002Y-49819D01*
X35983Y-49800D01*
X35945Y-49780D01*
X35850Y-49780D01*
X35792Y-49800D01*
X35621Y-50180D02*
X35621Y-49780D01*
X35450Y-50180D02*
X35450Y-49971D01*
X35469Y-49933D01*
X35507Y-49914D01*
X35564Y-49914D01*
X35602Y-49933D01*
X35621Y-49952D01*
X35259Y-50180D02*
X35259Y-49914D01*
X35259Y-49780D02*
X35278Y-49800D01*
X35259Y-49819D01*
X35240Y-49800D01*
X35259Y-49780D01*
X35259Y-49819D01*
X34916Y-50161D02*
X34954Y-50180D01*
X35030Y-50180D01*
X35069Y-50161D01*
X35088Y-50123D01*
X35088Y-49971D01*
X35069Y-49933D01*
X35030Y-49914D01*
X34954Y-49914D01*
X34916Y-49933D01*
X34897Y-49971D01*
X34897Y-50009D01*
X35088Y-50047D01*
X34669Y-50180D02*
X34707Y-50161D01*
X34726Y-50123D01*
X34726Y-49780D01*
X34345Y-50180D02*
X34345Y-49780D01*
X34345Y-50161D02*
X34383Y-50180D01*
X34459Y-50180D01*
X34497Y-50161D01*
X34516Y-50142D01*
X34535Y-50104D01*
X34535Y-49990D01*
X34516Y-49952D01*
X34497Y-49933D01*
X34459Y-49914D01*
X34383Y-49914D01*
X34345Y-49933D01*
X40769Y-44620D02*
X40902Y-44430D01*
X40997Y-44620D02*
X40997Y-44220D01*
X40845Y-44220D01*
X40807Y-44240D01*
X40788Y-44259D01*
X40769Y-44297D01*
X40769Y-44354D01*
X40788Y-44392D01*
X40807Y-44411D01*
X40845Y-44430D01*
X40997Y-44430D01*
X40445Y-44601D02*
X40483Y-44620D01*
X40559Y-44620D01*
X40597Y-44601D01*
X40616Y-44563D01*
X40616Y-44411D01*
X40597Y-44373D01*
X40559Y-44354D01*
X40483Y-44354D01*
X40445Y-44373D01*
X40426Y-44411D01*
X40426Y-44449D01*
X40616Y-44487D01*
X40292Y-44354D02*
X40197Y-44620D01*
X40102Y-44354D01*
X39950Y-44582D02*
X39930Y-44601D01*
X39950Y-44620D01*
X39969Y-44601D01*
X39950Y-44582D01*
X39950Y-44620D01*
X39473Y-44506D02*
X39283Y-44506D01*
X39511Y-44620D02*
X39378Y-44220D01*
X39245Y-44620D01*
X41426Y-45260D02*
X41654Y-45260D01*
X41540Y-45260D02*
X41540Y-44860D01*
X41578Y-44918D01*
X41616Y-44956D01*
X41654Y-44975D01*
X41178Y-44860D02*
X41140Y-44860D01*
X41102Y-44880D01*
X41083Y-44899D01*
X41064Y-44937D01*
X41045Y-45013D01*
X41045Y-45108D01*
X41064Y-45184D01*
X41083Y-45222D01*
X41102Y-45241D01*
X41140Y-45260D01*
X41178Y-45260D01*
X41216Y-45241D01*
X41235Y-45222D01*
X41254Y-45184D01*
X41273Y-45108D01*
X41273Y-45013D01*
X41254Y-44937D01*
X41235Y-44899D01*
X41216Y-44880D01*
X41178Y-44860D01*
X40759Y-44860D02*
X40759Y-45146D01*
X40778Y-45203D01*
X40816Y-45241D01*
X40873Y-45260D01*
X40911Y-45260D01*
X40397Y-44994D02*
X40397Y-45260D01*
X40569Y-44994D02*
X40569Y-45203D01*
X40549Y-45241D01*
X40511Y-45260D01*
X40454Y-45260D01*
X40416Y-45241D01*
X40397Y-45222D01*
X40149Y-45260D02*
X40188Y-45241D01*
X40207Y-45203D01*
X40207Y-44860D01*
X40016Y-44899D02*
X39997Y-44880D01*
X39959Y-44860D01*
X39864Y-44860D01*
X39826Y-44880D01*
X39807Y-44899D01*
X39788Y-44937D01*
X39788Y-44975D01*
X39807Y-45032D01*
X40035Y-45260D01*
X39788Y-45260D01*
X39540Y-44860D02*
X39502Y-44860D01*
X39464Y-44880D01*
X39445Y-44899D01*
X39426Y-44937D01*
X39407Y-45013D01*
X39407Y-45108D01*
X39426Y-45184D01*
X39445Y-45222D01*
X39464Y-45241D01*
X39502Y-45260D01*
X39540Y-45260D01*
X39578Y-45241D01*
X39597Y-45222D01*
X39616Y-45184D01*
X39635Y-45108D01*
X39635Y-45013D01*
X39616Y-44937D01*
X39597Y-44899D01*
X39578Y-44880D01*
X39540Y-44860D01*
X39026Y-45260D02*
X39254Y-45260D01*
X39140Y-45260D02*
X39140Y-44860D01*
X39178Y-44918D01*
X39216Y-44956D01*
X39254Y-44975D01*
X38683Y-44994D02*
X38683Y-45260D01*
X38778Y-44841D02*
X38873Y-45127D01*
X38626Y-45127D01*
X41235Y-45862D02*
X41254Y-45881D01*
X41311Y-45900D01*
X41350Y-45900D01*
X41407Y-45881D01*
X41445Y-45843D01*
X41464Y-45805D01*
X41483Y-45729D01*
X41483Y-45672D01*
X41464Y-45596D01*
X41445Y-45558D01*
X41407Y-45520D01*
X41350Y-45500D01*
X41311Y-45500D01*
X41254Y-45520D01*
X41235Y-45539D01*
X41007Y-45900D02*
X41045Y-45881D01*
X41064Y-45862D01*
X41083Y-45824D01*
X41083Y-45710D01*
X41064Y-45672D01*
X41045Y-45653D01*
X41007Y-45634D01*
X40950Y-45634D01*
X40911Y-45653D01*
X40892Y-45672D01*
X40873Y-45710D01*
X40873Y-45824D01*
X40892Y-45862D01*
X40911Y-45881D01*
X40950Y-45900D01*
X41007Y-45900D01*
X40702Y-45634D02*
X40702Y-46034D01*
X40702Y-45653D02*
X40664Y-45634D01*
X40588Y-45634D01*
X40550Y-45653D01*
X40530Y-45672D01*
X40511Y-45710D01*
X40511Y-45824D01*
X40530Y-45862D01*
X40550Y-45881D01*
X40588Y-45900D01*
X40664Y-45900D01*
X40702Y-45881D01*
X40378Y-45634D02*
X40283Y-45900D01*
X40188Y-45634D02*
X40283Y-45900D01*
X40321Y-45996D01*
X40340Y-46015D01*
X40378Y-46034D01*
X40035Y-45900D02*
X40035Y-45634D01*
X40035Y-45710D02*
X40016Y-45672D01*
X39997Y-45653D01*
X39959Y-45634D01*
X39921Y-45634D01*
X39788Y-45900D02*
X39788Y-45634D01*
X39788Y-45500D02*
X39807Y-45520D01*
X39788Y-45539D01*
X39769Y-45520D01*
X39788Y-45500D01*
X39788Y-45539D01*
X39426Y-45634D02*
X39426Y-45958D01*
X39445Y-45996D01*
X39464Y-46015D01*
X39502Y-46034D01*
X39559Y-46034D01*
X39597Y-46015D01*
X39426Y-45881D02*
X39464Y-45900D01*
X39540Y-45900D01*
X39578Y-45881D01*
X39597Y-45862D01*
X39616Y-45824D01*
X39616Y-45710D01*
X39597Y-45672D01*
X39578Y-45653D01*
X39540Y-45634D01*
X39464Y-45634D01*
X39426Y-45653D01*
X39235Y-45900D02*
X39235Y-45500D01*
X39064Y-45900D02*
X39064Y-45691D01*
X39083Y-45653D01*
X39121Y-45634D01*
X39178Y-45634D01*
X39216Y-45653D01*
X39235Y-45672D01*
X38930Y-45634D02*
X38778Y-45634D01*
X38873Y-45500D02*
X38873Y-45843D01*
X38854Y-45881D01*
X38816Y-45900D01*
X38778Y-45900D01*
X41292Y-46693D02*
X41311Y-46674D01*
X41349Y-46617D01*
X41369Y-46579D01*
X41388Y-46521D01*
X41407Y-46426D01*
X41407Y-46350D01*
X41388Y-46255D01*
X41369Y-46198D01*
X41349Y-46160D01*
X41311Y-46102D01*
X41292Y-46083D01*
X40969Y-46521D02*
X41007Y-46540D01*
X41083Y-46540D01*
X41121Y-46521D01*
X41140Y-46502D01*
X41159Y-46464D01*
X41159Y-46350D01*
X41140Y-46312D01*
X41121Y-46293D01*
X41083Y-46274D01*
X41007Y-46274D01*
X40969Y-46293D01*
X40835Y-46693D02*
X40816Y-46674D01*
X40778Y-46617D01*
X40759Y-46579D01*
X40740Y-46521D01*
X40721Y-46426D01*
X40721Y-46350D01*
X40740Y-46255D01*
X40759Y-46198D01*
X40778Y-46160D01*
X40816Y-46102D01*
X40835Y-46083D01*
X40245Y-46179D02*
X40226Y-46160D01*
X40188Y-46140D01*
X40092Y-46140D01*
X40054Y-46160D01*
X40035Y-46179D01*
X40016Y-46217D01*
X40016Y-46255D01*
X40035Y-46312D01*
X40264Y-46540D01*
X40016Y-46540D01*
X39769Y-46140D02*
X39730Y-46140D01*
X39692Y-46160D01*
X39673Y-46179D01*
X39654Y-46217D01*
X39635Y-46293D01*
X39635Y-46388D01*
X39654Y-46464D01*
X39673Y-46502D01*
X39692Y-46521D01*
X39730Y-46540D01*
X39769Y-46540D01*
X39807Y-46521D01*
X39826Y-46502D01*
X39845Y-46464D01*
X39864Y-46388D01*
X39864Y-46293D01*
X39845Y-46217D01*
X39826Y-46179D01*
X39807Y-46160D01*
X39769Y-46140D01*
X39254Y-46540D02*
X39483Y-46540D01*
X39369Y-46540D02*
X39369Y-46140D01*
X39407Y-46198D01*
X39445Y-46236D01*
X39483Y-46255D01*
X38911Y-46274D02*
X38911Y-46540D01*
X39007Y-46121D02*
X39102Y-46407D01*
X38854Y-46407D01*
X41169Y-46800D02*
X41207Y-46780D01*
X41264Y-46780D01*
X41321Y-46800D01*
X41359Y-46838D01*
X41378Y-46876D01*
X41397Y-46952D01*
X41397Y-47009D01*
X41378Y-47085D01*
X41359Y-47123D01*
X41321Y-47161D01*
X41264Y-47180D01*
X41226Y-47180D01*
X41169Y-47161D01*
X41150Y-47142D01*
X41150Y-47009D01*
X41226Y-47009D01*
X40978Y-47180D02*
X40978Y-46914D01*
X40978Y-46990D02*
X40959Y-46952D01*
X40940Y-46933D01*
X40902Y-46914D01*
X40864Y-46914D01*
X40559Y-47180D02*
X40559Y-46971D01*
X40578Y-46933D01*
X40616Y-46914D01*
X40692Y-46914D01*
X40730Y-46933D01*
X40559Y-47161D02*
X40597Y-47180D01*
X40692Y-47180D01*
X40730Y-47161D01*
X40750Y-47123D01*
X40750Y-47085D01*
X40730Y-47047D01*
X40692Y-47028D01*
X40597Y-47028D01*
X40559Y-47009D01*
X40369Y-47180D02*
X40369Y-46914D01*
X40369Y-46952D02*
X40350Y-46933D01*
X40311Y-46914D01*
X40254Y-46914D01*
X40216Y-46933D01*
X40197Y-46971D01*
X40197Y-47180D01*
X40197Y-46971D02*
X40178Y-46933D01*
X40140Y-46914D01*
X40083Y-46914D01*
X40045Y-46933D01*
X40026Y-46971D01*
X40026Y-47180D01*
X39778Y-47180D02*
X39816Y-47161D01*
X39835Y-47123D01*
X39835Y-46780D01*
X39626Y-47180D02*
X39626Y-46914D01*
X39626Y-46780D02*
X39645Y-46800D01*
X39626Y-46819D01*
X39607Y-46800D01*
X39626Y-46780D01*
X39626Y-46819D01*
X39264Y-47161D02*
X39302Y-47180D01*
X39378Y-47180D01*
X39416Y-47161D01*
X39435Y-47142D01*
X39454Y-47104D01*
X39454Y-46990D01*
X39435Y-46952D01*
X39416Y-46933D01*
X39378Y-46914D01*
X39302Y-46914D01*
X39264Y-46933D01*
X39092Y-47180D02*
X39092Y-46780D01*
X38921Y-47180D02*
X38921Y-46971D01*
X38940Y-46933D01*
X38978Y-46914D01*
X39035Y-46914D01*
X39073Y-46933D01*
X39092Y-46952D01*
G54D12*
X33687Y-57795D02*
X33687Y-57495D01*
X33558Y-57795D02*
X33558Y-57638D01*
X33572Y-57610D01*
X33601Y-57595D01*
X33644Y-57595D01*
X33672Y-57610D01*
X33687Y-57624D01*
X33287Y-57795D02*
X33287Y-57638D01*
X33301Y-57610D01*
X33330Y-57595D01*
X33387Y-57595D01*
X33415Y-57610D01*
X33287Y-57781D02*
X33315Y-57795D01*
X33387Y-57795D01*
X33415Y-57781D01*
X33430Y-57752D01*
X33430Y-57724D01*
X33415Y-57695D01*
X33387Y-57681D01*
X33315Y-57681D01*
X33287Y-57667D01*
X33144Y-57795D02*
X33144Y-57595D01*
X33144Y-57652D02*
X33130Y-57624D01*
X33115Y-57610D01*
X33087Y-57595D01*
X33058Y-57595D01*
X32830Y-57795D02*
X32830Y-57495D01*
X32830Y-57781D02*
X32858Y-57795D01*
X32915Y-57795D01*
X32944Y-57781D01*
X32958Y-57767D01*
X32972Y-57738D01*
X32972Y-57652D01*
X32958Y-57624D01*
X32944Y-57610D01*
X32915Y-57595D01*
X32858Y-57595D01*
X32830Y-57610D01*
X32715Y-57595D02*
X32658Y-57795D01*
X32601Y-57652D01*
X32544Y-57795D01*
X32487Y-57595D01*
X32244Y-57795D02*
X32244Y-57638D01*
X32258Y-57610D01*
X32287Y-57595D01*
X32344Y-57595D01*
X32372Y-57610D01*
X32244Y-57781D02*
X32272Y-57795D01*
X32344Y-57795D01*
X32372Y-57781D01*
X32387Y-57752D01*
X32387Y-57724D01*
X32372Y-57695D01*
X32344Y-57681D01*
X32272Y-57681D01*
X32244Y-57667D01*
X32101Y-57795D02*
X32101Y-57595D01*
X32101Y-57652D02*
X32087Y-57624D01*
X32072Y-57610D01*
X32044Y-57595D01*
X32015Y-57595D01*
X31801Y-57781D02*
X31830Y-57795D01*
X31887Y-57795D01*
X31915Y-57781D01*
X31930Y-57752D01*
X31930Y-57638D01*
X31915Y-57610D01*
X31887Y-57595D01*
X31830Y-57595D01*
X31801Y-57610D01*
X31787Y-57638D01*
X31787Y-57667D01*
X31930Y-57695D01*
X33921Y-57385D02*
X33950Y-57371D01*
X33964Y-57357D01*
X33978Y-57328D01*
X33978Y-57242D01*
X33964Y-57214D01*
X33950Y-57200D01*
X33921Y-57185D01*
X33878Y-57185D01*
X33850Y-57200D01*
X33835Y-57214D01*
X33821Y-57242D01*
X33821Y-57328D01*
X33835Y-57357D01*
X33850Y-57371D01*
X33878Y-57385D01*
X33921Y-57385D01*
X33692Y-57185D02*
X33692Y-57485D01*
X33692Y-57200D02*
X33664Y-57185D01*
X33607Y-57185D01*
X33578Y-57200D01*
X33564Y-57214D01*
X33550Y-57242D01*
X33550Y-57328D01*
X33564Y-57357D01*
X33578Y-57371D01*
X33607Y-57385D01*
X33664Y-57385D01*
X33692Y-57371D01*
X33307Y-57371D02*
X33335Y-57385D01*
X33392Y-57385D01*
X33421Y-57371D01*
X33435Y-57342D01*
X33435Y-57228D01*
X33421Y-57200D01*
X33392Y-57185D01*
X33335Y-57185D01*
X33307Y-57200D01*
X33292Y-57228D01*
X33292Y-57257D01*
X33435Y-57285D01*
X33164Y-57185D02*
X33164Y-57385D01*
X33164Y-57214D02*
X33150Y-57200D01*
X33121Y-57185D01*
X33078Y-57185D01*
X33050Y-57200D01*
X33035Y-57228D01*
X33035Y-57385D01*
X32678Y-57371D02*
X32650Y-57385D01*
X32592Y-57385D01*
X32564Y-57371D01*
X32550Y-57342D01*
X32550Y-57328D01*
X32564Y-57300D01*
X32592Y-57285D01*
X32635Y-57285D01*
X32664Y-57271D01*
X32678Y-57242D01*
X32678Y-57228D01*
X32664Y-57200D01*
X32635Y-57185D01*
X32592Y-57185D01*
X32564Y-57200D01*
X32378Y-57385D02*
X32407Y-57371D01*
X32421Y-57357D01*
X32435Y-57328D01*
X32435Y-57242D01*
X32421Y-57214D01*
X32407Y-57200D01*
X32378Y-57185D01*
X32335Y-57185D01*
X32307Y-57200D01*
X32292Y-57214D01*
X32278Y-57242D01*
X32278Y-57328D01*
X32292Y-57357D01*
X32307Y-57371D01*
X32335Y-57385D01*
X32378Y-57385D01*
X32021Y-57185D02*
X32021Y-57385D01*
X32150Y-57185D02*
X32150Y-57342D01*
X32135Y-57371D01*
X32107Y-57385D01*
X32064Y-57385D01*
X32035Y-57371D01*
X32021Y-57357D01*
X31878Y-57385D02*
X31878Y-57185D01*
X31878Y-57242D02*
X31864Y-57214D01*
X31850Y-57200D01*
X31821Y-57185D01*
X31792Y-57185D01*
X31564Y-57371D02*
X31592Y-57385D01*
X31650Y-57385D01*
X31678Y-57371D01*
X31692Y-57357D01*
X31707Y-57328D01*
X31707Y-57242D01*
X31692Y-57214D01*
X31678Y-57200D01*
X31650Y-57185D01*
X31592Y-57185D01*
X31564Y-57200D01*
X31321Y-57371D02*
X31350Y-57385D01*
X31407Y-57385D01*
X31435Y-57371D01*
X31450Y-57342D01*
X31450Y-57228D01*
X31435Y-57200D01*
X31407Y-57185D01*
X31350Y-57185D01*
X31321Y-57200D01*
X31307Y-57228D01*
X31307Y-57257D01*
X31450Y-57285D01*
G54D13*
G36*
X31358Y-57016D02*
X31379Y-57006D01*
X31426Y-56976D01*
X31492Y-56932D01*
X31571Y-56879D01*
X31650Y-56826D01*
X31716Y-56782D01*
X31761Y-56753D01*
X31780Y-56742D01*
X31790Y-56746D01*
X31828Y-56764D01*
X31883Y-56793D01*
X31914Y-56809D01*
X31965Y-56831D01*
X31989Y-56835D01*
X31994Y-56828D01*
X32012Y-56790D01*
X32041Y-56724D01*
X32079Y-56638D01*
X32122Y-56536D01*
X32168Y-56427D01*
X32215Y-56315D01*
X32259Y-56208D01*
X32298Y-56113D01*
X32329Y-56035D01*
X32350Y-55981D01*
X32358Y-55957D01*
X32355Y-55953D01*
X32330Y-55928D01*
X32286Y-55895D01*
X32192Y-55819D01*
X32098Y-55702D01*
X32041Y-55569D01*
X32023Y-55422D01*
X32039Y-55286D01*
X32092Y-55155D01*
X32184Y-55037D01*
X32295Y-54949D01*
X32424Y-54894D01*
X32570Y-54876D01*
X32709Y-54892D01*
X32843Y-54944D01*
X32961Y-55034D01*
X33011Y-55092D01*
X33080Y-55211D01*
X33119Y-55339D01*
X33123Y-55372D01*
X33117Y-55512D01*
X33076Y-55647D01*
X33001Y-55767D01*
X32898Y-55866D01*
X32886Y-55875D01*
X32838Y-55911D01*
X32806Y-55935D01*
X32781Y-55956D01*
X32960Y-56386D01*
X32988Y-56455D01*
X33037Y-56572D01*
X33081Y-56674D01*
X33115Y-56755D01*
X33139Y-56808D01*
X33149Y-56830D01*
X33151Y-56831D01*
X33166Y-56834D01*
X33199Y-56822D01*
X33259Y-56793D01*
X33299Y-56773D01*
X33345Y-56751D01*
X33365Y-56742D01*
X33382Y-56752D01*
X33427Y-56780D01*
X33491Y-56823D01*
X33568Y-56875D01*
X33641Y-56925D01*
X33708Y-56970D01*
X33758Y-57001D01*
X33781Y-57014D01*
X33785Y-57014D01*
X33806Y-57002D01*
X33845Y-56970D01*
X33904Y-56914D01*
X33987Y-56833D01*
X33999Y-56820D01*
X34067Y-56751D01*
X34123Y-56692D01*
X34160Y-56651D01*
X34173Y-56632D01*
X34173Y-56632D01*
X34161Y-56609D01*
X34130Y-56560D01*
X34085Y-56491D01*
X34031Y-56411D01*
X33888Y-56204D01*
X33967Y-56009D01*
X33991Y-55949D01*
X34021Y-55876D01*
X34044Y-55824D01*
X34056Y-55802D01*
X34077Y-55794D01*
X34130Y-55781D01*
X34208Y-55765D01*
X34300Y-55748D01*
X34388Y-55732D01*
X34468Y-55717D01*
X34526Y-55706D01*
X34552Y-55700D01*
X34558Y-55697D01*
X34563Y-55684D01*
X34566Y-55657D01*
X34568Y-55609D01*
X34569Y-55533D01*
X34569Y-55422D01*
X34569Y-55410D01*
X34568Y-55305D01*
X34567Y-55221D01*
X34564Y-55167D01*
X34560Y-55145D01*
X34560Y-55145D01*
X34535Y-55139D01*
X34479Y-55127D01*
X34399Y-55111D01*
X34304Y-55093D01*
X34298Y-55092D01*
X34204Y-55074D01*
X34124Y-55057D01*
X34069Y-55044D01*
X34045Y-55037D01*
X34041Y-55030D01*
X34021Y-54994D01*
X33994Y-54935D01*
X33963Y-54863D01*
X33932Y-54789D01*
X33905Y-54722D01*
X33887Y-54672D01*
X33882Y-54650D01*
X33882Y-54649D01*
X33897Y-54626D01*
X33929Y-54578D01*
X33975Y-54509D01*
X34030Y-54429D01*
X34035Y-54423D01*
X34089Y-54343D01*
X34133Y-54275D01*
X34162Y-54227D01*
X34173Y-54205D01*
X34173Y-54204D01*
X34155Y-54180D01*
X34114Y-54135D01*
X34056Y-54074D01*
X33986Y-54003D01*
X33964Y-53981D01*
X33886Y-53905D01*
X33832Y-53856D01*
X33798Y-53829D01*
X33782Y-53823D01*
X33782Y-53824D01*
X33758Y-53838D01*
X33707Y-53871D01*
X33639Y-53918D01*
X33558Y-53973D01*
X33552Y-53977D01*
X33472Y-54031D01*
X33405Y-54076D01*
X33358Y-54107D01*
X33337Y-54120D01*
X33334Y-54120D01*
X33301Y-54110D01*
X33244Y-54090D01*
X33174Y-54063D01*
X33100Y-54034D01*
X33033Y-54005D01*
X32983Y-53982D01*
X32959Y-53969D01*
X32958Y-53967D01*
X32950Y-53939D01*
X32936Y-53879D01*
X32919Y-53797D01*
X32901Y-53699D01*
X32898Y-53683D01*
X32880Y-53588D01*
X32864Y-53509D01*
X32853Y-53455D01*
X32848Y-53432D01*
X32834Y-53429D01*
X32787Y-53426D01*
X32716Y-53424D01*
X32630Y-53423D01*
X32540Y-53424D01*
X32451Y-53425D01*
X32376Y-53428D01*
X32322Y-53432D01*
X32299Y-53436D01*
X32299Y-53438D01*
X32290Y-53467D01*
X32277Y-53527D01*
X32260Y-53610D01*
X32242Y-53708D01*
X32238Y-53725D01*
X32220Y-53820D01*
X32204Y-53898D01*
X32193Y-53952D01*
X32187Y-53973D01*
X32178Y-53978D01*
X32139Y-53995D01*
X32075Y-54021D01*
X31996Y-54053D01*
X31813Y-54127D01*
X31589Y-53973D01*
X31568Y-53959D01*
X31487Y-53904D01*
X31421Y-53860D01*
X31375Y-53830D01*
X31356Y-53819D01*
X31354Y-53820D01*
X31332Y-53840D01*
X31287Y-53882D01*
X31227Y-53941D01*
X31156Y-54011D01*
X31104Y-54063D01*
X31042Y-54126D01*
X31003Y-54169D01*
X30981Y-54196D01*
X30974Y-54212D01*
X30975Y-54223D01*
X30990Y-54246D01*
X31023Y-54296D01*
X31069Y-54364D01*
X31124Y-54443D01*
X31169Y-54509D01*
X31218Y-54585D01*
X31249Y-54639D01*
X31260Y-54665D01*
X31257Y-54676D01*
X31242Y-54720D01*
X31215Y-54786D01*
X31181Y-54865D01*
X31103Y-55043D01*
X30987Y-55065D01*
X30916Y-55079D01*
X30818Y-55098D01*
X30723Y-55116D01*
X30576Y-55145D01*
X30570Y-55687D01*
X30593Y-55696D01*
X30615Y-55702D01*
X30670Y-55714D01*
X30748Y-55730D01*
X30840Y-55747D01*
X30918Y-55762D01*
X30997Y-55777D01*
X31054Y-55788D01*
X31079Y-55793D01*
X31085Y-55802D01*
X31105Y-55840D01*
X31133Y-55901D01*
X31165Y-55974D01*
X31196Y-56050D01*
X31224Y-56120D01*
X31243Y-56173D01*
X31251Y-56201D01*
X31240Y-56222D01*
X31210Y-56268D01*
X31166Y-56334D01*
X31113Y-56413D01*
X31059Y-56491D01*
X31014Y-56558D01*
X30982Y-56607D01*
X30969Y-56629D01*
X30975Y-56644D01*
X31007Y-56682D01*
X31066Y-56743D01*
X31154Y-56830D01*
X31169Y-56844D01*
X31239Y-56912D01*
X31298Y-56966D01*
X31339Y-57003D01*
X31358Y-57016D01*
X31358Y-57016D01*
G37*
X31358Y-57016D02*
X31379Y-57006D01*
X31426Y-56976D01*
X31492Y-56932D01*
X31571Y-56879D01*
X31650Y-56826D01*
X31716Y-56782D01*
X31761Y-56753D01*
X31780Y-56742D01*
X31790Y-56746D01*
X31828Y-56764D01*
X31883Y-56793D01*
X31914Y-56809D01*
X31965Y-56831D01*
X31989Y-56835D01*
X31994Y-56828D01*
X32012Y-56790D01*
X32041Y-56724D01*
X32079Y-56638D01*
X32122Y-56536D01*
X32168Y-56427D01*
X32215Y-56315D01*
X32259Y-56208D01*
X32298Y-56113D01*
X32329Y-56035D01*
X32350Y-55981D01*
X32358Y-55957D01*
X32355Y-55953D01*
X32330Y-55928D01*
X32286Y-55895D01*
X32192Y-55819D01*
X32098Y-55702D01*
X32041Y-55569D01*
X32023Y-55422D01*
X32039Y-55286D01*
X32092Y-55155D01*
X32184Y-55037D01*
X32295Y-54949D01*
X32424Y-54894D01*
X32570Y-54876D01*
X32709Y-54892D01*
X32843Y-54944D01*
X32961Y-55034D01*
X33011Y-55092D01*
X33080Y-55211D01*
X33119Y-55339D01*
X33123Y-55372D01*
X33117Y-55512D01*
X33076Y-55647D01*
X33001Y-55767D01*
X32898Y-55866D01*
X32886Y-55875D01*
X32838Y-55911D01*
X32806Y-55935D01*
X32781Y-55956D01*
X32960Y-56386D01*
X32988Y-56455D01*
X33037Y-56572D01*
X33081Y-56674D01*
X33115Y-56755D01*
X33139Y-56808D01*
X33149Y-56830D01*
X33151Y-56831D01*
X33166Y-56834D01*
X33199Y-56822D01*
X33259Y-56793D01*
X33299Y-56773D01*
X33345Y-56751D01*
X33365Y-56742D01*
X33382Y-56752D01*
X33427Y-56780D01*
X33491Y-56823D01*
X33568Y-56875D01*
X33641Y-56925D01*
X33708Y-56970D01*
X33758Y-57001D01*
X33781Y-57014D01*
X33785Y-57014D01*
X33806Y-57002D01*
X33845Y-56970D01*
X33904Y-56914D01*
X33987Y-56833D01*
X33999Y-56820D01*
X34067Y-56751D01*
X34123Y-56692D01*
X34160Y-56651D01*
X34173Y-56632D01*
X34173Y-56632D01*
X34161Y-56609D01*
X34130Y-56560D01*
X34085Y-56491D01*
X34031Y-56411D01*
X33888Y-56204D01*
X33967Y-56009D01*
X33991Y-55949D01*
X34021Y-55876D01*
X34044Y-55824D01*
X34056Y-55802D01*
X34077Y-55794D01*
X34130Y-55781D01*
X34208Y-55765D01*
X34300Y-55748D01*
X34388Y-55732D01*
X34468Y-55717D01*
X34526Y-55706D01*
X34552Y-55700D01*
X34558Y-55697D01*
X34563Y-55684D01*
X34566Y-55657D01*
X34568Y-55609D01*
X34569Y-55533D01*
X34569Y-55422D01*
X34569Y-55410D01*
X34568Y-55305D01*
X34567Y-55221D01*
X34564Y-55167D01*
X34560Y-55145D01*
X34560Y-55145D01*
X34535Y-55139D01*
X34479Y-55127D01*
X34399Y-55111D01*
X34304Y-55093D01*
X34298Y-55092D01*
X34204Y-55074D01*
X34124Y-55057D01*
X34069Y-55044D01*
X34045Y-55037D01*
X34041Y-55030D01*
X34021Y-54994D01*
X33994Y-54935D01*
X33963Y-54863D01*
X33932Y-54789D01*
X33905Y-54722D01*
X33887Y-54672D01*
X33882Y-54650D01*
X33882Y-54649D01*
X33897Y-54626D01*
X33929Y-54578D01*
X33975Y-54509D01*
X34030Y-54429D01*
X34035Y-54423D01*
X34089Y-54343D01*
X34133Y-54275D01*
X34162Y-54227D01*
X34173Y-54205D01*
X34173Y-54204D01*
X34155Y-54180D01*
X34114Y-54135D01*
X34056Y-54074D01*
X33986Y-54003D01*
X33964Y-53981D01*
X33886Y-53905D01*
X33832Y-53856D01*
X33798Y-53829D01*
X33782Y-53823D01*
X33782Y-53824D01*
X33758Y-53838D01*
X33707Y-53871D01*
X33639Y-53918D01*
X33558Y-53973D01*
X33552Y-53977D01*
X33472Y-54031D01*
X33405Y-54076D01*
X33358Y-54107D01*
X33337Y-54120D01*
X33334Y-54120D01*
X33301Y-54110D01*
X33244Y-54090D01*
X33174Y-54063D01*
X33100Y-54034D01*
X33033Y-54005D01*
X32983Y-53982D01*
X32959Y-53969D01*
X32958Y-53967D01*
X32950Y-53939D01*
X32936Y-53879D01*
X32919Y-53797D01*
X32901Y-53699D01*
X32898Y-53683D01*
X32880Y-53588D01*
X32864Y-53509D01*
X32853Y-53455D01*
X32848Y-53432D01*
X32834Y-53429D01*
X32787Y-53426D01*
X32716Y-53424D01*
X32630Y-53423D01*
X32540Y-53424D01*
X32451Y-53425D01*
X32376Y-53428D01*
X32322Y-53432D01*
X32299Y-53436D01*
X32299Y-53438D01*
X32290Y-53467D01*
X32277Y-53527D01*
X32260Y-53610D01*
X32242Y-53708D01*
X32238Y-53725D01*
X32220Y-53820D01*
X32204Y-53898D01*
X32193Y-53952D01*
X32187Y-53973D01*
X32178Y-53978D01*
X32139Y-53995D01*
X32075Y-54021D01*
X31996Y-54053D01*
X31813Y-54127D01*
X31589Y-53973D01*
X31568Y-53959D01*
X31487Y-53904D01*
X31421Y-53860D01*
X31375Y-53830D01*
X31356Y-53819D01*
X31354Y-53820D01*
X31332Y-53840D01*
X31287Y-53882D01*
X31227Y-53941D01*
X31156Y-54011D01*
X31104Y-54063D01*
X31042Y-54126D01*
X31003Y-54169D01*
X30981Y-54196D01*
X30974Y-54212D01*
X30975Y-54223D01*
X30990Y-54246D01*
X31023Y-54296D01*
X31069Y-54364D01*
X31124Y-54443D01*
X31169Y-54509D01*
X31218Y-54585D01*
X31249Y-54639D01*
X31260Y-54665D01*
X31257Y-54676D01*
X31242Y-54720D01*
X31215Y-54786D01*
X31181Y-54865D01*
X31103Y-55043D01*
X30987Y-55065D01*
X30916Y-55079D01*
X30818Y-55098D01*
X30723Y-55116D01*
X30576Y-55145D01*
X30570Y-55687D01*
X30593Y-55696D01*
X30615Y-55702D01*
X30670Y-55714D01*
X30748Y-55730D01*
X30840Y-55747D01*
X30918Y-55762D01*
X30997Y-55777D01*
X31054Y-55788D01*
X31079Y-55793D01*
X31085Y-55802D01*
X31105Y-55840D01*
X31133Y-55901D01*
X31165Y-55974D01*
X31196Y-56050D01*
X31224Y-56120D01*
X31243Y-56173D01*
X31251Y-56201D01*
X31240Y-56222D01*
X31210Y-56268D01*
X31166Y-56334D01*
X31113Y-56413D01*
X31059Y-56491D01*
X31014Y-56558D01*
X30982Y-56607D01*
X30969Y-56629D01*
X30975Y-56644D01*
X31007Y-56682D01*
X31066Y-56743D01*
X31154Y-56830D01*
X31169Y-56844D01*
X31239Y-56912D01*
X31298Y-56966D01*
X31339Y-57003D01*
X31358Y-57016D01*
M02*
