%FSLAX34Y34*%
G04 Gerber Fmt 3.4, Leading zero omitted, Abs format*
G04 (created by PCBNEW (2014-jan-25)-product) date Thu 10 Jul 2014 10:52:34 PM PDT*
%MOIN*%
G01*
G70*
G90*
G04 APERTURE LIST*
%ADD10C,0.003937*%
%ADD11C,0.059100*%
%ADD12C,0.236220*%
%ADD13R,0.068000X0.068000*%
%ADD14C,0.068000*%
%ADD15O,0.068000X0.068000*%
%ADD16R,0.080000X0.080000*%
%ADD17O,0.080000X0.080000*%
%ADD18R,0.055000X0.055000*%
%ADD19C,0.055000*%
%ADD20C,0.078700*%
%ADD21O,0.066900X0.137800*%
%ADD22R,0.380000X0.620000*%
G04 APERTURE END LIST*
G54D10*
G54D11*
X33500Y-49750D03*
X32500Y-49750D03*
X36500Y-59250D03*
X35500Y-59250D03*
X31250Y-50750D03*
X31250Y-49750D03*
X38500Y-56000D03*
X38500Y-55000D03*
G54D12*
X40000Y-42000D03*
G54D13*
X37000Y-55500D03*
G54D14*
X37000Y-56500D03*
X37000Y-57500D03*
G54D13*
X32000Y-41500D03*
G54D15*
X33000Y-41500D03*
X32000Y-42500D03*
X33000Y-42500D03*
X32000Y-43500D03*
X33000Y-43500D03*
X32000Y-44500D03*
X33000Y-44500D03*
X32000Y-45500D03*
X33000Y-45500D03*
X32000Y-46500D03*
X33000Y-46500D03*
X32000Y-47500D03*
X33000Y-47500D03*
X32000Y-48500D03*
X33000Y-48500D03*
G54D13*
X47000Y-41500D03*
G54D15*
X48000Y-41500D03*
X47000Y-42500D03*
X48000Y-42500D03*
X47000Y-43500D03*
X48000Y-43500D03*
X47000Y-44500D03*
X48000Y-44500D03*
X47000Y-45500D03*
X48000Y-45500D03*
X47000Y-46500D03*
X48000Y-46500D03*
X47000Y-47500D03*
X48000Y-47500D03*
X47000Y-48500D03*
X48000Y-48500D03*
G54D13*
X38000Y-43000D03*
G54D15*
X37000Y-43000D03*
X36000Y-43000D03*
X35000Y-43000D03*
G54D13*
X38000Y-41500D03*
G54D15*
X37000Y-41500D03*
X36000Y-41500D03*
X35000Y-41500D03*
G54D16*
X38500Y-58750D03*
G54D17*
X38500Y-57750D03*
G54D16*
X49000Y-57000D03*
G54D17*
X49000Y-58000D03*
G54D13*
X38000Y-44500D03*
G54D15*
X37000Y-44500D03*
X36000Y-44500D03*
X35000Y-44500D03*
G54D13*
X38000Y-46000D03*
G54D15*
X37000Y-46000D03*
X36000Y-46000D03*
X35000Y-46000D03*
G54D18*
X47250Y-56000D03*
G54D19*
X46250Y-56000D03*
X45250Y-56000D03*
X44250Y-56000D03*
X43250Y-56000D03*
X42250Y-56000D03*
X41250Y-56000D03*
X40250Y-56000D03*
X40250Y-59000D03*
X41250Y-59000D03*
X42250Y-59000D03*
X43250Y-59000D03*
X44250Y-59000D03*
X45250Y-59000D03*
X46250Y-59000D03*
X47250Y-59000D03*
G54D20*
X35500Y-54000D03*
X35500Y-58000D03*
X46000Y-47500D03*
X42000Y-47500D03*
X34500Y-47500D03*
X38500Y-47500D03*
X42000Y-46000D03*
X46000Y-46000D03*
X42000Y-44500D03*
X46000Y-44500D03*
X42000Y-43000D03*
X46000Y-43000D03*
X42000Y-41500D03*
X46000Y-41500D03*
X36750Y-53750D03*
X40750Y-53750D03*
X34750Y-52500D03*
X38750Y-52500D03*
X44250Y-52500D03*
X40250Y-52500D03*
X43750Y-55000D03*
X39750Y-55000D03*
X45000Y-53750D03*
X49000Y-53750D03*
X45000Y-55000D03*
X49000Y-55000D03*
G54D21*
X32500Y-52250D03*
X33500Y-52250D03*
X31500Y-52250D03*
G54D22*
X32500Y-56950D03*
G54D18*
X48500Y-49500D03*
G54D19*
X47500Y-49500D03*
X46500Y-49500D03*
X45500Y-49500D03*
X45500Y-52500D03*
X46500Y-52500D03*
X47500Y-52500D03*
X48500Y-52500D03*
G54D18*
X43500Y-48500D03*
G54D19*
X42500Y-48500D03*
X41500Y-48500D03*
X40500Y-48500D03*
X40500Y-51500D03*
X41500Y-51500D03*
X42500Y-51500D03*
X43500Y-51500D03*
G54D18*
X38500Y-48500D03*
G54D19*
X37500Y-48500D03*
X36500Y-48500D03*
X35500Y-48500D03*
X35500Y-51500D03*
X36500Y-51500D03*
X37500Y-51500D03*
X38500Y-51500D03*
M02*
