M48
;DRILL file {kicad (2014-jan-25)-product} date Thu 10 Jul 2014 10:52:29 PM PDT
;FORMAT={-:-/ absolute / metric / decimal}
FMAT,2
METRIC,TZ
T1C0.635
T2C0.800
T3C0.813
T4C1.001
T5C1.016
T6C3.175
T7C3.800
%
G90
G05
M71
T1
X90.17Y-115.57
X94.615Y-120.015
X98.425Y-137.16
X99.695Y-113.665
X99.695Y-114.935
X100.33Y-116.84
X100.33Y-123.19
X100.965Y-120.65
X106.045Y-134.62
X106.045Y-136.525
X106.045Y-139.065
X106.045Y-140.335
X107.95Y-139.065
X107.95Y-140.335
X108.585Y-134.62
X108.585Y-136.525
X108.585Y-152.4
X109.855Y-145.415
X109.855Y-146.685
X109.855Y-152.4
X110.49Y-136.525
X111.125Y-116.84
X111.125Y-120.65
X111.125Y-145.415
X111.125Y-146.685
X111.125Y-152.4
X112.395Y-145.415
X112.395Y-146.685
X112.395Y-152.4
X113.03Y-111.125
X113.665Y-121.92
X113.665Y-152.4
X114.3Y-117.475
X118.745Y-139.7
X118.745Y-151.13
X121.285Y-136.525
X123.19Y-125.73
X124.46Y-109.22
X125.73Y-133.985
T2
X79.375Y-126.365
X79.375Y-128.905
X82.55Y-126.365
X85.09Y-126.365
X90.17Y-150.495
X92.71Y-150.495
X97.79Y-139.7
X97.79Y-142.24
T3
X90.17Y-123.19
X90.17Y-130.81
X92.71Y-123.19
X92.71Y-130.81
X95.25Y-123.19
X95.25Y-130.81
X97.79Y-123.19
X97.79Y-130.81
X102.235Y-142.24
X102.235Y-149.86
X102.87Y-123.19
X102.87Y-130.81
X104.775Y-142.24
X104.775Y-149.86
X105.41Y-123.19
X105.41Y-130.81
X107.315Y-142.24
X107.315Y-149.86
X107.95Y-123.19
X107.95Y-130.81
X109.855Y-142.24
X109.855Y-149.86
X110.49Y-123.19
X110.49Y-130.81
X112.395Y-142.24
X112.395Y-149.86
X114.935Y-142.24
X114.935Y-149.86
X115.57Y-125.73
X115.57Y-133.35
X117.475Y-142.24
X117.475Y-149.86
X118.11Y-125.73
X118.11Y-133.35
X120.015Y-142.24
X120.015Y-149.86
X120.65Y-125.73
X120.65Y-133.35
X123.19Y-125.73
X123.19Y-133.35
T4
X80.01Y-132.715
X82.55Y-132.715
X85.09Y-132.715
X87.63Y-120.65
X88.265Y-133.35
X90.17Y-137.16
X90.17Y-147.32
X93.345Y-136.525
X97.79Y-120.65
X98.425Y-133.35
X100.965Y-139.7
X102.235Y-133.35
X103.505Y-136.525
X106.68Y-105.41
X106.68Y-109.22
X106.68Y-113.03
X106.68Y-116.84
X106.68Y-120.65
X111.125Y-139.7
X112.395Y-133.35
X114.3Y-136.525
X114.3Y-139.7
X116.84Y-105.41
X116.84Y-109.22
X116.84Y-113.03
X116.84Y-116.84
X116.84Y-120.65
X124.46Y-136.525
X124.46Y-139.7
T5
X81.28Y-105.41
X81.28Y-107.95
X81.28Y-110.49
X81.28Y-113.03
X81.28Y-115.57
X81.28Y-118.11
X81.28Y-120.65
X81.28Y-123.19
X83.82Y-105.41
X83.82Y-107.95
X83.82Y-110.49
X83.82Y-113.03
X83.82Y-115.57
X83.82Y-118.11
X83.82Y-120.65
X83.82Y-123.19
X88.9Y-105.41
X88.9Y-109.22
X88.9Y-113.03
X88.9Y-116.84
X91.44Y-105.41
X91.44Y-109.22
X91.44Y-113.03
X91.44Y-116.84
X93.98Y-105.41
X93.98Y-109.22
X93.98Y-113.03
X93.98Y-116.84
X93.98Y-140.97
X93.98Y-143.51
X93.98Y-146.05
X96.52Y-105.41
X96.52Y-109.22
X96.52Y-113.03
X96.52Y-116.84
X97.79Y-146.685
X97.79Y-149.225
X119.38Y-105.41
X119.38Y-107.95
X119.38Y-110.49
X119.38Y-113.03
X119.38Y-115.57
X119.38Y-118.11
X119.38Y-120.65
X119.38Y-123.19
X121.92Y-105.41
X121.92Y-107.95
X121.92Y-110.49
X121.92Y-113.03
X121.92Y-115.57
X121.92Y-118.11
X121.92Y-120.65
X121.92Y-123.19
X124.46Y-144.78
X124.46Y-147.32
T6
X101.6Y-106.68
T7
X82.55Y-149.479
T0
M30
