%FSLAX34Y34*%
G04 Gerber Fmt 3.4, Leading zero omitted, Abs format*
G04 (created by PCBNEW (2014-jan-25)-product) date Sun 13 Jul 2014 08:05:19 AM PDT*
%MOIN*%
G01*
G70*
G90*
G04 APERTURE LIST*
%ADD10C,0.003937*%
%ADD11C,0.059100*%
%ADD12C,0.236220*%
%ADD13R,0.068000X0.068000*%
%ADD14C,0.068000*%
%ADD15O,0.068000X0.068000*%
%ADD16R,0.080000X0.080000*%
%ADD17O,0.080000X0.080000*%
%ADD18R,0.055000X0.055000*%
%ADD19C,0.055000*%
%ADD20C,0.078700*%
%ADD21O,0.066900X0.137800*%
%ADD22R,0.380000X0.620000*%
%ADD23C,0.035000*%
%ADD24C,0.040000*%
%ADD25C,0.010000*%
G04 APERTURE END LIST*
G54D10*
G54D11*
X33500Y-49750D03*
X32500Y-49750D03*
X36500Y-59250D03*
X35500Y-59250D03*
X31250Y-50750D03*
X31250Y-49750D03*
X38500Y-56000D03*
X38500Y-55000D03*
G54D12*
X40000Y-42000D03*
G54D13*
X37000Y-55500D03*
G54D14*
X37000Y-56500D03*
X37000Y-57500D03*
G54D13*
X32000Y-41500D03*
G54D15*
X33000Y-41500D03*
X32000Y-42500D03*
X33000Y-42500D03*
X32000Y-43500D03*
X33000Y-43500D03*
X32000Y-44500D03*
X33000Y-44500D03*
X32000Y-45500D03*
X33000Y-45500D03*
X32000Y-46500D03*
X33000Y-46500D03*
X32000Y-47500D03*
X33000Y-47500D03*
X32000Y-48500D03*
X33000Y-48500D03*
G54D13*
X47000Y-41500D03*
G54D15*
X48000Y-41500D03*
X47000Y-42500D03*
X48000Y-42500D03*
X47000Y-43500D03*
X48000Y-43500D03*
X47000Y-44500D03*
X48000Y-44500D03*
X47000Y-45500D03*
X48000Y-45500D03*
X47000Y-46500D03*
X48000Y-46500D03*
X47000Y-47500D03*
X48000Y-47500D03*
X47000Y-48500D03*
X48000Y-48500D03*
G54D13*
X38000Y-43000D03*
G54D15*
X37000Y-43000D03*
X36000Y-43000D03*
X35000Y-43000D03*
G54D13*
X38000Y-41500D03*
G54D15*
X37000Y-41500D03*
X36000Y-41500D03*
X35000Y-41500D03*
G54D16*
X38500Y-58750D03*
G54D17*
X38500Y-57750D03*
G54D16*
X49000Y-57000D03*
G54D17*
X49000Y-58000D03*
G54D13*
X38000Y-44500D03*
G54D15*
X37000Y-44500D03*
X36000Y-44500D03*
X35000Y-44500D03*
G54D13*
X38000Y-46000D03*
G54D15*
X37000Y-46000D03*
X36000Y-46000D03*
X35000Y-46000D03*
G54D18*
X47250Y-56000D03*
G54D19*
X46250Y-56000D03*
X45250Y-56000D03*
X44250Y-56000D03*
X43250Y-56000D03*
X42250Y-56000D03*
X41250Y-56000D03*
X40250Y-56000D03*
X40250Y-59000D03*
X41250Y-59000D03*
X42250Y-59000D03*
X43250Y-59000D03*
X44250Y-59000D03*
X45250Y-59000D03*
X46250Y-59000D03*
X47250Y-59000D03*
G54D20*
X35500Y-54000D03*
X35500Y-58000D03*
X46000Y-47500D03*
X42000Y-47500D03*
X34500Y-47500D03*
X38500Y-47500D03*
X42000Y-46000D03*
X46000Y-46000D03*
X42000Y-44500D03*
X46000Y-44500D03*
X42000Y-43000D03*
X46000Y-43000D03*
X42000Y-41500D03*
X46000Y-41500D03*
X36750Y-53750D03*
X40750Y-53750D03*
X34750Y-52500D03*
X38750Y-52500D03*
X44250Y-52500D03*
X40250Y-52500D03*
X43750Y-55000D03*
X39750Y-55000D03*
X45000Y-53750D03*
X49000Y-53750D03*
X45000Y-55000D03*
X49000Y-55000D03*
G54D21*
X32500Y-52250D03*
X33500Y-52250D03*
X31500Y-52250D03*
G54D22*
X32500Y-56950D03*
G54D18*
X48500Y-49500D03*
G54D19*
X47500Y-49500D03*
X46500Y-49500D03*
X45500Y-49500D03*
X45500Y-52500D03*
X46500Y-52500D03*
X47500Y-52500D03*
X48500Y-52500D03*
G54D18*
X43500Y-48500D03*
G54D19*
X42500Y-48500D03*
X41500Y-48500D03*
X40500Y-48500D03*
X40500Y-51500D03*
X41500Y-51500D03*
X42500Y-51500D03*
X43500Y-51500D03*
G54D18*
X38500Y-48500D03*
G54D19*
X37500Y-48500D03*
X36500Y-48500D03*
X35500Y-48500D03*
X35500Y-51500D03*
X36500Y-51500D03*
X37500Y-51500D03*
X38500Y-51500D03*
G54D23*
X49500Y-52750D03*
X44250Y-57250D03*
X43250Y-57750D03*
X44250Y-57750D03*
X43250Y-57250D03*
X43750Y-57750D03*
X43750Y-57250D03*
X42500Y-55250D03*
X41750Y-55250D03*
X41750Y-54750D03*
X42500Y-54750D03*
X41750Y-53750D03*
X41750Y-53000D03*
X42750Y-53000D03*
X42750Y-53750D03*
X43500Y-53750D03*
X44250Y-60000D03*
X43750Y-60000D03*
X43250Y-60000D03*
X42750Y-60000D03*
X44750Y-60000D03*
X39250Y-44750D03*
X39500Y-46000D03*
X35500Y-45500D03*
X39250Y-45250D03*
X39500Y-48500D03*
X44750Y-48000D03*
X43750Y-46000D03*
X44500Y-43750D03*
X43750Y-47500D03*
X45000Y-46250D03*
X49000Y-43000D03*
X37250Y-47250D03*
X39750Y-47500D03*
X48500Y-49500D03*
X38750Y-54000D03*
X46750Y-59500D03*
X47750Y-53750D03*
X46750Y-55000D03*
G54D24*
X33500Y-52250D02*
X33500Y-49750D01*
X33500Y-52250D02*
X33500Y-53000D01*
X37000Y-54500D02*
X37000Y-55500D01*
X37500Y-54000D02*
X37000Y-54500D01*
X37500Y-53500D02*
X37500Y-54000D01*
X37000Y-53000D02*
X37500Y-53500D01*
X36000Y-53000D02*
X37000Y-53000D01*
X35750Y-53250D02*
X36000Y-53000D01*
X33750Y-53250D02*
X35750Y-53250D01*
X33500Y-53000D02*
X33750Y-53250D01*
X33000Y-48500D02*
X33000Y-48750D01*
X33000Y-48750D02*
X33500Y-49250D01*
X33500Y-49250D02*
X33500Y-49750D01*
X44500Y-58750D02*
X44500Y-59250D01*
X43000Y-58750D02*
X44500Y-58750D01*
X43250Y-59000D02*
X43000Y-58750D01*
X44250Y-59500D02*
X44250Y-59750D01*
X44500Y-59250D02*
X44250Y-59500D01*
X43250Y-59000D02*
X42750Y-58500D01*
X43000Y-58500D02*
X44750Y-58500D01*
X42750Y-58500D02*
X43000Y-58500D01*
X44250Y-59000D02*
X44000Y-59250D01*
X44000Y-59250D02*
X43000Y-59250D01*
X44250Y-59000D02*
X44250Y-59250D01*
X44250Y-59250D02*
X44000Y-59500D01*
X44000Y-59500D02*
X42750Y-59500D01*
X42750Y-59500D02*
X43000Y-59250D01*
X43000Y-59250D02*
X43250Y-59000D01*
X45000Y-53750D02*
X44000Y-53750D01*
X45000Y-55000D02*
X45250Y-55250D01*
X45250Y-55250D02*
X45750Y-55250D01*
X45000Y-53750D02*
X45750Y-53750D01*
X45500Y-54000D02*
X45250Y-54250D01*
X45750Y-54250D02*
X45500Y-54000D01*
X45750Y-53750D02*
X45750Y-54250D01*
X45000Y-53750D02*
X45000Y-54000D01*
X45000Y-54000D02*
X44750Y-54250D01*
X45000Y-53750D02*
X44500Y-53750D01*
X44500Y-53750D02*
X44500Y-54250D01*
X45000Y-53750D02*
X45000Y-55000D01*
X44250Y-56000D02*
X44250Y-55500D01*
X44250Y-55500D02*
X43750Y-55000D01*
X45000Y-55000D02*
X44750Y-55000D01*
X44750Y-55000D02*
X44500Y-54750D01*
X44500Y-54750D02*
X43750Y-54750D01*
X43750Y-54750D02*
X43250Y-55250D01*
X43250Y-55250D02*
X43250Y-55500D01*
X43250Y-56000D02*
X43000Y-55750D01*
X43000Y-55750D02*
X43000Y-55000D01*
X43000Y-55000D02*
X43500Y-54500D01*
X43500Y-54500D02*
X45250Y-54500D01*
X45250Y-54500D02*
X45500Y-54750D01*
X45500Y-54750D02*
X45500Y-55000D01*
X45500Y-55000D02*
X45250Y-55250D01*
X45250Y-55250D02*
X44500Y-55250D01*
X44500Y-55250D02*
X44250Y-55500D01*
X43250Y-56000D02*
X42750Y-56500D01*
X44500Y-56500D02*
X44750Y-56500D01*
X43000Y-56500D02*
X44500Y-56500D01*
X42750Y-56500D02*
X43000Y-56500D01*
X44250Y-56000D02*
X44250Y-56500D01*
X44250Y-56500D02*
X44250Y-56250D01*
X44250Y-56250D02*
X43500Y-56250D01*
X43500Y-56250D02*
X43250Y-56000D01*
X43250Y-56000D02*
X43750Y-55500D01*
X44250Y-56000D02*
X43250Y-56000D01*
X44250Y-59000D02*
X43250Y-59000D01*
X45000Y-55000D02*
X43750Y-55000D01*
X44500Y-55750D02*
X45000Y-55250D01*
X44250Y-56000D02*
X44500Y-55750D01*
X45000Y-55250D02*
X45000Y-55000D01*
X44250Y-56000D02*
X43750Y-55500D01*
X43750Y-55500D02*
X43750Y-55000D01*
X44250Y-57250D02*
X44250Y-56000D01*
X44250Y-57750D02*
X44250Y-57250D01*
X44250Y-59000D02*
X44250Y-57750D01*
X43750Y-55000D02*
X43250Y-55500D01*
X43250Y-55500D02*
X43250Y-55500D01*
X43250Y-57750D02*
X43250Y-59000D01*
X44500Y-54250D02*
X43750Y-55000D01*
X32500Y-58850D02*
X33650Y-60000D01*
X33650Y-60000D02*
X34500Y-60000D01*
X30500Y-53750D02*
X30500Y-53750D01*
X34500Y-53750D02*
X30500Y-53750D01*
X34500Y-60000D02*
X34500Y-53750D01*
X49500Y-49000D02*
X49500Y-51750D01*
X48000Y-48500D02*
X49000Y-48500D01*
X49000Y-48500D02*
X49500Y-49000D01*
X32500Y-52250D02*
X32500Y-58850D01*
X49500Y-51750D02*
X49500Y-52750D01*
X43000Y-58500D02*
X43000Y-59250D01*
X43000Y-56500D02*
X43000Y-55750D01*
X44500Y-56500D02*
X44500Y-55750D01*
X43250Y-59500D02*
X43250Y-59000D01*
X42750Y-60000D02*
X43250Y-59500D01*
X42500Y-60000D02*
X42750Y-60000D01*
X33650Y-60000D02*
X42500Y-60000D01*
X32500Y-58850D02*
X33650Y-60000D01*
X45000Y-51750D02*
X49500Y-51750D01*
X44250Y-52500D02*
X45000Y-51750D01*
X32500Y-52250D02*
X32500Y-49750D01*
X43250Y-55500D02*
X43250Y-57250D01*
X43250Y-57250D02*
X43250Y-57750D01*
X43750Y-57250D02*
X43250Y-57250D01*
X44250Y-57250D02*
X43750Y-57250D01*
X43750Y-57750D02*
X43250Y-57750D01*
X44250Y-57750D02*
X43750Y-57750D01*
X42500Y-55250D02*
X41750Y-55250D01*
X41750Y-54750D02*
X42500Y-54750D01*
X41750Y-53000D02*
X42750Y-53000D01*
X42750Y-53750D02*
X43500Y-53750D01*
X41750Y-54750D02*
X41750Y-53750D01*
X43750Y-60000D02*
X43250Y-60000D01*
X44250Y-59000D02*
X44250Y-60000D01*
X44250Y-60000D02*
X44750Y-60000D01*
G54D25*
X36000Y-46000D02*
X35500Y-46500D01*
X34500Y-46500D02*
X34000Y-46000D01*
X35500Y-46500D02*
X34500Y-46500D01*
X34000Y-46000D02*
X34000Y-43500D01*
X34000Y-46000D02*
X34000Y-43500D01*
X33000Y-42500D02*
X34000Y-43500D01*
X42000Y-42000D02*
X42000Y-41500D01*
X39250Y-44750D02*
X42000Y-42000D01*
X39500Y-46000D02*
X41000Y-44500D01*
X41000Y-44500D02*
X42000Y-44500D01*
X36000Y-45000D02*
X36000Y-44500D01*
X35500Y-45500D02*
X36000Y-45000D01*
X42000Y-43000D02*
X41500Y-43000D01*
X39250Y-45250D02*
X41500Y-43000D01*
X34500Y-47500D02*
X34000Y-47500D01*
X34000Y-47500D02*
X33000Y-46500D01*
X39500Y-48500D02*
X42000Y-46000D01*
X33000Y-47500D02*
X33250Y-47500D01*
X33250Y-47500D02*
X34750Y-49000D01*
X34750Y-49000D02*
X44500Y-49000D01*
X44500Y-49000D02*
X46000Y-47500D01*
G54D24*
X35000Y-43000D02*
X35000Y-41500D01*
X35000Y-44500D02*
X35000Y-43000D01*
X35000Y-46000D02*
X35000Y-44500D01*
G54D25*
X47000Y-45500D02*
X47000Y-45400D01*
G54D24*
X48250Y-52750D02*
X48500Y-52500D01*
X48250Y-57500D02*
X48250Y-52750D01*
X38500Y-56000D02*
X37750Y-55250D01*
X38250Y-53250D02*
X36500Y-51500D01*
X38250Y-54250D02*
X38250Y-53250D01*
X37750Y-54750D02*
X38250Y-54250D01*
X37750Y-55250D02*
X37750Y-54750D01*
X37000Y-57500D02*
X38500Y-56000D01*
X36500Y-59250D02*
X37000Y-58750D01*
X37000Y-58750D02*
X37000Y-57500D01*
X31500Y-52250D02*
X31500Y-51500D01*
X31250Y-51250D02*
X31250Y-50750D01*
X31500Y-51500D02*
X31250Y-51250D01*
X47250Y-59000D02*
X47250Y-58500D01*
X47250Y-58500D02*
X48250Y-57500D01*
G54D25*
X35500Y-59250D02*
X35500Y-58000D01*
G54D24*
X38000Y-43000D02*
X38000Y-41500D01*
X38000Y-44500D02*
X38000Y-43000D01*
X38000Y-46000D02*
X38000Y-44500D01*
X43750Y-44500D02*
X43750Y-46000D01*
X44500Y-43750D02*
X43750Y-44500D01*
X45000Y-46250D02*
X43750Y-47500D01*
X38000Y-46500D02*
X38000Y-46000D01*
X35500Y-48500D02*
X36750Y-47250D01*
X36750Y-47250D02*
X37250Y-47250D01*
X37250Y-47250D02*
X38000Y-46500D01*
X39000Y-46750D02*
X38250Y-46750D01*
X38250Y-46750D02*
X38000Y-46500D01*
X39750Y-47500D02*
X39000Y-46750D01*
G54D25*
X36500Y-48500D02*
X37500Y-47500D01*
X37500Y-47500D02*
X38500Y-47500D01*
X43500Y-48500D02*
X46000Y-46000D01*
X46000Y-44500D02*
X43750Y-46750D01*
X43750Y-46750D02*
X41750Y-46750D01*
X41500Y-48000D02*
X41500Y-48500D01*
X41750Y-46750D02*
X41250Y-47250D01*
X41250Y-47250D02*
X41250Y-47750D01*
X41250Y-47750D02*
X41500Y-48000D01*
X46000Y-43000D02*
X48250Y-43000D01*
X47500Y-48750D02*
X48250Y-49500D01*
X47500Y-48250D02*
X47500Y-48750D01*
X47750Y-48000D02*
X47500Y-48250D01*
X48250Y-48000D02*
X47750Y-48000D01*
X48500Y-47750D02*
X48250Y-48000D01*
X48500Y-43250D02*
X48500Y-47750D01*
X48250Y-43000D02*
X48500Y-43250D01*
X48250Y-49500D02*
X48500Y-49500D01*
X46500Y-49500D02*
X46500Y-48250D01*
X45250Y-42250D02*
X46000Y-41500D01*
X45250Y-43250D02*
X45250Y-42250D01*
X45750Y-43750D02*
X45250Y-43250D01*
X46250Y-43750D02*
X45750Y-43750D01*
X46500Y-44000D02*
X46250Y-43750D01*
X47250Y-44000D02*
X46500Y-44000D01*
X47500Y-44250D02*
X47250Y-44000D01*
X47500Y-47750D02*
X47500Y-44250D01*
X47250Y-48000D02*
X47500Y-47750D01*
X46750Y-48000D02*
X47250Y-48000D01*
X46500Y-48250D02*
X46750Y-48000D01*
X43500Y-52750D02*
X44000Y-53250D01*
X43500Y-52250D02*
X43500Y-52750D01*
X43250Y-52000D02*
X43500Y-52250D01*
X41250Y-52000D02*
X43250Y-52000D01*
X41000Y-52250D02*
X41250Y-52000D01*
X46250Y-53750D02*
X45500Y-53000D01*
X45500Y-53000D02*
X44500Y-53000D01*
X44500Y-53000D02*
X44250Y-53250D01*
X46250Y-56000D02*
X46250Y-53750D01*
X44000Y-53250D02*
X44250Y-53250D01*
X41000Y-52750D02*
X41000Y-52250D01*
X40750Y-53750D02*
X41000Y-53500D01*
X40750Y-53000D02*
X41000Y-52750D01*
X40750Y-53750D02*
X40750Y-53000D01*
X38750Y-54000D02*
X38750Y-52500D01*
X41250Y-56000D02*
X41000Y-56000D01*
X41000Y-56000D02*
X40500Y-55500D01*
X40500Y-55500D02*
X40500Y-54750D01*
X40250Y-53250D02*
X40250Y-52500D01*
X40000Y-53500D02*
X40250Y-53250D01*
X40000Y-54250D02*
X40000Y-53500D01*
X40500Y-54750D02*
X40000Y-54250D01*
X39750Y-55000D02*
X39750Y-54000D01*
X39500Y-52250D02*
X40250Y-51500D01*
X39500Y-53750D02*
X39500Y-52250D01*
X39750Y-54000D02*
X39500Y-53750D01*
X40250Y-51500D02*
X40500Y-51500D01*
X41250Y-59000D02*
X39750Y-57500D01*
X39750Y-57500D02*
X39750Y-55000D01*
X47500Y-53250D02*
X47500Y-52500D01*
X47750Y-53500D02*
X47500Y-53250D01*
X47750Y-53750D02*
X47750Y-53500D01*
X47750Y-57250D02*
X47750Y-53750D01*
X46750Y-58250D02*
X47750Y-57250D01*
X46750Y-59500D02*
X46750Y-58250D01*
X45500Y-52500D02*
X46750Y-53750D01*
X46750Y-55000D02*
X46750Y-57750D01*
X46750Y-53750D02*
X46750Y-55000D01*
X46250Y-59000D02*
X46250Y-58250D01*
X46250Y-58250D02*
X46750Y-57750D01*
G36*
X38097Y-48007D02*
X38083Y-48013D01*
X38013Y-48083D01*
X37993Y-48130D01*
X37895Y-48118D01*
X37514Y-48500D01*
X37519Y-48505D01*
X37505Y-48519D01*
X37500Y-48514D01*
X37494Y-48519D01*
X37480Y-48505D01*
X37485Y-48500D01*
X37480Y-48494D01*
X37494Y-48480D01*
X37500Y-48485D01*
X37881Y-48104D01*
X37866Y-47978D01*
X37639Y-47878D01*
X37548Y-47875D01*
X37624Y-47800D01*
X37927Y-47800D01*
X37954Y-47864D01*
X38097Y-48007D01*
X38097Y-48007D01*
G37*
X38097Y-48007D02*
X38083Y-48013D01*
X38013Y-48083D01*
X37993Y-48130D01*
X37895Y-48118D01*
X37514Y-48500D01*
X37519Y-48505D01*
X37505Y-48519D01*
X37500Y-48514D01*
X37494Y-48519D01*
X37480Y-48505D01*
X37485Y-48500D01*
X37480Y-48494D01*
X37494Y-48480D01*
X37500Y-48485D01*
X37881Y-48104D01*
X37866Y-47978D01*
X37639Y-47878D01*
X37548Y-47875D01*
X37624Y-47800D01*
X37927Y-47800D01*
X37954Y-47864D01*
X38097Y-48007D01*
G36*
X41166Y-48090D02*
X41055Y-48202D01*
X41055Y-48202D01*
X41038Y-48158D01*
X41021Y-48133D01*
X40895Y-48118D01*
X40514Y-48500D01*
X40519Y-48505D01*
X40505Y-48519D01*
X40500Y-48514D01*
X40494Y-48519D01*
X40480Y-48505D01*
X40485Y-48500D01*
X40480Y-48494D01*
X40494Y-48480D01*
X40500Y-48485D01*
X40881Y-48104D01*
X40866Y-47978D01*
X40639Y-47878D01*
X40548Y-47875D01*
X40950Y-47474D01*
X40950Y-47750D01*
X40972Y-47864D01*
X41037Y-47962D01*
X41166Y-48090D01*
X41166Y-48090D01*
G37*
X41166Y-48090D02*
X41055Y-48202D01*
X41055Y-48202D01*
X41038Y-48158D01*
X41021Y-48133D01*
X40895Y-48118D01*
X40514Y-48500D01*
X40519Y-48505D01*
X40505Y-48519D01*
X40500Y-48514D01*
X40494Y-48519D01*
X40480Y-48505D01*
X40485Y-48500D01*
X40480Y-48494D01*
X40494Y-48480D01*
X40500Y-48485D01*
X40881Y-48104D01*
X40866Y-47978D01*
X40639Y-47878D01*
X40548Y-47875D01*
X40950Y-47474D01*
X40950Y-47750D01*
X40972Y-47864D01*
X41037Y-47962D01*
X41166Y-48090D01*
G36*
X45696Y-40929D02*
X45635Y-40954D01*
X45454Y-41135D01*
X45356Y-41371D01*
X45356Y-41627D01*
X45383Y-41692D01*
X45037Y-42037D01*
X44972Y-42135D01*
X44950Y-42250D01*
X44950Y-43250D01*
X44972Y-43364D01*
X45037Y-43462D01*
X45537Y-43962D01*
X45537Y-43962D01*
X45591Y-43998D01*
X45454Y-44135D01*
X45356Y-44371D01*
X45356Y-44627D01*
X45383Y-44692D01*
X43625Y-46450D01*
X42460Y-46450D01*
X42545Y-46364D01*
X42643Y-46128D01*
X42643Y-45872D01*
X42545Y-45635D01*
X42364Y-45454D01*
X42128Y-45356D01*
X41872Y-45356D01*
X41635Y-45454D01*
X41454Y-45635D01*
X41356Y-45871D01*
X41356Y-46127D01*
X41383Y-46192D01*
X39500Y-48075D01*
X39415Y-48074D01*
X39259Y-48139D01*
X39139Y-48258D01*
X39075Y-48415D01*
X39074Y-48584D01*
X39122Y-48700D01*
X39025Y-48700D01*
X39025Y-48175D01*
X38986Y-48083D01*
X38916Y-48013D01*
X38902Y-48007D01*
X39045Y-47864D01*
X39143Y-47628D01*
X39143Y-47372D01*
X39045Y-47135D01*
X38864Y-46954D01*
X38690Y-46882D01*
X38690Y-46409D01*
X38690Y-46270D01*
X38690Y-46097D01*
X38690Y-45902D01*
X38690Y-45729D01*
X38690Y-45590D01*
X38690Y-44909D01*
X38690Y-44770D01*
X38690Y-44597D01*
X38690Y-44402D01*
X38690Y-44229D01*
X38690Y-44090D01*
X38690Y-43409D01*
X38690Y-43270D01*
X38690Y-43097D01*
X38602Y-43010D01*
X38010Y-43010D01*
X38010Y-43602D01*
X38097Y-43690D01*
X38409Y-43690D01*
X38538Y-43636D01*
X38636Y-43538D01*
X38690Y-43409D01*
X38690Y-44090D01*
X38636Y-43961D01*
X38538Y-43863D01*
X38409Y-43810D01*
X38097Y-43810D01*
X38010Y-43897D01*
X38010Y-44490D01*
X38602Y-44490D01*
X38690Y-44402D01*
X38690Y-44597D01*
X38602Y-44510D01*
X38010Y-44510D01*
X38010Y-45102D01*
X38097Y-45190D01*
X38409Y-45190D01*
X38538Y-45136D01*
X38636Y-45038D01*
X38690Y-44909D01*
X38690Y-45590D01*
X38636Y-45461D01*
X38538Y-45363D01*
X38409Y-45310D01*
X38097Y-45310D01*
X38010Y-45397D01*
X38010Y-45990D01*
X38602Y-45990D01*
X38690Y-45902D01*
X38690Y-46097D01*
X38602Y-46010D01*
X38010Y-46010D01*
X38010Y-46602D01*
X38097Y-46690D01*
X38409Y-46690D01*
X38538Y-46636D01*
X38636Y-46538D01*
X38690Y-46409D01*
X38690Y-46882D01*
X38628Y-46856D01*
X38372Y-46856D01*
X38135Y-46954D01*
X37954Y-47135D01*
X37927Y-47200D01*
X37500Y-47200D01*
X37385Y-47222D01*
X37287Y-47287D01*
X36600Y-47975D01*
X36396Y-47974D01*
X36203Y-48054D01*
X36055Y-48202D01*
X36055Y-48202D01*
X36038Y-48158D01*
X36021Y-48133D01*
X35895Y-48118D01*
X35881Y-48132D01*
X35881Y-48104D01*
X35866Y-47978D01*
X35639Y-47878D01*
X35390Y-47872D01*
X35158Y-47961D01*
X35133Y-47978D01*
X35118Y-48104D01*
X35500Y-48485D01*
X35881Y-48104D01*
X35881Y-48132D01*
X35514Y-48500D01*
X35519Y-48505D01*
X35505Y-48519D01*
X35500Y-48514D01*
X35494Y-48519D01*
X35480Y-48505D01*
X35485Y-48500D01*
X35104Y-48118D01*
X34978Y-48133D01*
X34878Y-48360D01*
X34872Y-48609D01*
X34907Y-48700D01*
X34874Y-48700D01*
X34279Y-48105D01*
X34371Y-48143D01*
X34627Y-48143D01*
X34864Y-48045D01*
X35045Y-47864D01*
X35143Y-47628D01*
X35143Y-47372D01*
X35045Y-47135D01*
X34864Y-46954D01*
X34628Y-46856D01*
X34372Y-46856D01*
X34135Y-46954D01*
X34007Y-47082D01*
X33564Y-46640D01*
X33590Y-46511D01*
X33590Y-46488D01*
X33545Y-46262D01*
X33417Y-46071D01*
X33310Y-46000D01*
X33417Y-45928D01*
X33545Y-45737D01*
X33590Y-45511D01*
X33590Y-45488D01*
X33545Y-45262D01*
X33417Y-45071D01*
X33310Y-45000D01*
X33417Y-44928D01*
X33545Y-44737D01*
X33590Y-44511D01*
X33590Y-44488D01*
X33545Y-44262D01*
X33417Y-44071D01*
X33310Y-44000D01*
X33417Y-43928D01*
X33545Y-43737D01*
X33589Y-43513D01*
X33700Y-43624D01*
X33700Y-46000D01*
X33722Y-46114D01*
X33787Y-46212D01*
X34287Y-46712D01*
X34287Y-46712D01*
X34385Y-46777D01*
X34500Y-46800D01*
X35500Y-46800D01*
X35500Y-46799D01*
X35614Y-46777D01*
X35614Y-46777D01*
X35712Y-46712D01*
X35859Y-46564D01*
X35988Y-46590D01*
X36011Y-46590D01*
X36237Y-46545D01*
X36428Y-46417D01*
X36500Y-46310D01*
X36571Y-46417D01*
X36762Y-46545D01*
X36988Y-46590D01*
X37011Y-46590D01*
X37237Y-46545D01*
X37338Y-46477D01*
X37363Y-46538D01*
X37461Y-46636D01*
X37590Y-46690D01*
X37902Y-46690D01*
X37990Y-46602D01*
X37990Y-46010D01*
X37982Y-46010D01*
X37982Y-45990D01*
X37990Y-45990D01*
X37990Y-45397D01*
X37902Y-45310D01*
X37590Y-45310D01*
X37461Y-45363D01*
X37363Y-45461D01*
X37338Y-45522D01*
X37237Y-45454D01*
X37011Y-45410D01*
X36988Y-45410D01*
X36762Y-45454D01*
X36571Y-45582D01*
X36500Y-45689D01*
X36428Y-45582D01*
X36237Y-45454D01*
X36013Y-45410D01*
X36212Y-45212D01*
X36212Y-45212D01*
X36277Y-45114D01*
X36299Y-45003D01*
X36428Y-44917D01*
X36500Y-44810D01*
X36571Y-44917D01*
X36762Y-45045D01*
X36988Y-45090D01*
X37011Y-45090D01*
X37237Y-45045D01*
X37338Y-44977D01*
X37363Y-45038D01*
X37461Y-45136D01*
X37590Y-45190D01*
X37902Y-45190D01*
X37990Y-45102D01*
X37990Y-44510D01*
X37982Y-44510D01*
X37982Y-44490D01*
X37990Y-44490D01*
X37990Y-43897D01*
X37902Y-43810D01*
X37590Y-43810D01*
X37461Y-43863D01*
X37363Y-43961D01*
X37338Y-44022D01*
X37237Y-43954D01*
X37011Y-43910D01*
X36988Y-43910D01*
X36762Y-43954D01*
X36571Y-44082D01*
X36500Y-44189D01*
X36428Y-44082D01*
X36237Y-43954D01*
X36011Y-43910D01*
X35988Y-43910D01*
X35762Y-43954D01*
X35571Y-44082D01*
X35500Y-44189D01*
X35450Y-44114D01*
X35450Y-43385D01*
X35500Y-43310D01*
X35571Y-43417D01*
X35762Y-43545D01*
X35988Y-43590D01*
X36011Y-43590D01*
X36237Y-43545D01*
X36428Y-43417D01*
X36500Y-43310D01*
X36571Y-43417D01*
X36762Y-43545D01*
X36988Y-43590D01*
X37011Y-43590D01*
X37237Y-43545D01*
X37338Y-43477D01*
X37363Y-43538D01*
X37461Y-43636D01*
X37590Y-43690D01*
X37902Y-43690D01*
X37990Y-43602D01*
X37990Y-43010D01*
X37982Y-43010D01*
X37982Y-42990D01*
X37990Y-42990D01*
X37990Y-42397D01*
X37902Y-42310D01*
X37590Y-42310D01*
X37461Y-42363D01*
X37363Y-42461D01*
X37338Y-42522D01*
X37237Y-42454D01*
X37011Y-42410D01*
X36988Y-42410D01*
X36762Y-42454D01*
X36571Y-42582D01*
X36500Y-42689D01*
X36428Y-42582D01*
X36237Y-42454D01*
X36011Y-42410D01*
X35988Y-42410D01*
X35762Y-42454D01*
X35571Y-42582D01*
X35500Y-42689D01*
X35450Y-42614D01*
X35450Y-41885D01*
X35500Y-41810D01*
X35571Y-41917D01*
X35762Y-42045D01*
X35988Y-42090D01*
X36011Y-42090D01*
X36237Y-42045D01*
X36428Y-41917D01*
X36500Y-41810D01*
X36571Y-41917D01*
X36762Y-42045D01*
X36988Y-42090D01*
X37011Y-42090D01*
X37237Y-42045D01*
X37338Y-41977D01*
X37363Y-42038D01*
X37461Y-42136D01*
X37590Y-42190D01*
X37902Y-42190D01*
X37990Y-42102D01*
X37990Y-41510D01*
X37982Y-41510D01*
X37982Y-41490D01*
X37990Y-41490D01*
X37990Y-41482D01*
X38010Y-41482D01*
X38010Y-41490D01*
X38017Y-41490D01*
X38017Y-41510D01*
X38010Y-41510D01*
X38010Y-42102D01*
X38097Y-42190D01*
X38409Y-42190D01*
X38462Y-42168D01*
X38459Y-42254D01*
X38493Y-42344D01*
X38409Y-42310D01*
X38097Y-42310D01*
X38010Y-42397D01*
X38010Y-42990D01*
X38602Y-42990D01*
X38690Y-42902D01*
X38690Y-42847D01*
X38731Y-42909D01*
X38950Y-43034D01*
X39985Y-42000D01*
X39980Y-41994D01*
X39994Y-41980D01*
X40000Y-41985D01*
X40005Y-41980D01*
X40019Y-41994D01*
X40014Y-42000D01*
X40019Y-42005D01*
X40005Y-42019D01*
X40000Y-42014D01*
X38965Y-43049D01*
X39090Y-43268D01*
X39645Y-43520D01*
X40042Y-43533D01*
X39250Y-44325D01*
X39165Y-44324D01*
X39009Y-44389D01*
X38889Y-44508D01*
X38825Y-44665D01*
X38824Y-44834D01*
X38889Y-44990D01*
X38898Y-44999D01*
X38889Y-45008D01*
X38825Y-45165D01*
X38824Y-45334D01*
X38889Y-45490D01*
X39008Y-45610D01*
X39165Y-45674D01*
X39224Y-45674D01*
X39139Y-45758D01*
X39075Y-45915D01*
X39074Y-46084D01*
X39139Y-46240D01*
X39258Y-46360D01*
X39415Y-46424D01*
X39584Y-46425D01*
X39740Y-46360D01*
X39860Y-46241D01*
X39924Y-46084D01*
X39925Y-45999D01*
X41124Y-44800D01*
X41427Y-44800D01*
X41454Y-44864D01*
X41635Y-45045D01*
X41871Y-45143D01*
X42127Y-45143D01*
X42364Y-45045D01*
X42545Y-44864D01*
X42643Y-44628D01*
X42643Y-44372D01*
X42545Y-44135D01*
X42364Y-43954D01*
X42128Y-43856D01*
X41872Y-43856D01*
X41635Y-43954D01*
X41454Y-44135D01*
X41427Y-44200D01*
X41000Y-44200D01*
X40885Y-44222D01*
X40846Y-44248D01*
X40787Y-44287D01*
X39628Y-45447D01*
X39674Y-45334D01*
X39675Y-45249D01*
X41507Y-43417D01*
X41635Y-43545D01*
X41871Y-43643D01*
X42127Y-43643D01*
X42364Y-43545D01*
X42545Y-43364D01*
X42643Y-43128D01*
X42643Y-42872D01*
X42545Y-42635D01*
X42364Y-42454D01*
X42128Y-42356D01*
X42067Y-42356D01*
X42212Y-42212D01*
X42212Y-42212D01*
X42251Y-42153D01*
X42277Y-42114D01*
X42277Y-42114D01*
X42284Y-42078D01*
X42284Y-42078D01*
X42364Y-42045D01*
X42545Y-41864D01*
X42643Y-41628D01*
X42643Y-41372D01*
X42545Y-41135D01*
X42364Y-40954D01*
X42303Y-40929D01*
X45696Y-40929D01*
X45696Y-40929D01*
G37*
X45696Y-40929D02*
X45635Y-40954D01*
X45454Y-41135D01*
X45356Y-41371D01*
X45356Y-41627D01*
X45383Y-41692D01*
X45037Y-42037D01*
X44972Y-42135D01*
X44950Y-42250D01*
X44950Y-43250D01*
X44972Y-43364D01*
X45037Y-43462D01*
X45537Y-43962D01*
X45537Y-43962D01*
X45591Y-43998D01*
X45454Y-44135D01*
X45356Y-44371D01*
X45356Y-44627D01*
X45383Y-44692D01*
X43625Y-46450D01*
X42460Y-46450D01*
X42545Y-46364D01*
X42643Y-46128D01*
X42643Y-45872D01*
X42545Y-45635D01*
X42364Y-45454D01*
X42128Y-45356D01*
X41872Y-45356D01*
X41635Y-45454D01*
X41454Y-45635D01*
X41356Y-45871D01*
X41356Y-46127D01*
X41383Y-46192D01*
X39500Y-48075D01*
X39415Y-48074D01*
X39259Y-48139D01*
X39139Y-48258D01*
X39075Y-48415D01*
X39074Y-48584D01*
X39122Y-48700D01*
X39025Y-48700D01*
X39025Y-48175D01*
X38986Y-48083D01*
X38916Y-48013D01*
X38902Y-48007D01*
X39045Y-47864D01*
X39143Y-47628D01*
X39143Y-47372D01*
X39045Y-47135D01*
X38864Y-46954D01*
X38690Y-46882D01*
X38690Y-46409D01*
X38690Y-46270D01*
X38690Y-46097D01*
X38690Y-45902D01*
X38690Y-45729D01*
X38690Y-45590D01*
X38690Y-44909D01*
X38690Y-44770D01*
X38690Y-44597D01*
X38690Y-44402D01*
X38690Y-44229D01*
X38690Y-44090D01*
X38690Y-43409D01*
X38690Y-43270D01*
X38690Y-43097D01*
X38602Y-43010D01*
X38010Y-43010D01*
X38010Y-43602D01*
X38097Y-43690D01*
X38409Y-43690D01*
X38538Y-43636D01*
X38636Y-43538D01*
X38690Y-43409D01*
X38690Y-44090D01*
X38636Y-43961D01*
X38538Y-43863D01*
X38409Y-43810D01*
X38097Y-43810D01*
X38010Y-43897D01*
X38010Y-44490D01*
X38602Y-44490D01*
X38690Y-44402D01*
X38690Y-44597D01*
X38602Y-44510D01*
X38010Y-44510D01*
X38010Y-45102D01*
X38097Y-45190D01*
X38409Y-45190D01*
X38538Y-45136D01*
X38636Y-45038D01*
X38690Y-44909D01*
X38690Y-45590D01*
X38636Y-45461D01*
X38538Y-45363D01*
X38409Y-45310D01*
X38097Y-45310D01*
X38010Y-45397D01*
X38010Y-45990D01*
X38602Y-45990D01*
X38690Y-45902D01*
X38690Y-46097D01*
X38602Y-46010D01*
X38010Y-46010D01*
X38010Y-46602D01*
X38097Y-46690D01*
X38409Y-46690D01*
X38538Y-46636D01*
X38636Y-46538D01*
X38690Y-46409D01*
X38690Y-46882D01*
X38628Y-46856D01*
X38372Y-46856D01*
X38135Y-46954D01*
X37954Y-47135D01*
X37927Y-47200D01*
X37500Y-47200D01*
X37385Y-47222D01*
X37287Y-47287D01*
X36600Y-47975D01*
X36396Y-47974D01*
X36203Y-48054D01*
X36055Y-48202D01*
X36055Y-48202D01*
X36038Y-48158D01*
X36021Y-48133D01*
X35895Y-48118D01*
X35881Y-48132D01*
X35881Y-48104D01*
X35866Y-47978D01*
X35639Y-47878D01*
X35390Y-47872D01*
X35158Y-47961D01*
X35133Y-47978D01*
X35118Y-48104D01*
X35500Y-48485D01*
X35881Y-48104D01*
X35881Y-48132D01*
X35514Y-48500D01*
X35519Y-48505D01*
X35505Y-48519D01*
X35500Y-48514D01*
X35494Y-48519D01*
X35480Y-48505D01*
X35485Y-48500D01*
X35104Y-48118D01*
X34978Y-48133D01*
X34878Y-48360D01*
X34872Y-48609D01*
X34907Y-48700D01*
X34874Y-48700D01*
X34279Y-48105D01*
X34371Y-48143D01*
X34627Y-48143D01*
X34864Y-48045D01*
X35045Y-47864D01*
X35143Y-47628D01*
X35143Y-47372D01*
X35045Y-47135D01*
X34864Y-46954D01*
X34628Y-46856D01*
X34372Y-46856D01*
X34135Y-46954D01*
X34007Y-47082D01*
X33564Y-46640D01*
X33590Y-46511D01*
X33590Y-46488D01*
X33545Y-46262D01*
X33417Y-46071D01*
X33310Y-46000D01*
X33417Y-45928D01*
X33545Y-45737D01*
X33590Y-45511D01*
X33590Y-45488D01*
X33545Y-45262D01*
X33417Y-45071D01*
X33310Y-45000D01*
X33417Y-44928D01*
X33545Y-44737D01*
X33590Y-44511D01*
X33590Y-44488D01*
X33545Y-44262D01*
X33417Y-44071D01*
X33310Y-44000D01*
X33417Y-43928D01*
X33545Y-43737D01*
X33589Y-43513D01*
X33700Y-43624D01*
X33700Y-46000D01*
X33722Y-46114D01*
X33787Y-46212D01*
X34287Y-46712D01*
X34287Y-46712D01*
X34385Y-46777D01*
X34500Y-46800D01*
X35500Y-46800D01*
X35500Y-46799D01*
X35614Y-46777D01*
X35614Y-46777D01*
X35712Y-46712D01*
X35859Y-46564D01*
X35988Y-46590D01*
X36011Y-46590D01*
X36237Y-46545D01*
X36428Y-46417D01*
X36500Y-46310D01*
X36571Y-46417D01*
X36762Y-46545D01*
X36988Y-46590D01*
X37011Y-46590D01*
X37237Y-46545D01*
X37338Y-46477D01*
X37363Y-46538D01*
X37461Y-46636D01*
X37590Y-46690D01*
X37902Y-46690D01*
X37990Y-46602D01*
X37990Y-46010D01*
X37982Y-46010D01*
X37982Y-45990D01*
X37990Y-45990D01*
X37990Y-45397D01*
X37902Y-45310D01*
X37590Y-45310D01*
X37461Y-45363D01*
X37363Y-45461D01*
X37338Y-45522D01*
X37237Y-45454D01*
X37011Y-45410D01*
X36988Y-45410D01*
X36762Y-45454D01*
X36571Y-45582D01*
X36500Y-45689D01*
X36428Y-45582D01*
X36237Y-45454D01*
X36013Y-45410D01*
X36212Y-45212D01*
X36212Y-45212D01*
X36277Y-45114D01*
X36299Y-45003D01*
X36428Y-44917D01*
X36500Y-44810D01*
X36571Y-44917D01*
X36762Y-45045D01*
X36988Y-45090D01*
X37011Y-45090D01*
X37237Y-45045D01*
X37338Y-44977D01*
X37363Y-45038D01*
X37461Y-45136D01*
X37590Y-45190D01*
X37902Y-45190D01*
X37990Y-45102D01*
X37990Y-44510D01*
X37982Y-44510D01*
X37982Y-44490D01*
X37990Y-44490D01*
X37990Y-43897D01*
X37902Y-43810D01*
X37590Y-43810D01*
X37461Y-43863D01*
X37363Y-43961D01*
X37338Y-44022D01*
X37237Y-43954D01*
X37011Y-43910D01*
X36988Y-43910D01*
X36762Y-43954D01*
X36571Y-44082D01*
X36500Y-44189D01*
X36428Y-44082D01*
X36237Y-43954D01*
X36011Y-43910D01*
X35988Y-43910D01*
X35762Y-43954D01*
X35571Y-44082D01*
X35500Y-44189D01*
X35450Y-44114D01*
X35450Y-43385D01*
X35500Y-43310D01*
X35571Y-43417D01*
X35762Y-43545D01*
X35988Y-43590D01*
X36011Y-43590D01*
X36237Y-43545D01*
X36428Y-43417D01*
X36500Y-43310D01*
X36571Y-43417D01*
X36762Y-43545D01*
X36988Y-43590D01*
X37011Y-43590D01*
X37237Y-43545D01*
X37338Y-43477D01*
X37363Y-43538D01*
X37461Y-43636D01*
X37590Y-43690D01*
X37902Y-43690D01*
X37990Y-43602D01*
X37990Y-43010D01*
X37982Y-43010D01*
X37982Y-42990D01*
X37990Y-42990D01*
X37990Y-42397D01*
X37902Y-42310D01*
X37590Y-42310D01*
X37461Y-42363D01*
X37363Y-42461D01*
X37338Y-42522D01*
X37237Y-42454D01*
X37011Y-42410D01*
X36988Y-42410D01*
X36762Y-42454D01*
X36571Y-42582D01*
X36500Y-42689D01*
X36428Y-42582D01*
X36237Y-42454D01*
X36011Y-42410D01*
X35988Y-42410D01*
X35762Y-42454D01*
X35571Y-42582D01*
X35500Y-42689D01*
X35450Y-42614D01*
X35450Y-41885D01*
X35500Y-41810D01*
X35571Y-41917D01*
X35762Y-42045D01*
X35988Y-42090D01*
X36011Y-42090D01*
X36237Y-42045D01*
X36428Y-41917D01*
X36500Y-41810D01*
X36571Y-41917D01*
X36762Y-42045D01*
X36988Y-42090D01*
X37011Y-42090D01*
X37237Y-42045D01*
X37338Y-41977D01*
X37363Y-42038D01*
X37461Y-42136D01*
X37590Y-42190D01*
X37902Y-42190D01*
X37990Y-42102D01*
X37990Y-41510D01*
X37982Y-41510D01*
X37982Y-41490D01*
X37990Y-41490D01*
X37990Y-41482D01*
X38010Y-41482D01*
X38010Y-41490D01*
X38017Y-41490D01*
X38017Y-41510D01*
X38010Y-41510D01*
X38010Y-42102D01*
X38097Y-42190D01*
X38409Y-42190D01*
X38462Y-42168D01*
X38459Y-42254D01*
X38493Y-42344D01*
X38409Y-42310D01*
X38097Y-42310D01*
X38010Y-42397D01*
X38010Y-42990D01*
X38602Y-42990D01*
X38690Y-42902D01*
X38690Y-42847D01*
X38731Y-42909D01*
X38950Y-43034D01*
X39985Y-42000D01*
X39980Y-41994D01*
X39994Y-41980D01*
X40000Y-41985D01*
X40005Y-41980D01*
X40019Y-41994D01*
X40014Y-42000D01*
X40019Y-42005D01*
X40005Y-42019D01*
X40000Y-42014D01*
X38965Y-43049D01*
X39090Y-43268D01*
X39645Y-43520D01*
X40042Y-43533D01*
X39250Y-44325D01*
X39165Y-44324D01*
X39009Y-44389D01*
X38889Y-44508D01*
X38825Y-44665D01*
X38824Y-44834D01*
X38889Y-44990D01*
X38898Y-44999D01*
X38889Y-45008D01*
X38825Y-45165D01*
X38824Y-45334D01*
X38889Y-45490D01*
X39008Y-45610D01*
X39165Y-45674D01*
X39224Y-45674D01*
X39139Y-45758D01*
X39075Y-45915D01*
X39074Y-46084D01*
X39139Y-46240D01*
X39258Y-46360D01*
X39415Y-46424D01*
X39584Y-46425D01*
X39740Y-46360D01*
X39860Y-46241D01*
X39924Y-46084D01*
X39925Y-45999D01*
X41124Y-44800D01*
X41427Y-44800D01*
X41454Y-44864D01*
X41635Y-45045D01*
X41871Y-45143D01*
X42127Y-45143D01*
X42364Y-45045D01*
X42545Y-44864D01*
X42643Y-44628D01*
X42643Y-44372D01*
X42545Y-44135D01*
X42364Y-43954D01*
X42128Y-43856D01*
X41872Y-43856D01*
X41635Y-43954D01*
X41454Y-44135D01*
X41427Y-44200D01*
X41000Y-44200D01*
X40885Y-44222D01*
X40846Y-44248D01*
X40787Y-44287D01*
X39628Y-45447D01*
X39674Y-45334D01*
X39675Y-45249D01*
X41507Y-43417D01*
X41635Y-43545D01*
X41871Y-43643D01*
X42127Y-43643D01*
X42364Y-43545D01*
X42545Y-43364D01*
X42643Y-43128D01*
X42643Y-42872D01*
X42545Y-42635D01*
X42364Y-42454D01*
X42128Y-42356D01*
X42067Y-42356D01*
X42212Y-42212D01*
X42212Y-42212D01*
X42251Y-42153D01*
X42277Y-42114D01*
X42277Y-42114D01*
X42284Y-42078D01*
X42284Y-42078D01*
X42364Y-42045D01*
X42545Y-41864D01*
X42643Y-41628D01*
X42643Y-41372D01*
X42545Y-41135D01*
X42364Y-40954D01*
X42303Y-40929D01*
X45696Y-40929D01*
G36*
X46689Y-45000D02*
X46582Y-45071D01*
X46454Y-45262D01*
X46410Y-45488D01*
X46410Y-45499D01*
X46364Y-45454D01*
X46128Y-45356D01*
X45872Y-45356D01*
X45635Y-45454D01*
X45454Y-45635D01*
X45356Y-45871D01*
X45356Y-46127D01*
X45383Y-46192D01*
X43600Y-47975D01*
X43175Y-47975D01*
X43083Y-48013D01*
X43013Y-48083D01*
X42993Y-48130D01*
X42895Y-48118D01*
X42514Y-48500D01*
X42519Y-48505D01*
X42505Y-48519D01*
X42500Y-48514D01*
X42494Y-48519D01*
X42480Y-48505D01*
X42485Y-48500D01*
X42480Y-48494D01*
X42494Y-48480D01*
X42500Y-48485D01*
X42881Y-48104D01*
X42866Y-47978D01*
X42639Y-47878D01*
X42534Y-47875D01*
X42545Y-47864D01*
X42643Y-47628D01*
X42643Y-47372D01*
X42545Y-47135D01*
X42460Y-47050D01*
X43750Y-47050D01*
X43750Y-47049D01*
X43864Y-47027D01*
X43864Y-47027D01*
X43962Y-46962D01*
X45807Y-45116D01*
X45871Y-45143D01*
X46127Y-45143D01*
X46364Y-45045D01*
X46542Y-44867D01*
X46582Y-44928D01*
X46689Y-45000D01*
X46689Y-45000D01*
G37*
X46689Y-45000D02*
X46582Y-45071D01*
X46454Y-45262D01*
X46410Y-45488D01*
X46410Y-45499D01*
X46364Y-45454D01*
X46128Y-45356D01*
X45872Y-45356D01*
X45635Y-45454D01*
X45454Y-45635D01*
X45356Y-45871D01*
X45356Y-46127D01*
X45383Y-46192D01*
X43600Y-47975D01*
X43175Y-47975D01*
X43083Y-48013D01*
X43013Y-48083D01*
X42993Y-48130D01*
X42895Y-48118D01*
X42514Y-48500D01*
X42519Y-48505D01*
X42505Y-48519D01*
X42500Y-48514D01*
X42494Y-48519D01*
X42480Y-48505D01*
X42485Y-48500D01*
X42480Y-48494D01*
X42494Y-48480D01*
X42500Y-48485D01*
X42881Y-48104D01*
X42866Y-47978D01*
X42639Y-47878D01*
X42534Y-47875D01*
X42545Y-47864D01*
X42643Y-47628D01*
X42643Y-47372D01*
X42545Y-47135D01*
X42460Y-47050D01*
X43750Y-47050D01*
X43750Y-47049D01*
X43864Y-47027D01*
X43864Y-47027D01*
X43962Y-46962D01*
X45807Y-45116D01*
X45871Y-45143D01*
X46127Y-45143D01*
X46364Y-45045D01*
X46542Y-44867D01*
X46582Y-44928D01*
X46689Y-45000D01*
G36*
X46689Y-47000D02*
X46582Y-47071D01*
X46542Y-47132D01*
X46364Y-46954D01*
X46128Y-46856D01*
X45872Y-46856D01*
X45635Y-46954D01*
X45454Y-47135D01*
X45356Y-47371D01*
X45356Y-47627D01*
X45383Y-47692D01*
X44375Y-48700D01*
X44025Y-48700D01*
X44025Y-48399D01*
X45807Y-46616D01*
X45871Y-46643D01*
X46127Y-46643D01*
X46364Y-46545D01*
X46410Y-46499D01*
X46410Y-46511D01*
X46454Y-46737D01*
X46582Y-46928D01*
X46689Y-47000D01*
X46689Y-47000D01*
G37*
X46689Y-47000D02*
X46582Y-47071D01*
X46542Y-47132D01*
X46364Y-46954D01*
X46128Y-46856D01*
X45872Y-46856D01*
X45635Y-46954D01*
X45454Y-47135D01*
X45356Y-47371D01*
X45356Y-47627D01*
X45383Y-47692D01*
X44375Y-48700D01*
X44025Y-48700D01*
X44025Y-48399D01*
X45807Y-46616D01*
X45871Y-46643D01*
X46127Y-46643D01*
X46364Y-46545D01*
X46410Y-46499D01*
X46410Y-46511D01*
X46454Y-46737D01*
X46582Y-46928D01*
X46689Y-47000D01*
G36*
X48017Y-43510D02*
X48010Y-43510D01*
X48010Y-43517D01*
X47990Y-43517D01*
X47990Y-43510D01*
X47602Y-43510D01*
X47397Y-43510D01*
X47010Y-43510D01*
X47010Y-43517D01*
X46990Y-43517D01*
X46990Y-43510D01*
X46982Y-43510D01*
X46982Y-43490D01*
X46990Y-43490D01*
X46990Y-43482D01*
X47010Y-43482D01*
X47010Y-43490D01*
X47397Y-43490D01*
X47602Y-43490D01*
X47990Y-43490D01*
X47990Y-43482D01*
X48010Y-43482D01*
X48010Y-43490D01*
X48017Y-43490D01*
X48017Y-43510D01*
X48017Y-43510D01*
G37*
X48017Y-43510D02*
X48010Y-43510D01*
X48010Y-43517D01*
X47990Y-43517D01*
X47990Y-43510D01*
X47602Y-43510D01*
X47397Y-43510D01*
X47010Y-43510D01*
X47010Y-43517D01*
X46990Y-43517D01*
X46990Y-43510D01*
X46982Y-43510D01*
X46982Y-43490D01*
X46990Y-43490D01*
X46990Y-43482D01*
X47010Y-43482D01*
X47010Y-43490D01*
X47397Y-43490D01*
X47602Y-43490D01*
X47990Y-43490D01*
X47990Y-43482D01*
X48010Y-43482D01*
X48010Y-43490D01*
X48017Y-43490D01*
X48017Y-43510D01*
G36*
X49050Y-50450D02*
X47881Y-50450D01*
X47881Y-49895D01*
X47500Y-49514D01*
X47118Y-49895D01*
X47133Y-50021D01*
X47360Y-50121D01*
X47609Y-50127D01*
X47841Y-50038D01*
X47866Y-50021D01*
X47881Y-49895D01*
X47881Y-50450D01*
X45881Y-50450D01*
X45881Y-49895D01*
X45500Y-49514D01*
X45485Y-49528D01*
X45485Y-49500D01*
X45104Y-49118D01*
X44978Y-49133D01*
X44878Y-49360D01*
X44872Y-49609D01*
X44961Y-49841D01*
X44978Y-49866D01*
X45104Y-49881D01*
X45485Y-49500D01*
X45485Y-49528D01*
X45118Y-49895D01*
X45133Y-50021D01*
X45360Y-50121D01*
X45609Y-50127D01*
X45841Y-50038D01*
X45866Y-50021D01*
X45881Y-49895D01*
X45881Y-50450D01*
X45020Y-50450D01*
X44020Y-49450D01*
X35022Y-49450D01*
X34894Y-49300D01*
X44500Y-49300D01*
X44500Y-49299D01*
X44614Y-49277D01*
X44614Y-49277D01*
X44712Y-49212D01*
X45807Y-48116D01*
X45871Y-48143D01*
X46127Y-48143D01*
X46251Y-48092D01*
X46222Y-48135D01*
X46200Y-48250D01*
X46200Y-49057D01*
X46055Y-49202D01*
X46055Y-49202D01*
X46038Y-49158D01*
X46021Y-49133D01*
X45895Y-49118D01*
X45881Y-49132D01*
X45881Y-49104D01*
X45866Y-48978D01*
X45639Y-48878D01*
X45390Y-48872D01*
X45158Y-48961D01*
X45133Y-48978D01*
X45118Y-49104D01*
X45500Y-49485D01*
X45881Y-49104D01*
X45881Y-49132D01*
X45514Y-49500D01*
X45895Y-49881D01*
X46021Y-49866D01*
X46053Y-49793D01*
X46054Y-49797D01*
X46202Y-49944D01*
X46395Y-50024D01*
X46603Y-50025D01*
X46797Y-49945D01*
X46944Y-49797D01*
X46944Y-49797D01*
X46961Y-49841D01*
X46978Y-49866D01*
X47104Y-49881D01*
X47485Y-49500D01*
X47480Y-49494D01*
X47494Y-49480D01*
X47500Y-49485D01*
X47505Y-49480D01*
X47519Y-49494D01*
X47514Y-49500D01*
X47895Y-49881D01*
X47993Y-49869D01*
X48013Y-49916D01*
X48083Y-49986D01*
X48175Y-50025D01*
X48274Y-50025D01*
X48824Y-50025D01*
X48916Y-49986D01*
X48986Y-49916D01*
X49025Y-49824D01*
X49025Y-49725D01*
X49025Y-49175D01*
X49015Y-49151D01*
X49050Y-49186D01*
X49050Y-50450D01*
X49050Y-50450D01*
G37*
X49050Y-50450D02*
X47881Y-50450D01*
X47881Y-49895D01*
X47500Y-49514D01*
X47118Y-49895D01*
X47133Y-50021D01*
X47360Y-50121D01*
X47609Y-50127D01*
X47841Y-50038D01*
X47866Y-50021D01*
X47881Y-49895D01*
X47881Y-50450D01*
X45881Y-50450D01*
X45881Y-49895D01*
X45500Y-49514D01*
X45485Y-49528D01*
X45485Y-49500D01*
X45104Y-49118D01*
X44978Y-49133D01*
X44878Y-49360D01*
X44872Y-49609D01*
X44961Y-49841D01*
X44978Y-49866D01*
X45104Y-49881D01*
X45485Y-49500D01*
X45485Y-49528D01*
X45118Y-49895D01*
X45133Y-50021D01*
X45360Y-50121D01*
X45609Y-50127D01*
X45841Y-50038D01*
X45866Y-50021D01*
X45881Y-49895D01*
X45881Y-50450D01*
X45020Y-50450D01*
X44020Y-49450D01*
X35022Y-49450D01*
X34894Y-49300D01*
X44500Y-49300D01*
X44500Y-49299D01*
X44614Y-49277D01*
X44614Y-49277D01*
X44712Y-49212D01*
X45807Y-48116D01*
X45871Y-48143D01*
X46127Y-48143D01*
X46251Y-48092D01*
X46222Y-48135D01*
X46200Y-48250D01*
X46200Y-49057D01*
X46055Y-49202D01*
X46055Y-49202D01*
X46038Y-49158D01*
X46021Y-49133D01*
X45895Y-49118D01*
X45881Y-49132D01*
X45881Y-49104D01*
X45866Y-48978D01*
X45639Y-48878D01*
X45390Y-48872D01*
X45158Y-48961D01*
X45133Y-48978D01*
X45118Y-49104D01*
X45500Y-49485D01*
X45881Y-49104D01*
X45881Y-49132D01*
X45514Y-49500D01*
X45895Y-49881D01*
X46021Y-49866D01*
X46053Y-49793D01*
X46054Y-49797D01*
X46202Y-49944D01*
X46395Y-50024D01*
X46603Y-50025D01*
X46797Y-49945D01*
X46944Y-49797D01*
X46944Y-49797D01*
X46961Y-49841D01*
X46978Y-49866D01*
X47104Y-49881D01*
X47485Y-49500D01*
X47480Y-49494D01*
X47494Y-49480D01*
X47500Y-49485D01*
X47505Y-49480D01*
X47519Y-49494D01*
X47514Y-49500D01*
X47895Y-49881D01*
X47993Y-49869D01*
X48013Y-49916D01*
X48083Y-49986D01*
X48175Y-50025D01*
X48274Y-50025D01*
X48824Y-50025D01*
X48916Y-49986D01*
X48986Y-49916D01*
X49025Y-49824D01*
X49025Y-49725D01*
X49025Y-49175D01*
X49015Y-49151D01*
X49050Y-49186D01*
X49050Y-50450D01*
G36*
X49572Y-48436D02*
X49318Y-48181D01*
X49172Y-48084D01*
X49000Y-48050D01*
X48624Y-48050D01*
X48712Y-47962D01*
X48712Y-47962D01*
X48751Y-47903D01*
X48777Y-47864D01*
X48777Y-47864D01*
X48800Y-47750D01*
X48800Y-43250D01*
X48777Y-43135D01*
X48777Y-43135D01*
X48751Y-43096D01*
X48712Y-43037D01*
X48491Y-42817D01*
X48545Y-42737D01*
X48590Y-42511D01*
X48590Y-42488D01*
X48545Y-42262D01*
X48417Y-42071D01*
X48310Y-42000D01*
X48417Y-41928D01*
X48545Y-41737D01*
X48590Y-41511D01*
X48590Y-41488D01*
X48545Y-41262D01*
X48417Y-41071D01*
X48225Y-40943D01*
X48154Y-40929D01*
X49572Y-40929D01*
X49572Y-48436D01*
X49572Y-48436D01*
G37*
X49572Y-48436D02*
X49318Y-48181D01*
X49172Y-48084D01*
X49000Y-48050D01*
X48624Y-48050D01*
X48712Y-47962D01*
X48712Y-47962D01*
X48751Y-47903D01*
X48777Y-47864D01*
X48777Y-47864D01*
X48800Y-47750D01*
X48800Y-43250D01*
X48777Y-43135D01*
X48777Y-43135D01*
X48751Y-43096D01*
X48712Y-43037D01*
X48491Y-42817D01*
X48545Y-42737D01*
X48590Y-42511D01*
X48590Y-42488D01*
X48545Y-42262D01*
X48417Y-42071D01*
X48310Y-42000D01*
X48417Y-41928D01*
X48545Y-41737D01*
X48590Y-41511D01*
X48590Y-41488D01*
X48545Y-41262D01*
X48417Y-41071D01*
X48225Y-40943D01*
X48154Y-40929D01*
X49572Y-40929D01*
X49572Y-48436D01*
G36*
X49572Y-53451D02*
X49545Y-53385D01*
X49364Y-53204D01*
X49128Y-53106D01*
X48872Y-53106D01*
X48700Y-53177D01*
X48700Y-52985D01*
X48797Y-52945D01*
X48944Y-52797D01*
X49024Y-52604D01*
X49025Y-52396D01*
X48945Y-52203D01*
X48797Y-52055D01*
X48604Y-51975D01*
X48396Y-51974D01*
X48203Y-52054D01*
X48055Y-52202D01*
X47999Y-52335D01*
X47945Y-52203D01*
X47797Y-52055D01*
X47604Y-51975D01*
X47396Y-51974D01*
X47203Y-52054D01*
X47055Y-52202D01*
X46999Y-52335D01*
X46945Y-52203D01*
X46797Y-52055D01*
X46604Y-51975D01*
X46396Y-51974D01*
X46203Y-52054D01*
X46055Y-52202D01*
X45999Y-52335D01*
X45945Y-52203D01*
X45797Y-52055D01*
X45604Y-51975D01*
X45396Y-51974D01*
X45203Y-52054D01*
X45055Y-52202D01*
X44991Y-52356D01*
X44891Y-52095D01*
X44869Y-52062D01*
X44731Y-52032D01*
X44264Y-52500D01*
X44269Y-52505D01*
X44255Y-52519D01*
X44250Y-52514D01*
X44244Y-52519D01*
X44230Y-52505D01*
X44235Y-52500D01*
X44230Y-52494D01*
X44244Y-52480D01*
X44250Y-52485D01*
X44717Y-52018D01*
X44687Y-51880D01*
X44417Y-51760D01*
X44121Y-51752D01*
X43907Y-51835D01*
X43944Y-51797D01*
X44024Y-51604D01*
X44025Y-51396D01*
X43945Y-51203D01*
X43797Y-51055D01*
X43604Y-50975D01*
X43396Y-50974D01*
X43203Y-51054D01*
X43055Y-51202D01*
X42999Y-51335D01*
X42945Y-51203D01*
X42797Y-51055D01*
X42604Y-50975D01*
X42396Y-50974D01*
X42203Y-51054D01*
X42055Y-51202D01*
X41999Y-51335D01*
X41945Y-51203D01*
X41797Y-51055D01*
X41604Y-50975D01*
X41396Y-50974D01*
X41203Y-51054D01*
X41055Y-51202D01*
X40999Y-51335D01*
X40945Y-51203D01*
X40797Y-51055D01*
X40604Y-50975D01*
X40396Y-50974D01*
X40203Y-51054D01*
X40055Y-51202D01*
X40006Y-51319D01*
X39287Y-52037D01*
X39251Y-52091D01*
X39114Y-51954D01*
X38883Y-51858D01*
X38944Y-51797D01*
X39024Y-51604D01*
X39025Y-51396D01*
X38945Y-51203D01*
X38797Y-51055D01*
X38604Y-50975D01*
X38396Y-50974D01*
X38203Y-51054D01*
X38055Y-51202D01*
X37999Y-51335D01*
X37945Y-51203D01*
X37797Y-51055D01*
X37604Y-50975D01*
X37396Y-50974D01*
X37203Y-51054D01*
X37055Y-51202D01*
X36999Y-51335D01*
X36945Y-51203D01*
X36797Y-51055D01*
X36604Y-50975D01*
X36396Y-50974D01*
X36203Y-51054D01*
X36055Y-51202D01*
X35999Y-51335D01*
X35945Y-51203D01*
X35797Y-51055D01*
X35604Y-50975D01*
X35396Y-50974D01*
X35203Y-51054D01*
X35055Y-51202D01*
X34975Y-51395D01*
X34974Y-51603D01*
X35054Y-51797D01*
X35099Y-51841D01*
X34917Y-51760D01*
X34621Y-51752D01*
X34345Y-51858D01*
X34312Y-51880D01*
X34282Y-52018D01*
X34750Y-52485D01*
X34755Y-52480D01*
X34769Y-52494D01*
X34764Y-52500D01*
X34769Y-52505D01*
X34755Y-52519D01*
X34750Y-52514D01*
X34744Y-52519D01*
X34730Y-52505D01*
X34735Y-52500D01*
X34268Y-52032D01*
X34130Y-52062D01*
X34084Y-52166D01*
X34084Y-51877D01*
X34040Y-51653D01*
X33950Y-51518D01*
X33950Y-50071D01*
X33962Y-50059D01*
X34045Y-49858D01*
X34045Y-49641D01*
X34027Y-49598D01*
X34979Y-50550D01*
X43979Y-50550D01*
X44979Y-51550D01*
X49572Y-51550D01*
X49572Y-53451D01*
X49572Y-53451D01*
G37*
X49572Y-53451D02*
X49545Y-53385D01*
X49364Y-53204D01*
X49128Y-53106D01*
X48872Y-53106D01*
X48700Y-53177D01*
X48700Y-52985D01*
X48797Y-52945D01*
X48944Y-52797D01*
X49024Y-52604D01*
X49025Y-52396D01*
X48945Y-52203D01*
X48797Y-52055D01*
X48604Y-51975D01*
X48396Y-51974D01*
X48203Y-52054D01*
X48055Y-52202D01*
X47999Y-52335D01*
X47945Y-52203D01*
X47797Y-52055D01*
X47604Y-51975D01*
X47396Y-51974D01*
X47203Y-52054D01*
X47055Y-52202D01*
X46999Y-52335D01*
X46945Y-52203D01*
X46797Y-52055D01*
X46604Y-51975D01*
X46396Y-51974D01*
X46203Y-52054D01*
X46055Y-52202D01*
X45999Y-52335D01*
X45945Y-52203D01*
X45797Y-52055D01*
X45604Y-51975D01*
X45396Y-51974D01*
X45203Y-52054D01*
X45055Y-52202D01*
X44991Y-52356D01*
X44891Y-52095D01*
X44869Y-52062D01*
X44731Y-52032D01*
X44264Y-52500D01*
X44269Y-52505D01*
X44255Y-52519D01*
X44250Y-52514D01*
X44244Y-52519D01*
X44230Y-52505D01*
X44235Y-52500D01*
X44230Y-52494D01*
X44244Y-52480D01*
X44250Y-52485D01*
X44717Y-52018D01*
X44687Y-51880D01*
X44417Y-51760D01*
X44121Y-51752D01*
X43907Y-51835D01*
X43944Y-51797D01*
X44024Y-51604D01*
X44025Y-51396D01*
X43945Y-51203D01*
X43797Y-51055D01*
X43604Y-50975D01*
X43396Y-50974D01*
X43203Y-51054D01*
X43055Y-51202D01*
X42999Y-51335D01*
X42945Y-51203D01*
X42797Y-51055D01*
X42604Y-50975D01*
X42396Y-50974D01*
X42203Y-51054D01*
X42055Y-51202D01*
X41999Y-51335D01*
X41945Y-51203D01*
X41797Y-51055D01*
X41604Y-50975D01*
X41396Y-50974D01*
X41203Y-51054D01*
X41055Y-51202D01*
X40999Y-51335D01*
X40945Y-51203D01*
X40797Y-51055D01*
X40604Y-50975D01*
X40396Y-50974D01*
X40203Y-51054D01*
X40055Y-51202D01*
X40006Y-51319D01*
X39287Y-52037D01*
X39251Y-52091D01*
X39114Y-51954D01*
X38883Y-51858D01*
X38944Y-51797D01*
X39024Y-51604D01*
X39025Y-51396D01*
X38945Y-51203D01*
X38797Y-51055D01*
X38604Y-50975D01*
X38396Y-50974D01*
X38203Y-51054D01*
X38055Y-51202D01*
X37999Y-51335D01*
X37945Y-51203D01*
X37797Y-51055D01*
X37604Y-50975D01*
X37396Y-50974D01*
X37203Y-51054D01*
X37055Y-51202D01*
X36999Y-51335D01*
X36945Y-51203D01*
X36797Y-51055D01*
X36604Y-50975D01*
X36396Y-50974D01*
X36203Y-51054D01*
X36055Y-51202D01*
X35999Y-51335D01*
X35945Y-51203D01*
X35797Y-51055D01*
X35604Y-50975D01*
X35396Y-50974D01*
X35203Y-51054D01*
X35055Y-51202D01*
X34975Y-51395D01*
X34974Y-51603D01*
X35054Y-51797D01*
X35099Y-51841D01*
X34917Y-51760D01*
X34621Y-51752D01*
X34345Y-51858D01*
X34312Y-51880D01*
X34282Y-52018D01*
X34750Y-52485D01*
X34755Y-52480D01*
X34769Y-52494D01*
X34764Y-52500D01*
X34769Y-52505D01*
X34755Y-52519D01*
X34750Y-52514D01*
X34744Y-52519D01*
X34730Y-52505D01*
X34735Y-52500D01*
X34268Y-52032D01*
X34130Y-52062D01*
X34084Y-52166D01*
X34084Y-51877D01*
X34040Y-51653D01*
X33950Y-51518D01*
X33950Y-50071D01*
X33962Y-50059D01*
X34045Y-49858D01*
X34045Y-49641D01*
X34027Y-49598D01*
X34979Y-50550D01*
X43979Y-50550D01*
X44979Y-51550D01*
X49572Y-51550D01*
X49572Y-53451D01*
G36*
X49572Y-60074D02*
X44631Y-60074D01*
X44631Y-59395D01*
X44250Y-59014D01*
X44235Y-59028D01*
X44235Y-59000D01*
X43854Y-58618D01*
X43750Y-58630D01*
X43645Y-58618D01*
X43631Y-58632D01*
X43631Y-58604D01*
X43631Y-56395D01*
X43250Y-56014D01*
X42868Y-56395D01*
X42883Y-56521D01*
X43110Y-56621D01*
X43359Y-56627D01*
X43591Y-56538D01*
X43616Y-56521D01*
X43631Y-56395D01*
X43631Y-58604D01*
X43616Y-58478D01*
X43389Y-58378D01*
X43140Y-58372D01*
X42908Y-58461D01*
X42883Y-58478D01*
X42868Y-58604D01*
X43250Y-58985D01*
X43631Y-58604D01*
X43631Y-58632D01*
X43264Y-59000D01*
X43645Y-59381D01*
X43750Y-59369D01*
X43854Y-59381D01*
X44235Y-59000D01*
X44235Y-59028D01*
X43868Y-59395D01*
X43883Y-59521D01*
X44110Y-59621D01*
X44359Y-59627D01*
X44591Y-59538D01*
X44616Y-59521D01*
X44631Y-59395D01*
X44631Y-60074D01*
X43631Y-60074D01*
X43631Y-59395D01*
X43250Y-59014D01*
X42868Y-59395D01*
X42883Y-59521D01*
X43110Y-59621D01*
X43359Y-59627D01*
X43591Y-59538D01*
X43616Y-59521D01*
X43631Y-59395D01*
X43631Y-60074D01*
X39150Y-60074D01*
X39150Y-59199D01*
X39150Y-59100D01*
X39150Y-58300D01*
X39111Y-58208D01*
X39041Y-58138D01*
X39021Y-58129D01*
X39100Y-58011D01*
X39150Y-57762D01*
X39150Y-57737D01*
X39100Y-57488D01*
X38959Y-57277D01*
X38748Y-57136D01*
X38500Y-57087D01*
X38251Y-57136D01*
X38040Y-57277D01*
X37899Y-57488D01*
X37850Y-57737D01*
X37850Y-57762D01*
X37899Y-58011D01*
X37978Y-58129D01*
X37958Y-58138D01*
X37888Y-58208D01*
X37850Y-58300D01*
X37850Y-58399D01*
X37850Y-59199D01*
X37888Y-59291D01*
X37958Y-59361D01*
X38050Y-59400D01*
X38149Y-59400D01*
X38949Y-59400D01*
X39041Y-59361D01*
X39111Y-59291D01*
X39150Y-59199D01*
X39150Y-60074D01*
X34750Y-60074D01*
X34750Y-57047D01*
X34662Y-56960D01*
X32510Y-56960D01*
X32510Y-56967D01*
X32490Y-56967D01*
X32490Y-56960D01*
X32482Y-56960D01*
X32482Y-56940D01*
X32490Y-56940D01*
X32490Y-53587D01*
X32490Y-53201D01*
X32490Y-52260D01*
X32482Y-52260D01*
X32482Y-52240D01*
X32490Y-52240D01*
X32490Y-51298D01*
X32383Y-51221D01*
X32247Y-51259D01*
X32023Y-51404D01*
X31950Y-51510D01*
X31950Y-51500D01*
X31915Y-51327D01*
X31818Y-51181D01*
X31703Y-51067D01*
X31712Y-51059D01*
X31795Y-50858D01*
X31795Y-50641D01*
X31712Y-50441D01*
X31584Y-50312D01*
X31602Y-50305D01*
X31628Y-50288D01*
X31646Y-50160D01*
X31250Y-49764D01*
X31235Y-49778D01*
X31235Y-49750D01*
X30839Y-49353D01*
X30711Y-49371D01*
X30607Y-49606D01*
X30601Y-49862D01*
X30694Y-50102D01*
X30711Y-50128D01*
X30839Y-50146D01*
X31235Y-49750D01*
X31235Y-49778D01*
X30853Y-50160D01*
X30871Y-50288D01*
X30919Y-50309D01*
X30787Y-50440D01*
X30704Y-50641D01*
X30704Y-50858D01*
X30787Y-51058D01*
X30800Y-51071D01*
X30800Y-51250D01*
X30834Y-51422D01*
X30931Y-51568D01*
X30982Y-51619D01*
X30959Y-51653D01*
X30915Y-51877D01*
X30915Y-52622D01*
X30959Y-52846D01*
X31086Y-53036D01*
X31276Y-53162D01*
X31500Y-53207D01*
X31723Y-53162D01*
X31913Y-53036D01*
X31947Y-52985D01*
X32023Y-53095D01*
X32247Y-53240D01*
X32383Y-53278D01*
X32490Y-53201D01*
X32490Y-53587D01*
X32402Y-53500D01*
X30669Y-53500D01*
X30530Y-53500D01*
X30427Y-53542D01*
X30427Y-49050D01*
X31764Y-49050D01*
X31774Y-49056D01*
X32000Y-49101D01*
X32225Y-49056D01*
X32235Y-49050D01*
X32669Y-49050D01*
X32681Y-49068D01*
X32782Y-49169D01*
X32643Y-49107D01*
X32387Y-49101D01*
X32147Y-49194D01*
X32121Y-49211D01*
X32103Y-49339D01*
X32500Y-49735D01*
X32505Y-49730D01*
X32519Y-49744D01*
X32514Y-49750D01*
X32910Y-50146D01*
X33038Y-50128D01*
X33050Y-50102D01*
X33050Y-51510D01*
X32976Y-51404D01*
X32896Y-51352D01*
X32896Y-50160D01*
X32500Y-49764D01*
X32485Y-49778D01*
X32485Y-49750D01*
X32089Y-49353D01*
X31961Y-49371D01*
X31873Y-49571D01*
X31805Y-49397D01*
X31788Y-49371D01*
X31660Y-49353D01*
X31646Y-49367D01*
X31646Y-49339D01*
X31628Y-49211D01*
X31393Y-49107D01*
X31137Y-49101D01*
X30897Y-49194D01*
X30871Y-49211D01*
X30853Y-49339D01*
X31250Y-49735D01*
X31646Y-49339D01*
X31646Y-49367D01*
X31264Y-49750D01*
X31660Y-50146D01*
X31788Y-50128D01*
X31876Y-49928D01*
X31944Y-50102D01*
X31961Y-50128D01*
X32089Y-50146D01*
X32485Y-49750D01*
X32485Y-49778D01*
X32103Y-50160D01*
X32121Y-50288D01*
X32356Y-50392D01*
X32612Y-50398D01*
X32852Y-50305D01*
X32878Y-50288D01*
X32896Y-50160D01*
X32896Y-51352D01*
X32752Y-51259D01*
X32616Y-51221D01*
X32510Y-51298D01*
X32510Y-52240D01*
X32517Y-52240D01*
X32517Y-52260D01*
X32510Y-52260D01*
X32510Y-53201D01*
X32616Y-53278D01*
X32752Y-53240D01*
X32976Y-53095D01*
X33050Y-52989D01*
X33050Y-53000D01*
X33084Y-53172D01*
X33181Y-53318D01*
X33363Y-53500D01*
X32597Y-53500D01*
X32510Y-53587D01*
X32510Y-56940D01*
X34662Y-56940D01*
X34750Y-56852D01*
X34750Y-53780D01*
X34716Y-53700D01*
X34819Y-53700D01*
X34760Y-53832D01*
X34752Y-54128D01*
X34858Y-54404D01*
X34880Y-54437D01*
X35018Y-54467D01*
X35485Y-54000D01*
X35480Y-53994D01*
X35494Y-53980D01*
X35500Y-53985D01*
X35505Y-53980D01*
X35519Y-53994D01*
X35514Y-54000D01*
X35981Y-54467D01*
X36119Y-54437D01*
X36221Y-54206D01*
X36268Y-54217D01*
X36735Y-53750D01*
X36730Y-53744D01*
X36744Y-53730D01*
X36750Y-53735D01*
X36755Y-53730D01*
X36769Y-53744D01*
X36764Y-53750D01*
X36769Y-53755D01*
X36755Y-53769D01*
X36750Y-53764D01*
X36282Y-54231D01*
X36312Y-54369D01*
X36554Y-54476D01*
X36550Y-54500D01*
X36550Y-54934D01*
X36518Y-54948D01*
X36448Y-55018D01*
X36410Y-55110D01*
X36410Y-55209D01*
X36410Y-55889D01*
X36448Y-55981D01*
X36518Y-56051D01*
X36585Y-56079D01*
X36500Y-56165D01*
X36410Y-56382D01*
X36409Y-56616D01*
X36499Y-56833D01*
X36665Y-56999D01*
X36665Y-57000D01*
X36500Y-57165D01*
X36410Y-57382D01*
X36409Y-57616D01*
X36499Y-57833D01*
X36550Y-57884D01*
X36550Y-58563D01*
X36409Y-58704D01*
X36391Y-58704D01*
X36191Y-58787D01*
X36037Y-58940D01*
X36000Y-59031D01*
X35962Y-58941D01*
X35809Y-58787D01*
X35800Y-58783D01*
X35800Y-58572D01*
X35864Y-58545D01*
X36045Y-58364D01*
X36143Y-58128D01*
X36143Y-57872D01*
X36045Y-57635D01*
X35967Y-57557D01*
X35967Y-54481D01*
X35500Y-54014D01*
X35032Y-54481D01*
X35062Y-54619D01*
X35332Y-54739D01*
X35628Y-54747D01*
X35904Y-54641D01*
X35937Y-54619D01*
X35967Y-54481D01*
X35967Y-57557D01*
X35864Y-57454D01*
X35628Y-57356D01*
X35372Y-57356D01*
X35135Y-57454D01*
X34954Y-57635D01*
X34856Y-57871D01*
X34856Y-58127D01*
X34954Y-58364D01*
X35135Y-58545D01*
X35200Y-58572D01*
X35200Y-58783D01*
X35191Y-58787D01*
X35037Y-58940D01*
X34954Y-59141D01*
X34954Y-59358D01*
X35037Y-59558D01*
X35190Y-59712D01*
X35391Y-59795D01*
X35608Y-59795D01*
X35808Y-59712D01*
X35962Y-59559D01*
X35999Y-59468D01*
X36037Y-59558D01*
X36190Y-59712D01*
X36391Y-59795D01*
X36608Y-59795D01*
X36808Y-59712D01*
X36962Y-59559D01*
X37045Y-59358D01*
X37045Y-59340D01*
X37318Y-59068D01*
X37415Y-58922D01*
X37450Y-58750D01*
X37450Y-57884D01*
X37499Y-57834D01*
X37589Y-57617D01*
X37589Y-57546D01*
X38590Y-56545D01*
X38608Y-56545D01*
X38808Y-56462D01*
X38962Y-56309D01*
X39045Y-56108D01*
X39045Y-55891D01*
X38962Y-55691D01*
X38834Y-55562D01*
X38852Y-55555D01*
X38878Y-55538D01*
X38896Y-55410D01*
X38500Y-55014D01*
X38494Y-55019D01*
X38480Y-55005D01*
X38485Y-55000D01*
X38480Y-54994D01*
X38494Y-54980D01*
X38500Y-54985D01*
X38896Y-54589D01*
X38878Y-54461D01*
X38795Y-54425D01*
X38834Y-54425D01*
X38990Y-54360D01*
X39110Y-54241D01*
X39174Y-54084D01*
X39175Y-53915D01*
X39110Y-53759D01*
X39050Y-53698D01*
X39050Y-53072D01*
X39114Y-53045D01*
X39200Y-52960D01*
X39200Y-53750D01*
X39222Y-53864D01*
X39287Y-53962D01*
X39450Y-54124D01*
X39450Y-54427D01*
X39385Y-54454D01*
X39204Y-54635D01*
X39125Y-54826D01*
X39055Y-54647D01*
X39038Y-54621D01*
X38910Y-54603D01*
X38514Y-55000D01*
X38910Y-55396D01*
X39038Y-55378D01*
X39127Y-55177D01*
X39204Y-55364D01*
X39385Y-55545D01*
X39450Y-55572D01*
X39450Y-57500D01*
X39472Y-57614D01*
X39537Y-57712D01*
X40300Y-58475D01*
X40146Y-58474D01*
X39953Y-58554D01*
X39805Y-58702D01*
X39725Y-58895D01*
X39724Y-59103D01*
X39804Y-59297D01*
X39952Y-59444D01*
X40145Y-59524D01*
X40353Y-59525D01*
X40547Y-59445D01*
X40694Y-59297D01*
X40750Y-59164D01*
X40804Y-59297D01*
X40952Y-59444D01*
X41145Y-59524D01*
X41353Y-59525D01*
X41547Y-59445D01*
X41694Y-59297D01*
X41750Y-59164D01*
X41804Y-59297D01*
X41952Y-59444D01*
X42145Y-59524D01*
X42353Y-59525D01*
X42547Y-59445D01*
X42694Y-59297D01*
X42694Y-59297D01*
X42711Y-59341D01*
X42728Y-59366D01*
X42854Y-59381D01*
X43235Y-59000D01*
X42854Y-58618D01*
X42728Y-58633D01*
X42696Y-58706D01*
X42695Y-58703D01*
X42547Y-58555D01*
X42354Y-58475D01*
X42146Y-58474D01*
X41953Y-58554D01*
X41805Y-58702D01*
X41749Y-58835D01*
X41695Y-58703D01*
X41547Y-58555D01*
X41354Y-58475D01*
X41149Y-58474D01*
X40050Y-57375D01*
X40050Y-56485D01*
X40145Y-56524D01*
X40353Y-56525D01*
X40547Y-56445D01*
X40694Y-56297D01*
X40747Y-56171D01*
X40756Y-56181D01*
X40804Y-56297D01*
X40952Y-56444D01*
X41145Y-56524D01*
X41353Y-56525D01*
X41547Y-56445D01*
X41694Y-56297D01*
X41750Y-56164D01*
X41804Y-56297D01*
X41952Y-56444D01*
X42145Y-56524D01*
X42353Y-56525D01*
X42547Y-56445D01*
X42694Y-56297D01*
X42694Y-56297D01*
X42711Y-56341D01*
X42728Y-56366D01*
X42854Y-56381D01*
X43235Y-56000D01*
X42854Y-55618D01*
X42728Y-55633D01*
X42696Y-55706D01*
X42695Y-55703D01*
X42547Y-55555D01*
X42354Y-55475D01*
X42146Y-55474D01*
X41953Y-55554D01*
X41805Y-55702D01*
X41749Y-55835D01*
X41695Y-55703D01*
X41547Y-55555D01*
X41354Y-55475D01*
X41146Y-55474D01*
X40971Y-55547D01*
X40800Y-55375D01*
X40800Y-54750D01*
X40777Y-54635D01*
X40712Y-54537D01*
X40712Y-54537D01*
X40529Y-54355D01*
X40621Y-54393D01*
X40877Y-54393D01*
X41114Y-54295D01*
X41295Y-54114D01*
X41393Y-53878D01*
X41393Y-53622D01*
X41295Y-53385D01*
X41240Y-53330D01*
X41212Y-53287D01*
X41169Y-53259D01*
X41114Y-53204D01*
X41050Y-53177D01*
X41050Y-53124D01*
X41212Y-52962D01*
X41212Y-52962D01*
X41251Y-52903D01*
X41277Y-52864D01*
X41277Y-52864D01*
X41300Y-52750D01*
X41300Y-52374D01*
X41374Y-52300D01*
X43125Y-52300D01*
X43200Y-52374D01*
X43200Y-52750D01*
X43222Y-52864D01*
X43287Y-52962D01*
X43787Y-53462D01*
X43787Y-53462D01*
X43885Y-53527D01*
X44000Y-53550D01*
X44250Y-53550D01*
X44250Y-53549D01*
X44277Y-53544D01*
X44260Y-53582D01*
X44252Y-53878D01*
X44358Y-54154D01*
X44380Y-54187D01*
X44518Y-54217D01*
X44985Y-53750D01*
X44980Y-53744D01*
X44994Y-53730D01*
X45000Y-53735D01*
X45005Y-53730D01*
X45019Y-53744D01*
X45014Y-53750D01*
X45481Y-54217D01*
X45619Y-54187D01*
X45739Y-53917D01*
X45745Y-53670D01*
X45950Y-53874D01*
X45950Y-55557D01*
X45805Y-55702D01*
X45749Y-55835D01*
X45747Y-55828D01*
X45747Y-54871D01*
X45641Y-54595D01*
X45619Y-54562D01*
X45481Y-54532D01*
X45467Y-54547D01*
X45467Y-54518D01*
X45437Y-54380D01*
X45426Y-54376D01*
X45437Y-54369D01*
X45467Y-54231D01*
X45000Y-53764D01*
X44532Y-54231D01*
X44562Y-54369D01*
X44573Y-54373D01*
X44562Y-54380D01*
X44532Y-54518D01*
X45000Y-54985D01*
X45467Y-54518D01*
X45467Y-54547D01*
X45014Y-55000D01*
X45481Y-55467D01*
X45619Y-55437D01*
X45739Y-55167D01*
X45747Y-54871D01*
X45747Y-55828D01*
X45695Y-55703D01*
X45547Y-55555D01*
X45459Y-55518D01*
X45467Y-55481D01*
X45000Y-55014D01*
X44994Y-55019D01*
X44980Y-55005D01*
X44985Y-55000D01*
X44518Y-54532D01*
X44380Y-54562D01*
X44376Y-54573D01*
X44369Y-54562D01*
X44231Y-54532D01*
X44217Y-54547D01*
X44217Y-54518D01*
X44187Y-54380D01*
X43917Y-54260D01*
X43621Y-54252D01*
X43345Y-54358D01*
X43312Y-54380D01*
X43282Y-54518D01*
X43750Y-54985D01*
X44217Y-54518D01*
X44217Y-54547D01*
X43764Y-55000D01*
X43769Y-55005D01*
X43755Y-55019D01*
X43750Y-55014D01*
X43744Y-55019D01*
X43730Y-55005D01*
X43735Y-55000D01*
X43268Y-54532D01*
X43130Y-54562D01*
X43010Y-54832D01*
X43002Y-55128D01*
X43102Y-55387D01*
X42908Y-55461D01*
X42883Y-55478D01*
X42868Y-55604D01*
X43250Y-55985D01*
X43255Y-55980D01*
X43269Y-55994D01*
X43264Y-56000D01*
X43645Y-56381D01*
X43750Y-56369D01*
X43854Y-56381D01*
X44235Y-56000D01*
X44230Y-55994D01*
X44244Y-55980D01*
X44250Y-55985D01*
X44255Y-55980D01*
X44269Y-55994D01*
X44264Y-56000D01*
X44645Y-56381D01*
X44771Y-56366D01*
X44803Y-56293D01*
X44804Y-56297D01*
X44952Y-56444D01*
X45145Y-56524D01*
X45353Y-56525D01*
X45547Y-56445D01*
X45694Y-56297D01*
X45750Y-56164D01*
X45804Y-56297D01*
X45952Y-56444D01*
X46145Y-56524D01*
X46353Y-56525D01*
X46450Y-56485D01*
X46450Y-57625D01*
X46037Y-58037D01*
X45972Y-58135D01*
X45950Y-58250D01*
X45950Y-58557D01*
X45805Y-58702D01*
X45749Y-58835D01*
X45695Y-58703D01*
X45547Y-58555D01*
X45354Y-58475D01*
X45146Y-58474D01*
X44953Y-58554D01*
X44805Y-58702D01*
X44805Y-58702D01*
X44788Y-58658D01*
X44771Y-58633D01*
X44645Y-58618D01*
X44631Y-58632D01*
X44631Y-58604D01*
X44631Y-56395D01*
X44250Y-56014D01*
X43868Y-56395D01*
X43883Y-56521D01*
X44110Y-56621D01*
X44359Y-56627D01*
X44591Y-56538D01*
X44616Y-56521D01*
X44631Y-56395D01*
X44631Y-58604D01*
X44616Y-58478D01*
X44389Y-58378D01*
X44140Y-58372D01*
X43908Y-58461D01*
X43883Y-58478D01*
X43868Y-58604D01*
X44250Y-58985D01*
X44631Y-58604D01*
X44631Y-58632D01*
X44264Y-59000D01*
X44645Y-59381D01*
X44771Y-59366D01*
X44803Y-59293D01*
X44804Y-59297D01*
X44952Y-59444D01*
X45145Y-59524D01*
X45353Y-59525D01*
X45547Y-59445D01*
X45694Y-59297D01*
X45750Y-59164D01*
X45804Y-59297D01*
X45952Y-59444D01*
X46145Y-59524D01*
X46324Y-59525D01*
X46324Y-59584D01*
X46389Y-59740D01*
X46508Y-59860D01*
X46665Y-59924D01*
X46834Y-59925D01*
X46990Y-59860D01*
X47110Y-59741D01*
X47174Y-59584D01*
X47174Y-59524D01*
X47353Y-59525D01*
X47547Y-59445D01*
X47694Y-59297D01*
X47774Y-59104D01*
X47775Y-58896D01*
X47700Y-58714D01*
X47700Y-58686D01*
X48353Y-58032D01*
X48399Y-58261D01*
X48540Y-58472D01*
X48751Y-58613D01*
X49000Y-58662D01*
X49248Y-58613D01*
X49459Y-58472D01*
X49572Y-58302D01*
X49572Y-60074D01*
X49572Y-60074D01*
G37*
X49572Y-60074D02*
X44631Y-60074D01*
X44631Y-59395D01*
X44250Y-59014D01*
X44235Y-59028D01*
X44235Y-59000D01*
X43854Y-58618D01*
X43750Y-58630D01*
X43645Y-58618D01*
X43631Y-58632D01*
X43631Y-58604D01*
X43631Y-56395D01*
X43250Y-56014D01*
X42868Y-56395D01*
X42883Y-56521D01*
X43110Y-56621D01*
X43359Y-56627D01*
X43591Y-56538D01*
X43616Y-56521D01*
X43631Y-56395D01*
X43631Y-58604D01*
X43616Y-58478D01*
X43389Y-58378D01*
X43140Y-58372D01*
X42908Y-58461D01*
X42883Y-58478D01*
X42868Y-58604D01*
X43250Y-58985D01*
X43631Y-58604D01*
X43631Y-58632D01*
X43264Y-59000D01*
X43645Y-59381D01*
X43750Y-59369D01*
X43854Y-59381D01*
X44235Y-59000D01*
X44235Y-59028D01*
X43868Y-59395D01*
X43883Y-59521D01*
X44110Y-59621D01*
X44359Y-59627D01*
X44591Y-59538D01*
X44616Y-59521D01*
X44631Y-59395D01*
X44631Y-60074D01*
X43631Y-60074D01*
X43631Y-59395D01*
X43250Y-59014D01*
X42868Y-59395D01*
X42883Y-59521D01*
X43110Y-59621D01*
X43359Y-59627D01*
X43591Y-59538D01*
X43616Y-59521D01*
X43631Y-59395D01*
X43631Y-60074D01*
X39150Y-60074D01*
X39150Y-59199D01*
X39150Y-59100D01*
X39150Y-58300D01*
X39111Y-58208D01*
X39041Y-58138D01*
X39021Y-58129D01*
X39100Y-58011D01*
X39150Y-57762D01*
X39150Y-57737D01*
X39100Y-57488D01*
X38959Y-57277D01*
X38748Y-57136D01*
X38500Y-57087D01*
X38251Y-57136D01*
X38040Y-57277D01*
X37899Y-57488D01*
X37850Y-57737D01*
X37850Y-57762D01*
X37899Y-58011D01*
X37978Y-58129D01*
X37958Y-58138D01*
X37888Y-58208D01*
X37850Y-58300D01*
X37850Y-58399D01*
X37850Y-59199D01*
X37888Y-59291D01*
X37958Y-59361D01*
X38050Y-59400D01*
X38149Y-59400D01*
X38949Y-59400D01*
X39041Y-59361D01*
X39111Y-59291D01*
X39150Y-59199D01*
X39150Y-60074D01*
X34750Y-60074D01*
X34750Y-57047D01*
X34662Y-56960D01*
X32510Y-56960D01*
X32510Y-56967D01*
X32490Y-56967D01*
X32490Y-56960D01*
X32482Y-56960D01*
X32482Y-56940D01*
X32490Y-56940D01*
X32490Y-53587D01*
X32490Y-53201D01*
X32490Y-52260D01*
X32482Y-52260D01*
X32482Y-52240D01*
X32490Y-52240D01*
X32490Y-51298D01*
X32383Y-51221D01*
X32247Y-51259D01*
X32023Y-51404D01*
X31950Y-51510D01*
X31950Y-51500D01*
X31915Y-51327D01*
X31818Y-51181D01*
X31703Y-51067D01*
X31712Y-51059D01*
X31795Y-50858D01*
X31795Y-50641D01*
X31712Y-50441D01*
X31584Y-50312D01*
X31602Y-50305D01*
X31628Y-50288D01*
X31646Y-50160D01*
X31250Y-49764D01*
X31235Y-49778D01*
X31235Y-49750D01*
X30839Y-49353D01*
X30711Y-49371D01*
X30607Y-49606D01*
X30601Y-49862D01*
X30694Y-50102D01*
X30711Y-50128D01*
X30839Y-50146D01*
X31235Y-49750D01*
X31235Y-49778D01*
X30853Y-50160D01*
X30871Y-50288D01*
X30919Y-50309D01*
X30787Y-50440D01*
X30704Y-50641D01*
X30704Y-50858D01*
X30787Y-51058D01*
X30800Y-51071D01*
X30800Y-51250D01*
X30834Y-51422D01*
X30931Y-51568D01*
X30982Y-51619D01*
X30959Y-51653D01*
X30915Y-51877D01*
X30915Y-52622D01*
X30959Y-52846D01*
X31086Y-53036D01*
X31276Y-53162D01*
X31500Y-53207D01*
X31723Y-53162D01*
X31913Y-53036D01*
X31947Y-52985D01*
X32023Y-53095D01*
X32247Y-53240D01*
X32383Y-53278D01*
X32490Y-53201D01*
X32490Y-53587D01*
X32402Y-53500D01*
X30669Y-53500D01*
X30530Y-53500D01*
X30427Y-53542D01*
X30427Y-49050D01*
X31764Y-49050D01*
X31774Y-49056D01*
X32000Y-49101D01*
X32225Y-49056D01*
X32235Y-49050D01*
X32669Y-49050D01*
X32681Y-49068D01*
X32782Y-49169D01*
X32643Y-49107D01*
X32387Y-49101D01*
X32147Y-49194D01*
X32121Y-49211D01*
X32103Y-49339D01*
X32500Y-49735D01*
X32505Y-49730D01*
X32519Y-49744D01*
X32514Y-49750D01*
X32910Y-50146D01*
X33038Y-50128D01*
X33050Y-50102D01*
X33050Y-51510D01*
X32976Y-51404D01*
X32896Y-51352D01*
X32896Y-50160D01*
X32500Y-49764D01*
X32485Y-49778D01*
X32485Y-49750D01*
X32089Y-49353D01*
X31961Y-49371D01*
X31873Y-49571D01*
X31805Y-49397D01*
X31788Y-49371D01*
X31660Y-49353D01*
X31646Y-49367D01*
X31646Y-49339D01*
X31628Y-49211D01*
X31393Y-49107D01*
X31137Y-49101D01*
X30897Y-49194D01*
X30871Y-49211D01*
X30853Y-49339D01*
X31250Y-49735D01*
X31646Y-49339D01*
X31646Y-49367D01*
X31264Y-49750D01*
X31660Y-50146D01*
X31788Y-50128D01*
X31876Y-49928D01*
X31944Y-50102D01*
X31961Y-50128D01*
X32089Y-50146D01*
X32485Y-49750D01*
X32485Y-49778D01*
X32103Y-50160D01*
X32121Y-50288D01*
X32356Y-50392D01*
X32612Y-50398D01*
X32852Y-50305D01*
X32878Y-50288D01*
X32896Y-50160D01*
X32896Y-51352D01*
X32752Y-51259D01*
X32616Y-51221D01*
X32510Y-51298D01*
X32510Y-52240D01*
X32517Y-52240D01*
X32517Y-52260D01*
X32510Y-52260D01*
X32510Y-53201D01*
X32616Y-53278D01*
X32752Y-53240D01*
X32976Y-53095D01*
X33050Y-52989D01*
X33050Y-53000D01*
X33084Y-53172D01*
X33181Y-53318D01*
X33363Y-53500D01*
X32597Y-53500D01*
X32510Y-53587D01*
X32510Y-56940D01*
X34662Y-56940D01*
X34750Y-56852D01*
X34750Y-53780D01*
X34716Y-53700D01*
X34819Y-53700D01*
X34760Y-53832D01*
X34752Y-54128D01*
X34858Y-54404D01*
X34880Y-54437D01*
X35018Y-54467D01*
X35485Y-54000D01*
X35480Y-53994D01*
X35494Y-53980D01*
X35500Y-53985D01*
X35505Y-53980D01*
X35519Y-53994D01*
X35514Y-54000D01*
X35981Y-54467D01*
X36119Y-54437D01*
X36221Y-54206D01*
X36268Y-54217D01*
X36735Y-53750D01*
X36730Y-53744D01*
X36744Y-53730D01*
X36750Y-53735D01*
X36755Y-53730D01*
X36769Y-53744D01*
X36764Y-53750D01*
X36769Y-53755D01*
X36755Y-53769D01*
X36750Y-53764D01*
X36282Y-54231D01*
X36312Y-54369D01*
X36554Y-54476D01*
X36550Y-54500D01*
X36550Y-54934D01*
X36518Y-54948D01*
X36448Y-55018D01*
X36410Y-55110D01*
X36410Y-55209D01*
X36410Y-55889D01*
X36448Y-55981D01*
X36518Y-56051D01*
X36585Y-56079D01*
X36500Y-56165D01*
X36410Y-56382D01*
X36409Y-56616D01*
X36499Y-56833D01*
X36665Y-56999D01*
X36665Y-57000D01*
X36500Y-57165D01*
X36410Y-57382D01*
X36409Y-57616D01*
X36499Y-57833D01*
X36550Y-57884D01*
X36550Y-58563D01*
X36409Y-58704D01*
X36391Y-58704D01*
X36191Y-58787D01*
X36037Y-58940D01*
X36000Y-59031D01*
X35962Y-58941D01*
X35809Y-58787D01*
X35800Y-58783D01*
X35800Y-58572D01*
X35864Y-58545D01*
X36045Y-58364D01*
X36143Y-58128D01*
X36143Y-57872D01*
X36045Y-57635D01*
X35967Y-57557D01*
X35967Y-54481D01*
X35500Y-54014D01*
X35032Y-54481D01*
X35062Y-54619D01*
X35332Y-54739D01*
X35628Y-54747D01*
X35904Y-54641D01*
X35937Y-54619D01*
X35967Y-54481D01*
X35967Y-57557D01*
X35864Y-57454D01*
X35628Y-57356D01*
X35372Y-57356D01*
X35135Y-57454D01*
X34954Y-57635D01*
X34856Y-57871D01*
X34856Y-58127D01*
X34954Y-58364D01*
X35135Y-58545D01*
X35200Y-58572D01*
X35200Y-58783D01*
X35191Y-58787D01*
X35037Y-58940D01*
X34954Y-59141D01*
X34954Y-59358D01*
X35037Y-59558D01*
X35190Y-59712D01*
X35391Y-59795D01*
X35608Y-59795D01*
X35808Y-59712D01*
X35962Y-59559D01*
X35999Y-59468D01*
X36037Y-59558D01*
X36190Y-59712D01*
X36391Y-59795D01*
X36608Y-59795D01*
X36808Y-59712D01*
X36962Y-59559D01*
X37045Y-59358D01*
X37045Y-59340D01*
X37318Y-59068D01*
X37415Y-58922D01*
X37450Y-58750D01*
X37450Y-57884D01*
X37499Y-57834D01*
X37589Y-57617D01*
X37589Y-57546D01*
X38590Y-56545D01*
X38608Y-56545D01*
X38808Y-56462D01*
X38962Y-56309D01*
X39045Y-56108D01*
X39045Y-55891D01*
X38962Y-55691D01*
X38834Y-55562D01*
X38852Y-55555D01*
X38878Y-55538D01*
X38896Y-55410D01*
X38500Y-55014D01*
X38494Y-55019D01*
X38480Y-55005D01*
X38485Y-55000D01*
X38480Y-54994D01*
X38494Y-54980D01*
X38500Y-54985D01*
X38896Y-54589D01*
X38878Y-54461D01*
X38795Y-54425D01*
X38834Y-54425D01*
X38990Y-54360D01*
X39110Y-54241D01*
X39174Y-54084D01*
X39175Y-53915D01*
X39110Y-53759D01*
X39050Y-53698D01*
X39050Y-53072D01*
X39114Y-53045D01*
X39200Y-52960D01*
X39200Y-53750D01*
X39222Y-53864D01*
X39287Y-53962D01*
X39450Y-54124D01*
X39450Y-54427D01*
X39385Y-54454D01*
X39204Y-54635D01*
X39125Y-54826D01*
X39055Y-54647D01*
X39038Y-54621D01*
X38910Y-54603D01*
X38514Y-55000D01*
X38910Y-55396D01*
X39038Y-55378D01*
X39127Y-55177D01*
X39204Y-55364D01*
X39385Y-55545D01*
X39450Y-55572D01*
X39450Y-57500D01*
X39472Y-57614D01*
X39537Y-57712D01*
X40300Y-58475D01*
X40146Y-58474D01*
X39953Y-58554D01*
X39805Y-58702D01*
X39725Y-58895D01*
X39724Y-59103D01*
X39804Y-59297D01*
X39952Y-59444D01*
X40145Y-59524D01*
X40353Y-59525D01*
X40547Y-59445D01*
X40694Y-59297D01*
X40750Y-59164D01*
X40804Y-59297D01*
X40952Y-59444D01*
X41145Y-59524D01*
X41353Y-59525D01*
X41547Y-59445D01*
X41694Y-59297D01*
X41750Y-59164D01*
X41804Y-59297D01*
X41952Y-59444D01*
X42145Y-59524D01*
X42353Y-59525D01*
X42547Y-59445D01*
X42694Y-59297D01*
X42694Y-59297D01*
X42711Y-59341D01*
X42728Y-59366D01*
X42854Y-59381D01*
X43235Y-59000D01*
X42854Y-58618D01*
X42728Y-58633D01*
X42696Y-58706D01*
X42695Y-58703D01*
X42547Y-58555D01*
X42354Y-58475D01*
X42146Y-58474D01*
X41953Y-58554D01*
X41805Y-58702D01*
X41749Y-58835D01*
X41695Y-58703D01*
X41547Y-58555D01*
X41354Y-58475D01*
X41149Y-58474D01*
X40050Y-57375D01*
X40050Y-56485D01*
X40145Y-56524D01*
X40353Y-56525D01*
X40547Y-56445D01*
X40694Y-56297D01*
X40747Y-56171D01*
X40756Y-56181D01*
X40804Y-56297D01*
X40952Y-56444D01*
X41145Y-56524D01*
X41353Y-56525D01*
X41547Y-56445D01*
X41694Y-56297D01*
X41750Y-56164D01*
X41804Y-56297D01*
X41952Y-56444D01*
X42145Y-56524D01*
X42353Y-56525D01*
X42547Y-56445D01*
X42694Y-56297D01*
X42694Y-56297D01*
X42711Y-56341D01*
X42728Y-56366D01*
X42854Y-56381D01*
X43235Y-56000D01*
X42854Y-55618D01*
X42728Y-55633D01*
X42696Y-55706D01*
X42695Y-55703D01*
X42547Y-55555D01*
X42354Y-55475D01*
X42146Y-55474D01*
X41953Y-55554D01*
X41805Y-55702D01*
X41749Y-55835D01*
X41695Y-55703D01*
X41547Y-55555D01*
X41354Y-55475D01*
X41146Y-55474D01*
X40971Y-55547D01*
X40800Y-55375D01*
X40800Y-54750D01*
X40777Y-54635D01*
X40712Y-54537D01*
X40712Y-54537D01*
X40529Y-54355D01*
X40621Y-54393D01*
X40877Y-54393D01*
X41114Y-54295D01*
X41295Y-54114D01*
X41393Y-53878D01*
X41393Y-53622D01*
X41295Y-53385D01*
X41240Y-53330D01*
X41212Y-53287D01*
X41169Y-53259D01*
X41114Y-53204D01*
X41050Y-53177D01*
X41050Y-53124D01*
X41212Y-52962D01*
X41212Y-52962D01*
X41251Y-52903D01*
X41277Y-52864D01*
X41277Y-52864D01*
X41300Y-52750D01*
X41300Y-52374D01*
X41374Y-52300D01*
X43125Y-52300D01*
X43200Y-52374D01*
X43200Y-52750D01*
X43222Y-52864D01*
X43287Y-52962D01*
X43787Y-53462D01*
X43787Y-53462D01*
X43885Y-53527D01*
X44000Y-53550D01*
X44250Y-53550D01*
X44250Y-53549D01*
X44277Y-53544D01*
X44260Y-53582D01*
X44252Y-53878D01*
X44358Y-54154D01*
X44380Y-54187D01*
X44518Y-54217D01*
X44985Y-53750D01*
X44980Y-53744D01*
X44994Y-53730D01*
X45000Y-53735D01*
X45005Y-53730D01*
X45019Y-53744D01*
X45014Y-53750D01*
X45481Y-54217D01*
X45619Y-54187D01*
X45739Y-53917D01*
X45745Y-53670D01*
X45950Y-53874D01*
X45950Y-55557D01*
X45805Y-55702D01*
X45749Y-55835D01*
X45747Y-55828D01*
X45747Y-54871D01*
X45641Y-54595D01*
X45619Y-54562D01*
X45481Y-54532D01*
X45467Y-54547D01*
X45467Y-54518D01*
X45437Y-54380D01*
X45426Y-54376D01*
X45437Y-54369D01*
X45467Y-54231D01*
X45000Y-53764D01*
X44532Y-54231D01*
X44562Y-54369D01*
X44573Y-54373D01*
X44562Y-54380D01*
X44532Y-54518D01*
X45000Y-54985D01*
X45467Y-54518D01*
X45467Y-54547D01*
X45014Y-55000D01*
X45481Y-55467D01*
X45619Y-55437D01*
X45739Y-55167D01*
X45747Y-54871D01*
X45747Y-55828D01*
X45695Y-55703D01*
X45547Y-55555D01*
X45459Y-55518D01*
X45467Y-55481D01*
X45000Y-55014D01*
X44994Y-55019D01*
X44980Y-55005D01*
X44985Y-55000D01*
X44518Y-54532D01*
X44380Y-54562D01*
X44376Y-54573D01*
X44369Y-54562D01*
X44231Y-54532D01*
X44217Y-54547D01*
X44217Y-54518D01*
X44187Y-54380D01*
X43917Y-54260D01*
X43621Y-54252D01*
X43345Y-54358D01*
X43312Y-54380D01*
X43282Y-54518D01*
X43750Y-54985D01*
X44217Y-54518D01*
X44217Y-54547D01*
X43764Y-55000D01*
X43769Y-55005D01*
X43755Y-55019D01*
X43750Y-55014D01*
X43744Y-55019D01*
X43730Y-55005D01*
X43735Y-55000D01*
X43268Y-54532D01*
X43130Y-54562D01*
X43010Y-54832D01*
X43002Y-55128D01*
X43102Y-55387D01*
X42908Y-55461D01*
X42883Y-55478D01*
X42868Y-55604D01*
X43250Y-55985D01*
X43255Y-55980D01*
X43269Y-55994D01*
X43264Y-56000D01*
X43645Y-56381D01*
X43750Y-56369D01*
X43854Y-56381D01*
X44235Y-56000D01*
X44230Y-55994D01*
X44244Y-55980D01*
X44250Y-55985D01*
X44255Y-55980D01*
X44269Y-55994D01*
X44264Y-56000D01*
X44645Y-56381D01*
X44771Y-56366D01*
X44803Y-56293D01*
X44804Y-56297D01*
X44952Y-56444D01*
X45145Y-56524D01*
X45353Y-56525D01*
X45547Y-56445D01*
X45694Y-56297D01*
X45750Y-56164D01*
X45804Y-56297D01*
X45952Y-56444D01*
X46145Y-56524D01*
X46353Y-56525D01*
X46450Y-56485D01*
X46450Y-57625D01*
X46037Y-58037D01*
X45972Y-58135D01*
X45950Y-58250D01*
X45950Y-58557D01*
X45805Y-58702D01*
X45749Y-58835D01*
X45695Y-58703D01*
X45547Y-58555D01*
X45354Y-58475D01*
X45146Y-58474D01*
X44953Y-58554D01*
X44805Y-58702D01*
X44805Y-58702D01*
X44788Y-58658D01*
X44771Y-58633D01*
X44645Y-58618D01*
X44631Y-58632D01*
X44631Y-58604D01*
X44631Y-56395D01*
X44250Y-56014D01*
X43868Y-56395D01*
X43883Y-56521D01*
X44110Y-56621D01*
X44359Y-56627D01*
X44591Y-56538D01*
X44616Y-56521D01*
X44631Y-56395D01*
X44631Y-58604D01*
X44616Y-58478D01*
X44389Y-58378D01*
X44140Y-58372D01*
X43908Y-58461D01*
X43883Y-58478D01*
X43868Y-58604D01*
X44250Y-58985D01*
X44631Y-58604D01*
X44631Y-58632D01*
X44264Y-59000D01*
X44645Y-59381D01*
X44771Y-59366D01*
X44803Y-59293D01*
X44804Y-59297D01*
X44952Y-59444D01*
X45145Y-59524D01*
X45353Y-59525D01*
X45547Y-59445D01*
X45694Y-59297D01*
X45750Y-59164D01*
X45804Y-59297D01*
X45952Y-59444D01*
X46145Y-59524D01*
X46324Y-59525D01*
X46324Y-59584D01*
X46389Y-59740D01*
X46508Y-59860D01*
X46665Y-59924D01*
X46834Y-59925D01*
X46990Y-59860D01*
X47110Y-59741D01*
X47174Y-59584D01*
X47174Y-59524D01*
X47353Y-59525D01*
X47547Y-59445D01*
X47694Y-59297D01*
X47774Y-59104D01*
X47775Y-58896D01*
X47700Y-58714D01*
X47700Y-58686D01*
X48353Y-58032D01*
X48399Y-58261D01*
X48540Y-58472D01*
X48751Y-58613D01*
X49000Y-58662D01*
X49248Y-58613D01*
X49459Y-58472D01*
X49572Y-58302D01*
X49572Y-60074D01*
M02*
