M48
;DRILL file {kicad (2014-jan-25)-product} date Sun 13 Jul 2014 06:26:40 PM PDT
;FORMAT={2:4/ absolute / inch / suppress leading zeros}
FMAT,2
INCH,TZ
T1C0.025
T2C0.032
T3C0.032
T4C0.039
T5C0.040
T6C0.125
T7C0.150
%
G90
G05
M72
T1
X35500Y-45500
X37250Y-47250
X38750Y-54000
X39250Y-44750
X39250Y-45250
X39500Y-46000
X39500Y-48500
X39750Y-47500
X41750Y-53000
X41750Y-53750
X41750Y-54750
X41750Y-55250
X41850Y-59800
X42350Y-59800
X42500Y-54750
X42500Y-55250
X42750Y-53000
X42750Y-53750
X42850Y-59800
X43250Y-57250
X43250Y-57750
X43350Y-59800
X43500Y-53750
X43750Y-46000
X43750Y-47500
X43750Y-57250
X43750Y-57750
X43900Y-59800
X44250Y-57250
X44250Y-57750
X44500Y-43750
X44500Y-59800
X44750Y-48000
X45000Y-46250
X46750Y-55000
X46750Y-59500
X47750Y-53750
X48500Y-49500
X49000Y-43000
X49150Y-52750
T2
X31250Y-49750
X31250Y-50750
X32500Y-49750
X33500Y-49750
X35500Y-59250
X36500Y-59250
X38500Y-55000
X38500Y-56000
T3
X35500Y-48500
X35500Y-51500
X36500Y-48500
X36500Y-51500
X37500Y-48500
X37500Y-51500
X38500Y-48500
X38500Y-51500
X40250Y-56000
X40250Y-59000
X40500Y-48500
X40500Y-51500
X41250Y-56000
X41250Y-59000
X41500Y-48500
X41500Y-51500
X42250Y-56000
X42250Y-59000
X42500Y-48500
X42500Y-51500
X43250Y-56000
X43250Y-59000
X43500Y-48500
X43500Y-51500
X44250Y-56000
X44250Y-59000
X45250Y-56000
X45250Y-59000
X45500Y-49500
X45500Y-52500
X46250Y-56000
X46250Y-59000
X46500Y-49500
X46500Y-52500
X47250Y-56000
X47250Y-59000
X47500Y-49500
X47500Y-52500
X48500Y-49500
X48500Y-52500
T4
X31500Y-52250
X32500Y-52250
X33500Y-52250
X34500Y-47500
X34750Y-52500
X35500Y-54000
X35500Y-58000
X36750Y-53750
X38500Y-47500
X38750Y-52500
X39750Y-55000
X40250Y-52500
X40750Y-53750
X42000Y-41500
X42000Y-43000
X42000Y-44500
X42000Y-46000
X42000Y-47500
X43750Y-55000
X44250Y-52500
X45000Y-53750
X45000Y-55000
X46000Y-41500
X46000Y-43000
X46000Y-44500
X46000Y-46000
X46000Y-47500
X49000Y-53750
X49000Y-55000
T5
X32000Y-41500
X32000Y-42500
X32000Y-43500
X32000Y-44500
X32000Y-45500
X32000Y-46500
X32000Y-47500
X32000Y-48500
X33000Y-41500
X33000Y-42500
X33000Y-43500
X33000Y-44500
X33000Y-45500
X33000Y-46500
X33000Y-47500
X33000Y-48500
X35000Y-41500
X35000Y-43000
X35000Y-44500
X35000Y-46000
X36000Y-41500
X36000Y-43000
X36000Y-44500
X36000Y-46000
X37000Y-41500
X37000Y-43000
X37000Y-44500
X37000Y-46000
X37000Y-55500
X37000Y-56500
X37000Y-57500
X38000Y-41500
X38000Y-43000
X38000Y-44500
X38000Y-46000
X38500Y-57750
X38500Y-58750
X47000Y-41500
X47000Y-42500
X47000Y-43500
X47000Y-44500
X47000Y-45500
X47000Y-46500
X47000Y-47500
X47000Y-48500
X48000Y-41500
X48000Y-42500
X48000Y-43500
X48000Y-44500
X48000Y-45500
X48000Y-46500
X48000Y-47500
X48000Y-48500
X49000Y-57000
X49000Y-58000
T6
X40000Y-42000
T7
X32500Y-58850
T0
M30
